G04 #@! TF.GenerationSoftware,KiCad,Pcbnew,(5.1.9)-1*
G04 #@! TF.CreationDate,2021-11-13T13:02:00+09:00*
G04 #@! TF.ProjectId,MainBoard2022_mega,4d61696e-426f-4617-9264-323032325f6d,rev?*
G04 #@! TF.SameCoordinates,Original*
G04 #@! TF.FileFunction,Copper,L1,Top*
G04 #@! TF.FilePolarity,Positive*
%FSLAX46Y46*%
G04 Gerber Fmt 4.6, Leading zero omitted, Abs format (unit mm)*
G04 Created by KiCad (PCBNEW (5.1.9)-1) date 2021-11-13 13:02:00*
%MOMM*%
%LPD*%
G01*
G04 APERTURE LIST*
G04 #@! TA.AperFunction,SMDPad,CuDef*
%ADD10R,1.900000X0.400000*%
G04 #@! TD*
G04 #@! TA.AperFunction,ComponentPad*
%ADD11R,1.700000X1.700000*%
G04 #@! TD*
G04 #@! TA.AperFunction,ComponentPad*
%ADD12O,1.700000X1.700000*%
G04 #@! TD*
G04 #@! TA.AperFunction,SMDPad,CuDef*
%ADD13R,5.000000X5.000000*%
G04 #@! TD*
G04 #@! TA.AperFunction,SMDPad,CuDef*
%ADD14R,2.000000X0.900000*%
G04 #@! TD*
G04 #@! TA.AperFunction,SMDPad,CuDef*
%ADD15R,0.900000X2.000000*%
G04 #@! TD*
G04 #@! TA.AperFunction,ComponentPad*
%ADD16C,1.700000*%
G04 #@! TD*
G04 #@! TA.AperFunction,SMDPad,CuDef*
%ADD17R,2.000000X2.500000*%
G04 #@! TD*
G04 #@! TA.AperFunction,SMDPad,CuDef*
%ADD18R,0.500000X2.500000*%
G04 #@! TD*
G04 #@! TA.AperFunction,ComponentPad*
%ADD19O,1.950000X1.700000*%
G04 #@! TD*
G04 #@! TA.AperFunction,ComponentPad*
%ADD20R,1.500000X2.300000*%
G04 #@! TD*
G04 #@! TA.AperFunction,ComponentPad*
%ADD21O,1.500000X2.300000*%
G04 #@! TD*
G04 #@! TA.AperFunction,SMDPad,CuDef*
%ADD22R,1.050000X0.650000*%
G04 #@! TD*
G04 #@! TA.AperFunction,SMDPad,CuDef*
%ADD23R,0.900000X0.800000*%
G04 #@! TD*
G04 #@! TA.AperFunction,SMDPad,CuDef*
%ADD24R,1.600000X0.550000*%
G04 #@! TD*
G04 #@! TA.AperFunction,SMDPad,CuDef*
%ADD25R,0.550000X1.600000*%
G04 #@! TD*
G04 #@! TA.AperFunction,SMDPad,CuDef*
%ADD26O,1.400000X0.900000*%
G04 #@! TD*
G04 #@! TA.AperFunction,SMDPad,CuDef*
%ADD27O,0.900000X1.400000*%
G04 #@! TD*
G04 #@! TA.AperFunction,SMDPad,CuDef*
%ADD28O,0.900000X1.200000*%
G04 #@! TD*
G04 #@! TA.AperFunction,SMDPad,CuDef*
%ADD29R,1.600000X0.760000*%
G04 #@! TD*
G04 #@! TA.AperFunction,SMDPad,CuDef*
%ADD30R,0.650000X1.050000*%
G04 #@! TD*
G04 #@! TA.AperFunction,ComponentPad*
%ADD31R,2.500000X1.500000*%
G04 #@! TD*
G04 #@! TA.AperFunction,ComponentPad*
%ADD32O,2.500000X1.500000*%
G04 #@! TD*
G04 #@! TA.AperFunction,ComponentPad*
%ADD33O,3.500000X2.200000*%
G04 #@! TD*
G04 #@! TA.AperFunction,SMDPad,CuDef*
%ADD34R,0.700000X1.200000*%
G04 #@! TD*
G04 #@! TA.AperFunction,SMDPad,CuDef*
%ADD35R,1.000000X1.200000*%
G04 #@! TD*
G04 #@! TA.AperFunction,SMDPad,CuDef*
%ADD36R,1.000000X0.800000*%
G04 #@! TD*
G04 #@! TA.AperFunction,SMDPad,CuDef*
%ADD37R,1.000000X2.800000*%
G04 #@! TD*
G04 #@! TA.AperFunction,SMDPad,CuDef*
%ADD38R,1.300000X1.900000*%
G04 #@! TD*
G04 #@! TA.AperFunction,ComponentPad*
%ADD39O,2.000000X1.700000*%
G04 #@! TD*
G04 #@! TA.AperFunction,ComponentPad*
%ADD40O,1.727200X2.032000*%
G04 #@! TD*
G04 #@! TA.AperFunction,ComponentPad*
%ADD41C,4.064000*%
G04 #@! TD*
G04 #@! TA.AperFunction,ViaPad*
%ADD42C,0.800000*%
G04 #@! TD*
G04 #@! TA.AperFunction,ViaPad*
%ADD43C,0.600000*%
G04 #@! TD*
G04 #@! TA.AperFunction,Conductor*
%ADD44C,0.406400*%
G04 #@! TD*
G04 #@! TA.AperFunction,Conductor*
%ADD45C,0.304800*%
G04 #@! TD*
G04 #@! TA.AperFunction,Conductor*
%ADD46C,0.508000*%
G04 #@! TD*
G04 #@! TA.AperFunction,Conductor*
%ADD47C,0.609600*%
G04 #@! TD*
G04 #@! TA.AperFunction,Conductor*
%ADD48C,0.812800*%
G04 #@! TD*
G04 #@! TA.AperFunction,Conductor*
%ADD49C,1.270000*%
G04 #@! TD*
G04 #@! TA.AperFunction,Conductor*
%ADD50C,1.524000*%
G04 #@! TD*
G04 #@! TA.AperFunction,Conductor*
%ADD51C,1.016000*%
G04 #@! TD*
G04 #@! TA.AperFunction,Conductor*
%ADD52C,0.203200*%
G04 #@! TD*
G04 #@! TA.AperFunction,Conductor*
%ADD53C,0.254000*%
G04 #@! TD*
G04 #@! TA.AperFunction,Conductor*
%ADD54C,0.100000*%
G04 #@! TD*
G04 APERTURE END LIST*
D10*
X179578000Y-100006000D03*
X179578000Y-98806000D03*
X179578000Y-97606000D03*
X173545500Y-109848500D03*
X173545500Y-108648500D03*
X173545500Y-107448500D03*
D11*
X166878000Y-91186000D03*
D12*
X169418000Y-91186000D03*
X166878000Y-93726000D03*
X169418000Y-93726000D03*
X166878000Y-96266000D03*
X169418000Y-96266000D03*
D13*
X148098000Y-100591000D03*
D14*
X140598000Y-93091000D03*
X140598000Y-94361000D03*
X140598000Y-95631000D03*
X140598000Y-96901000D03*
X140598000Y-98171000D03*
X140598000Y-99441000D03*
X140598000Y-100711000D03*
X140598000Y-101981000D03*
X140598000Y-103251000D03*
X140598000Y-104521000D03*
X140598000Y-105791000D03*
X140598000Y-107061000D03*
X140598000Y-108331000D03*
X140598000Y-109601000D03*
D15*
X143383000Y-110601000D03*
X144653000Y-110601000D03*
X145923000Y-110601000D03*
X147193000Y-110601000D03*
X148463000Y-110601000D03*
X149733000Y-110601000D03*
X151003000Y-110601000D03*
X152273000Y-110601000D03*
X153543000Y-110601000D03*
X154813000Y-110601000D03*
D14*
X157598000Y-109601000D03*
X157598000Y-108331000D03*
X157598000Y-107061000D03*
X157598000Y-105791000D03*
X157598000Y-104521000D03*
X157598000Y-103251000D03*
X157598000Y-101981000D03*
X157598000Y-100711000D03*
X157598000Y-99441000D03*
X157598000Y-98171000D03*
X157598000Y-96901000D03*
X157598000Y-95631000D03*
X157598000Y-94361000D03*
X157598000Y-93091000D03*
D16*
X198683000Y-77066000D03*
X198683000Y-83566000D03*
X194183000Y-77066000D03*
X194183000Y-83566000D03*
D17*
X165018000Y-118216000D03*
X173818000Y-118216000D03*
X165018000Y-112716000D03*
X173818000Y-112716000D03*
D18*
X167818000Y-112716000D03*
X168618000Y-112716000D03*
X169418000Y-112716000D03*
X170218000Y-112716000D03*
X171018000Y-112716000D03*
G04 #@! TA.AperFunction,SMDPad,CuDef*
G36*
G01*
X130195500Y-103488500D02*
X130195500Y-103013500D01*
G75*
G02*
X130433000Y-102776000I237500J0D01*
G01*
X130933000Y-102776000D01*
G75*
G02*
X131170500Y-103013500I0J-237500D01*
G01*
X131170500Y-103488500D01*
G75*
G02*
X130933000Y-103726000I-237500J0D01*
G01*
X130433000Y-103726000D01*
G75*
G02*
X130195500Y-103488500I0J237500D01*
G01*
G37*
G04 #@! TD.AperFunction*
G04 #@! TA.AperFunction,SMDPad,CuDef*
G36*
G01*
X128370500Y-103488500D02*
X128370500Y-103013500D01*
G75*
G02*
X128608000Y-102776000I237500J0D01*
G01*
X129108000Y-102776000D01*
G75*
G02*
X129345500Y-103013500I0J-237500D01*
G01*
X129345500Y-103488500D01*
G75*
G02*
X129108000Y-103726000I-237500J0D01*
G01*
X128608000Y-103726000D01*
G75*
G02*
X128370500Y-103488500I0J237500D01*
G01*
G37*
G04 #@! TD.AperFunction*
G04 #@! TA.AperFunction,SMDPad,CuDef*
G36*
G01*
X197228000Y-102218500D02*
X197228000Y-101743500D01*
G75*
G02*
X197465500Y-101506000I237500J0D01*
G01*
X198040500Y-101506000D01*
G75*
G02*
X198278000Y-101743500I0J-237500D01*
G01*
X198278000Y-102218500D01*
G75*
G02*
X198040500Y-102456000I-237500J0D01*
G01*
X197465500Y-102456000D01*
G75*
G02*
X197228000Y-102218500I0J237500D01*
G01*
G37*
G04 #@! TD.AperFunction*
G04 #@! TA.AperFunction,SMDPad,CuDef*
G36*
G01*
X198978000Y-102218500D02*
X198978000Y-101743500D01*
G75*
G02*
X199215500Y-101506000I237500J0D01*
G01*
X199790500Y-101506000D01*
G75*
G02*
X200028000Y-101743500I0J-237500D01*
G01*
X200028000Y-102218500D01*
G75*
G02*
X199790500Y-102456000I-237500J0D01*
G01*
X199215500Y-102456000D01*
G75*
G02*
X198978000Y-102218500I0J237500D01*
G01*
G37*
G04 #@! TD.AperFunction*
G04 #@! TA.AperFunction,SMDPad,CuDef*
G36*
G01*
X125318000Y-103488500D02*
X125318000Y-103013500D01*
G75*
G02*
X125555500Y-102776000I237500J0D01*
G01*
X126130500Y-102776000D01*
G75*
G02*
X126368000Y-103013500I0J-237500D01*
G01*
X126368000Y-103488500D01*
G75*
G02*
X126130500Y-103726000I-237500J0D01*
G01*
X125555500Y-103726000D01*
G75*
G02*
X125318000Y-103488500I0J237500D01*
G01*
G37*
G04 #@! TD.AperFunction*
G04 #@! TA.AperFunction,SMDPad,CuDef*
G36*
G01*
X123568000Y-103488500D02*
X123568000Y-103013500D01*
G75*
G02*
X123805500Y-102776000I237500J0D01*
G01*
X124380500Y-102776000D01*
G75*
G02*
X124618000Y-103013500I0J-237500D01*
G01*
X124618000Y-103488500D01*
G75*
G02*
X124380500Y-103726000I-237500J0D01*
G01*
X123805500Y-103726000D01*
G75*
G02*
X123568000Y-103488500I0J237500D01*
G01*
G37*
G04 #@! TD.AperFunction*
D11*
X155448000Y-115316000D03*
D12*
X152908000Y-115316000D03*
X150368000Y-115316000D03*
X147828000Y-115316000D03*
X145288000Y-115316000D03*
X142748000Y-115316000D03*
G04 #@! TA.AperFunction,SMDPad,CuDef*
G36*
G01*
X155578000Y-112538500D02*
X155578000Y-113013500D01*
G75*
G02*
X155340500Y-113251000I-237500J0D01*
G01*
X154740500Y-113251000D01*
G75*
G02*
X154503000Y-113013500I0J237500D01*
G01*
X154503000Y-112538500D01*
G75*
G02*
X154740500Y-112301000I237500J0D01*
G01*
X155340500Y-112301000D01*
G75*
G02*
X155578000Y-112538500I0J-237500D01*
G01*
G37*
G04 #@! TD.AperFunction*
G04 #@! TA.AperFunction,SMDPad,CuDef*
G36*
G01*
X153853000Y-112538500D02*
X153853000Y-113013500D01*
G75*
G02*
X153615500Y-113251000I-237500J0D01*
G01*
X153015500Y-113251000D01*
G75*
G02*
X152778000Y-113013500I0J237500D01*
G01*
X152778000Y-112538500D01*
G75*
G02*
X153015500Y-112301000I237500J0D01*
G01*
X153615500Y-112301000D01*
G75*
G02*
X153853000Y-112538500I0J-237500D01*
G01*
G37*
G04 #@! TD.AperFunction*
G04 #@! TA.AperFunction,ComponentPad*
G36*
G01*
X196178000Y-98266000D02*
X194728000Y-98266000D01*
G75*
G02*
X194478000Y-98016000I0J250000D01*
G01*
X194478000Y-96816000D01*
G75*
G02*
X194728000Y-96566000I250000J0D01*
G01*
X196178000Y-96566000D01*
G75*
G02*
X196428000Y-96816000I0J-250000D01*
G01*
X196428000Y-98016000D01*
G75*
G02*
X196178000Y-98266000I-250000J0D01*
G01*
G37*
G04 #@! TD.AperFunction*
D19*
X195453000Y-94916000D03*
X195453000Y-92416000D03*
X195453000Y-89916000D03*
D20*
X127508000Y-112141000D03*
D21*
X130048000Y-112141000D03*
X132588000Y-112141000D03*
D11*
X197358000Y-70866000D03*
D12*
X199898000Y-70866000D03*
D11*
X197358000Y-114046000D03*
D12*
X199898000Y-114046000D03*
X197358000Y-111506000D03*
X199898000Y-111506000D03*
X197358000Y-108966000D03*
X199898000Y-108966000D03*
X197358000Y-106426000D03*
X199898000Y-106426000D03*
D11*
X154178000Y-119126000D03*
D12*
X156718000Y-119126000D03*
X159258000Y-119126000D03*
X161798000Y-119126000D03*
D22*
X126408000Y-118931000D03*
X122258000Y-118931000D03*
X126408000Y-116781000D03*
X122258000Y-116781000D03*
D23*
X135198000Y-101666000D03*
X135198000Y-103566000D03*
X137598000Y-102616000D03*
X168853000Y-99126000D03*
X168853000Y-101026000D03*
X171253000Y-100076000D03*
D24*
X180408000Y-90926000D03*
X180408000Y-91726000D03*
X180408000Y-92526000D03*
X180408000Y-93326000D03*
X180408000Y-94126000D03*
X180408000Y-94926000D03*
X180408000Y-95726000D03*
X180408000Y-96526000D03*
D25*
X181858000Y-97976000D03*
X182658000Y-97976000D03*
X183458000Y-97976000D03*
X184258000Y-97976000D03*
X185058000Y-97976000D03*
X185858000Y-97976000D03*
X186658000Y-97976000D03*
X187458000Y-97976000D03*
D24*
X188908000Y-96526000D03*
X188908000Y-95726000D03*
X188908000Y-94926000D03*
X188908000Y-94126000D03*
X188908000Y-93326000D03*
X188908000Y-92526000D03*
X188908000Y-91726000D03*
X188908000Y-90926000D03*
D25*
X187458000Y-89476000D03*
X186658000Y-89476000D03*
X185858000Y-89476000D03*
X185058000Y-89476000D03*
X184258000Y-89476000D03*
X183458000Y-89476000D03*
X182658000Y-89476000D03*
X181858000Y-89476000D03*
D26*
X118233000Y-82931000D03*
X118233000Y-84201000D03*
X118233000Y-85471000D03*
X118233000Y-86741000D03*
X118233000Y-88011000D03*
X118233000Y-89281000D03*
X118233000Y-90551000D03*
X118233000Y-91821000D03*
D27*
X120523000Y-94111000D03*
X121793000Y-94111000D03*
X123063000Y-94111000D03*
X124333000Y-94111000D03*
X125603000Y-94111000D03*
X126873000Y-94111000D03*
X128143000Y-94111000D03*
X129413000Y-94111000D03*
D26*
X131703000Y-91821000D03*
X131703000Y-90551000D03*
X131703000Y-89281000D03*
X131703000Y-88011000D03*
X131703000Y-86741000D03*
X131703000Y-85471000D03*
X131703000Y-84201000D03*
X131703000Y-82931000D03*
D27*
X129413000Y-80641000D03*
X128143000Y-80641000D03*
X126873000Y-80641000D03*
X125603000Y-80641000D03*
X124333000Y-80641000D03*
X123063000Y-80641000D03*
D28*
X121793000Y-80541000D03*
X120523000Y-80541000D03*
G04 #@! TA.AperFunction,SMDPad,CuDef*
G36*
G01*
X162583000Y-109876000D02*
X162283000Y-109876000D01*
G75*
G02*
X162133000Y-109726000I0J150000D01*
G01*
X162133000Y-108076000D01*
G75*
G02*
X162283000Y-107926000I150000J0D01*
G01*
X162583000Y-107926000D01*
G75*
G02*
X162733000Y-108076000I0J-150000D01*
G01*
X162733000Y-109726000D01*
G75*
G02*
X162583000Y-109876000I-150000J0D01*
G01*
G37*
G04 #@! TD.AperFunction*
G04 #@! TA.AperFunction,SMDPad,CuDef*
G36*
G01*
X163853000Y-109876000D02*
X163553000Y-109876000D01*
G75*
G02*
X163403000Y-109726000I0J150000D01*
G01*
X163403000Y-108076000D01*
G75*
G02*
X163553000Y-107926000I150000J0D01*
G01*
X163853000Y-107926000D01*
G75*
G02*
X164003000Y-108076000I0J-150000D01*
G01*
X164003000Y-109726000D01*
G75*
G02*
X163853000Y-109876000I-150000J0D01*
G01*
G37*
G04 #@! TD.AperFunction*
G04 #@! TA.AperFunction,SMDPad,CuDef*
G36*
G01*
X165123000Y-109876000D02*
X164823000Y-109876000D01*
G75*
G02*
X164673000Y-109726000I0J150000D01*
G01*
X164673000Y-108076000D01*
G75*
G02*
X164823000Y-107926000I150000J0D01*
G01*
X165123000Y-107926000D01*
G75*
G02*
X165273000Y-108076000I0J-150000D01*
G01*
X165273000Y-109726000D01*
G75*
G02*
X165123000Y-109876000I-150000J0D01*
G01*
G37*
G04 #@! TD.AperFunction*
G04 #@! TA.AperFunction,SMDPad,CuDef*
G36*
G01*
X166393000Y-109876000D02*
X166093000Y-109876000D01*
G75*
G02*
X165943000Y-109726000I0J150000D01*
G01*
X165943000Y-108076000D01*
G75*
G02*
X166093000Y-107926000I150000J0D01*
G01*
X166393000Y-107926000D01*
G75*
G02*
X166543000Y-108076000I0J-150000D01*
G01*
X166543000Y-109726000D01*
G75*
G02*
X166393000Y-109876000I-150000J0D01*
G01*
G37*
G04 #@! TD.AperFunction*
G04 #@! TA.AperFunction,SMDPad,CuDef*
G36*
G01*
X167663000Y-109876000D02*
X167363000Y-109876000D01*
G75*
G02*
X167213000Y-109726000I0J150000D01*
G01*
X167213000Y-108076000D01*
G75*
G02*
X167363000Y-107926000I150000J0D01*
G01*
X167663000Y-107926000D01*
G75*
G02*
X167813000Y-108076000I0J-150000D01*
G01*
X167813000Y-109726000D01*
G75*
G02*
X167663000Y-109876000I-150000J0D01*
G01*
G37*
G04 #@! TD.AperFunction*
G04 #@! TA.AperFunction,SMDPad,CuDef*
G36*
G01*
X168933000Y-109876000D02*
X168633000Y-109876000D01*
G75*
G02*
X168483000Y-109726000I0J150000D01*
G01*
X168483000Y-108076000D01*
G75*
G02*
X168633000Y-107926000I150000J0D01*
G01*
X168933000Y-107926000D01*
G75*
G02*
X169083000Y-108076000I0J-150000D01*
G01*
X169083000Y-109726000D01*
G75*
G02*
X168933000Y-109876000I-150000J0D01*
G01*
G37*
G04 #@! TD.AperFunction*
G04 #@! TA.AperFunction,SMDPad,CuDef*
G36*
G01*
X170203000Y-109876000D02*
X169903000Y-109876000D01*
G75*
G02*
X169753000Y-109726000I0J150000D01*
G01*
X169753000Y-108076000D01*
G75*
G02*
X169903000Y-107926000I150000J0D01*
G01*
X170203000Y-107926000D01*
G75*
G02*
X170353000Y-108076000I0J-150000D01*
G01*
X170353000Y-109726000D01*
G75*
G02*
X170203000Y-109876000I-150000J0D01*
G01*
G37*
G04 #@! TD.AperFunction*
G04 #@! TA.AperFunction,SMDPad,CuDef*
G36*
G01*
X171473000Y-109876000D02*
X171173000Y-109876000D01*
G75*
G02*
X171023000Y-109726000I0J150000D01*
G01*
X171023000Y-108076000D01*
G75*
G02*
X171173000Y-107926000I150000J0D01*
G01*
X171473000Y-107926000D01*
G75*
G02*
X171623000Y-108076000I0J-150000D01*
G01*
X171623000Y-109726000D01*
G75*
G02*
X171473000Y-109876000I-150000J0D01*
G01*
G37*
G04 #@! TD.AperFunction*
G04 #@! TA.AperFunction,SMDPad,CuDef*
G36*
G01*
X171473000Y-104926000D02*
X171173000Y-104926000D01*
G75*
G02*
X171023000Y-104776000I0J150000D01*
G01*
X171023000Y-103126000D01*
G75*
G02*
X171173000Y-102976000I150000J0D01*
G01*
X171473000Y-102976000D01*
G75*
G02*
X171623000Y-103126000I0J-150000D01*
G01*
X171623000Y-104776000D01*
G75*
G02*
X171473000Y-104926000I-150000J0D01*
G01*
G37*
G04 #@! TD.AperFunction*
G04 #@! TA.AperFunction,SMDPad,CuDef*
G36*
G01*
X170203000Y-104926000D02*
X169903000Y-104926000D01*
G75*
G02*
X169753000Y-104776000I0J150000D01*
G01*
X169753000Y-103126000D01*
G75*
G02*
X169903000Y-102976000I150000J0D01*
G01*
X170203000Y-102976000D01*
G75*
G02*
X170353000Y-103126000I0J-150000D01*
G01*
X170353000Y-104776000D01*
G75*
G02*
X170203000Y-104926000I-150000J0D01*
G01*
G37*
G04 #@! TD.AperFunction*
G04 #@! TA.AperFunction,SMDPad,CuDef*
G36*
G01*
X168933000Y-104926000D02*
X168633000Y-104926000D01*
G75*
G02*
X168483000Y-104776000I0J150000D01*
G01*
X168483000Y-103126000D01*
G75*
G02*
X168633000Y-102976000I150000J0D01*
G01*
X168933000Y-102976000D01*
G75*
G02*
X169083000Y-103126000I0J-150000D01*
G01*
X169083000Y-104776000D01*
G75*
G02*
X168933000Y-104926000I-150000J0D01*
G01*
G37*
G04 #@! TD.AperFunction*
G04 #@! TA.AperFunction,SMDPad,CuDef*
G36*
G01*
X167663000Y-104926000D02*
X167363000Y-104926000D01*
G75*
G02*
X167213000Y-104776000I0J150000D01*
G01*
X167213000Y-103126000D01*
G75*
G02*
X167363000Y-102976000I150000J0D01*
G01*
X167663000Y-102976000D01*
G75*
G02*
X167813000Y-103126000I0J-150000D01*
G01*
X167813000Y-104776000D01*
G75*
G02*
X167663000Y-104926000I-150000J0D01*
G01*
G37*
G04 #@! TD.AperFunction*
G04 #@! TA.AperFunction,SMDPad,CuDef*
G36*
G01*
X166393000Y-104926000D02*
X166093000Y-104926000D01*
G75*
G02*
X165943000Y-104776000I0J150000D01*
G01*
X165943000Y-103126000D01*
G75*
G02*
X166093000Y-102976000I150000J0D01*
G01*
X166393000Y-102976000D01*
G75*
G02*
X166543000Y-103126000I0J-150000D01*
G01*
X166543000Y-104776000D01*
G75*
G02*
X166393000Y-104926000I-150000J0D01*
G01*
G37*
G04 #@! TD.AperFunction*
G04 #@! TA.AperFunction,SMDPad,CuDef*
G36*
G01*
X165123000Y-104926000D02*
X164823000Y-104926000D01*
G75*
G02*
X164673000Y-104776000I0J150000D01*
G01*
X164673000Y-103126000D01*
G75*
G02*
X164823000Y-102976000I150000J0D01*
G01*
X165123000Y-102976000D01*
G75*
G02*
X165273000Y-103126000I0J-150000D01*
G01*
X165273000Y-104776000D01*
G75*
G02*
X165123000Y-104926000I-150000J0D01*
G01*
G37*
G04 #@! TD.AperFunction*
G04 #@! TA.AperFunction,SMDPad,CuDef*
G36*
G01*
X163853000Y-104926000D02*
X163553000Y-104926000D01*
G75*
G02*
X163403000Y-104776000I0J150000D01*
G01*
X163403000Y-103126000D01*
G75*
G02*
X163553000Y-102976000I150000J0D01*
G01*
X163853000Y-102976000D01*
G75*
G02*
X164003000Y-103126000I0J-150000D01*
G01*
X164003000Y-104776000D01*
G75*
G02*
X163853000Y-104926000I-150000J0D01*
G01*
G37*
G04 #@! TD.AperFunction*
G04 #@! TA.AperFunction,SMDPad,CuDef*
G36*
G01*
X162583000Y-104926000D02*
X162283000Y-104926000D01*
G75*
G02*
X162133000Y-104776000I0J150000D01*
G01*
X162133000Y-103126000D01*
G75*
G02*
X162283000Y-102976000I150000J0D01*
G01*
X162583000Y-102976000D01*
G75*
G02*
X162733000Y-103126000I0J-150000D01*
G01*
X162733000Y-104776000D01*
G75*
G02*
X162583000Y-104926000I-150000J0D01*
G01*
G37*
G04 #@! TD.AperFunction*
D11*
X177038000Y-108966000D03*
D12*
X177038000Y-111506000D03*
X177038000Y-114046000D03*
D29*
X188468000Y-85471000D03*
X180848000Y-84201000D03*
X188468000Y-84201000D03*
X180848000Y-85471000D03*
D30*
X135323000Y-99611000D03*
X135323000Y-95461000D03*
X137473000Y-99611000D03*
X137473000Y-95461000D03*
X160723000Y-99611000D03*
X160723000Y-95461000D03*
X162873000Y-99611000D03*
X162873000Y-95461000D03*
D31*
X118618000Y-111506000D03*
D32*
X118618000Y-109506000D03*
X118618000Y-107506000D03*
D33*
X118618000Y-113606000D03*
X118618000Y-105406000D03*
G04 #@! TA.AperFunction,SMDPad,CuDef*
G36*
G01*
X163198000Y-92218500D02*
X163198000Y-92693500D01*
G75*
G02*
X162960500Y-92931000I-237500J0D01*
G01*
X162460500Y-92931000D01*
G75*
G02*
X162223000Y-92693500I0J237500D01*
G01*
X162223000Y-92218500D01*
G75*
G02*
X162460500Y-91981000I237500J0D01*
G01*
X162960500Y-91981000D01*
G75*
G02*
X163198000Y-92218500I0J-237500D01*
G01*
G37*
G04 #@! TD.AperFunction*
G04 #@! TA.AperFunction,SMDPad,CuDef*
G36*
G01*
X161373000Y-92218500D02*
X161373000Y-92693500D01*
G75*
G02*
X161135500Y-92931000I-237500J0D01*
G01*
X160635500Y-92931000D01*
G75*
G02*
X160398000Y-92693500I0J237500D01*
G01*
X160398000Y-92218500D01*
G75*
G02*
X160635500Y-91981000I237500J0D01*
G01*
X161135500Y-91981000D01*
G75*
G02*
X161373000Y-92218500I0J-237500D01*
G01*
G37*
G04 #@! TD.AperFunction*
G04 #@! TA.AperFunction,SMDPad,CuDef*
G36*
G01*
X159782500Y-104391000D02*
X160257500Y-104391000D01*
G75*
G02*
X160495000Y-104628500I0J-237500D01*
G01*
X160495000Y-105128500D01*
G75*
G02*
X160257500Y-105366000I-237500J0D01*
G01*
X159782500Y-105366000D01*
G75*
G02*
X159545000Y-105128500I0J237500D01*
G01*
X159545000Y-104628500D01*
G75*
G02*
X159782500Y-104391000I237500J0D01*
G01*
G37*
G04 #@! TD.AperFunction*
G04 #@! TA.AperFunction,SMDPad,CuDef*
G36*
G01*
X159782500Y-106216000D02*
X160257500Y-106216000D01*
G75*
G02*
X160495000Y-106453500I0J-237500D01*
G01*
X160495000Y-106953500D01*
G75*
G02*
X160257500Y-107191000I-237500J0D01*
G01*
X159782500Y-107191000D01*
G75*
G02*
X159545000Y-106953500I0J237500D01*
G01*
X159545000Y-106453500D01*
G75*
G02*
X159782500Y-106216000I237500J0D01*
G01*
G37*
G04 #@! TD.AperFunction*
G04 #@! TA.AperFunction,SMDPad,CuDef*
G36*
G01*
X159782500Y-108201000D02*
X160257500Y-108201000D01*
G75*
G02*
X160495000Y-108438500I0J-237500D01*
G01*
X160495000Y-108938500D01*
G75*
G02*
X160257500Y-109176000I-237500J0D01*
G01*
X159782500Y-109176000D01*
G75*
G02*
X159545000Y-108938500I0J237500D01*
G01*
X159545000Y-108438500D01*
G75*
G02*
X159782500Y-108201000I237500J0D01*
G01*
G37*
G04 #@! TD.AperFunction*
G04 #@! TA.AperFunction,SMDPad,CuDef*
G36*
G01*
X159782500Y-110026000D02*
X160257500Y-110026000D01*
G75*
G02*
X160495000Y-110263500I0J-237500D01*
G01*
X160495000Y-110763500D01*
G75*
G02*
X160257500Y-111001000I-237500J0D01*
G01*
X159782500Y-111001000D01*
G75*
G02*
X159545000Y-110763500I0J237500D01*
G01*
X159545000Y-110263500D01*
G75*
G02*
X159782500Y-110026000I237500J0D01*
G01*
G37*
G04 #@! TD.AperFunction*
G04 #@! TA.AperFunction,SMDPad,CuDef*
G36*
G01*
X134998000Y-92693500D02*
X134998000Y-92218500D01*
G75*
G02*
X135235500Y-91981000I237500J0D01*
G01*
X135735500Y-91981000D01*
G75*
G02*
X135973000Y-92218500I0J-237500D01*
G01*
X135973000Y-92693500D01*
G75*
G02*
X135735500Y-92931000I-237500J0D01*
G01*
X135235500Y-92931000D01*
G75*
G02*
X134998000Y-92693500I0J237500D01*
G01*
G37*
G04 #@! TD.AperFunction*
G04 #@! TA.AperFunction,SMDPad,CuDef*
G36*
G01*
X136823000Y-92693500D02*
X136823000Y-92218500D01*
G75*
G02*
X137060500Y-91981000I237500J0D01*
G01*
X137560500Y-91981000D01*
G75*
G02*
X137798000Y-92218500I0J-237500D01*
G01*
X137798000Y-92693500D01*
G75*
G02*
X137560500Y-92931000I-237500J0D01*
G01*
X137060500Y-92931000D01*
G75*
G02*
X136823000Y-92693500I0J237500D01*
G01*
G37*
G04 #@! TD.AperFunction*
G04 #@! TA.AperFunction,SMDPad,CuDef*
G36*
G01*
X164843000Y-100948500D02*
X164843000Y-100473500D01*
G75*
G02*
X165080500Y-100236000I237500J0D01*
G01*
X165580500Y-100236000D01*
G75*
G02*
X165818000Y-100473500I0J-237500D01*
G01*
X165818000Y-100948500D01*
G75*
G02*
X165580500Y-101186000I-237500J0D01*
G01*
X165080500Y-101186000D01*
G75*
G02*
X164843000Y-100948500I0J237500D01*
G01*
G37*
G04 #@! TD.AperFunction*
G04 #@! TA.AperFunction,SMDPad,CuDef*
G36*
G01*
X166668000Y-100948500D02*
X166668000Y-100473500D01*
G75*
G02*
X166905500Y-100236000I237500J0D01*
G01*
X167405500Y-100236000D01*
G75*
G02*
X167643000Y-100473500I0J-237500D01*
G01*
X167643000Y-100948500D01*
G75*
G02*
X167405500Y-101186000I-237500J0D01*
G01*
X166905500Y-101186000D01*
G75*
G02*
X166668000Y-100948500I0J237500D01*
G01*
G37*
G04 #@! TD.AperFunction*
G04 #@! TA.AperFunction,SMDPad,CuDef*
G36*
G01*
X167643000Y-98568500D02*
X167643000Y-99043500D01*
G75*
G02*
X167405500Y-99281000I-237500J0D01*
G01*
X166905500Y-99281000D01*
G75*
G02*
X166668000Y-99043500I0J237500D01*
G01*
X166668000Y-98568500D01*
G75*
G02*
X166905500Y-98331000I237500J0D01*
G01*
X167405500Y-98331000D01*
G75*
G02*
X167643000Y-98568500I0J-237500D01*
G01*
G37*
G04 #@! TD.AperFunction*
G04 #@! TA.AperFunction,SMDPad,CuDef*
G36*
G01*
X165818000Y-98568500D02*
X165818000Y-99043500D01*
G75*
G02*
X165580500Y-99281000I-237500J0D01*
G01*
X165080500Y-99281000D01*
G75*
G02*
X164843000Y-99043500I0J237500D01*
G01*
X164843000Y-98568500D01*
G75*
G02*
X165080500Y-98331000I237500J0D01*
G01*
X165580500Y-98331000D01*
G75*
G02*
X165818000Y-98568500I0J-237500D01*
G01*
G37*
G04 #@! TD.AperFunction*
D34*
X181323000Y-104416000D03*
X182273000Y-104416000D03*
X189973000Y-104416000D03*
X188873000Y-104416000D03*
X187773000Y-104416000D03*
X186673000Y-104416000D03*
X185573000Y-104416000D03*
X184473000Y-104416000D03*
X183373000Y-104416000D03*
D35*
X191523000Y-104416000D03*
X180373000Y-108716000D03*
D36*
X180373000Y-114916000D03*
D37*
X180373000Y-119066000D03*
D38*
X193873000Y-119516000D03*
G04 #@! TA.AperFunction,ComponentPad*
G36*
G01*
X110273000Y-71286000D02*
X111723000Y-71286000D01*
G75*
G02*
X111973000Y-71536000I0J-250000D01*
G01*
X111973000Y-72736000D01*
G75*
G02*
X111723000Y-72986000I-250000J0D01*
G01*
X110273000Y-72986000D01*
G75*
G02*
X110023000Y-72736000I0J250000D01*
G01*
X110023000Y-71536000D01*
G75*
G02*
X110273000Y-71286000I250000J0D01*
G01*
G37*
G04 #@! TD.AperFunction*
D19*
X110998000Y-74636000D03*
X110998000Y-77136000D03*
X110998000Y-79636000D03*
X110998000Y-105076000D03*
X110998000Y-102576000D03*
G04 #@! TA.AperFunction,ComponentPad*
G36*
G01*
X110273000Y-99226000D02*
X111723000Y-99226000D01*
G75*
G02*
X111973000Y-99476000I0J-250000D01*
G01*
X111973000Y-100676000D01*
G75*
G02*
X111723000Y-100926000I-250000J0D01*
G01*
X110273000Y-100926000D01*
G75*
G02*
X110023000Y-100676000I0J250000D01*
G01*
X110023000Y-99476000D01*
G75*
G02*
X110273000Y-99226000I250000J0D01*
G01*
G37*
G04 #@! TD.AperFunction*
D11*
X175768000Y-102616000D03*
D12*
X175768000Y-100076000D03*
X175768000Y-97536000D03*
X175768000Y-94996000D03*
X175768000Y-92456000D03*
X175768000Y-89916000D03*
X175768000Y-87376000D03*
X175768000Y-84836000D03*
D11*
X130048000Y-98806000D03*
D12*
X127508000Y-98806000D03*
X124968000Y-98806000D03*
X122428000Y-98806000D03*
X119888000Y-98806000D03*
D11*
X154178000Y-76581000D03*
D12*
X151638000Y-76581000D03*
X149098000Y-76581000D03*
X146558000Y-76581000D03*
X144018000Y-76581000D03*
D11*
X188468000Y-79756000D03*
D12*
X185928000Y-79756000D03*
X183388000Y-79756000D03*
X180848000Y-79756000D03*
X178308000Y-79756000D03*
X175768000Y-79756000D03*
G04 #@! TA.AperFunction,ComponentPad*
G36*
G01*
X110273000Y-85256000D02*
X111723000Y-85256000D01*
G75*
G02*
X111973000Y-85506000I0J-250000D01*
G01*
X111973000Y-86706000D01*
G75*
G02*
X111723000Y-86956000I-250000J0D01*
G01*
X110273000Y-86956000D01*
G75*
G02*
X110023000Y-86706000I0J250000D01*
G01*
X110023000Y-85506000D01*
G75*
G02*
X110273000Y-85256000I250000J0D01*
G01*
G37*
G04 #@! TD.AperFunction*
D19*
X110998000Y-88606000D03*
X110998000Y-91106000D03*
X110998000Y-93606000D03*
G04 #@! TA.AperFunction,ComponentPad*
G36*
G01*
X110248000Y-111926000D02*
X111748000Y-111926000D01*
G75*
G02*
X111998000Y-112176000I0J-250000D01*
G01*
X111998000Y-113376000D01*
G75*
G02*
X111748000Y-113626000I-250000J0D01*
G01*
X110248000Y-113626000D01*
G75*
G02*
X109998000Y-113376000I0J250000D01*
G01*
X109998000Y-112176000D01*
G75*
G02*
X110248000Y-111926000I250000J0D01*
G01*
G37*
G04 #@! TD.AperFunction*
D39*
X110998000Y-115276000D03*
G04 #@! TA.AperFunction,SMDPad,CuDef*
G36*
G01*
X122030500Y-77346000D02*
X121555500Y-77346000D01*
G75*
G02*
X121318000Y-77108500I0J237500D01*
G01*
X121318000Y-76533500D01*
G75*
G02*
X121555500Y-76296000I237500J0D01*
G01*
X122030500Y-76296000D01*
G75*
G02*
X122268000Y-76533500I0J-237500D01*
G01*
X122268000Y-77108500D01*
G75*
G02*
X122030500Y-77346000I-237500J0D01*
G01*
G37*
G04 #@! TD.AperFunction*
G04 #@! TA.AperFunction,SMDPad,CuDef*
G36*
G01*
X122030500Y-75596000D02*
X121555500Y-75596000D01*
G75*
G02*
X121318000Y-75358500I0J237500D01*
G01*
X121318000Y-74783500D01*
G75*
G02*
X121555500Y-74546000I237500J0D01*
G01*
X122030500Y-74546000D01*
G75*
G02*
X122268000Y-74783500I0J-237500D01*
G01*
X122268000Y-75358500D01*
G75*
G02*
X122030500Y-75596000I-237500J0D01*
G01*
G37*
G04 #@! TD.AperFunction*
G04 #@! TA.AperFunction,SMDPad,CuDef*
G36*
G01*
X125205500Y-77346000D02*
X124730500Y-77346000D01*
G75*
G02*
X124493000Y-77108500I0J237500D01*
G01*
X124493000Y-76533500D01*
G75*
G02*
X124730500Y-76296000I237500J0D01*
G01*
X125205500Y-76296000D01*
G75*
G02*
X125443000Y-76533500I0J-237500D01*
G01*
X125443000Y-77108500D01*
G75*
G02*
X125205500Y-77346000I-237500J0D01*
G01*
G37*
G04 #@! TD.AperFunction*
G04 #@! TA.AperFunction,SMDPad,CuDef*
G36*
G01*
X125205500Y-75596000D02*
X124730500Y-75596000D01*
G75*
G02*
X124493000Y-75358500I0J237500D01*
G01*
X124493000Y-74783500D01*
G75*
G02*
X124730500Y-74546000I237500J0D01*
G01*
X125205500Y-74546000D01*
G75*
G02*
X125443000Y-74783500I0J-237500D01*
G01*
X125443000Y-75358500D01*
G75*
G02*
X125205500Y-75596000I-237500J0D01*
G01*
G37*
G04 #@! TD.AperFunction*
G04 #@! TA.AperFunction,SMDPad,CuDef*
G36*
G01*
X128380500Y-77346000D02*
X127905500Y-77346000D01*
G75*
G02*
X127668000Y-77108500I0J237500D01*
G01*
X127668000Y-76533500D01*
G75*
G02*
X127905500Y-76296000I237500J0D01*
G01*
X128380500Y-76296000D01*
G75*
G02*
X128618000Y-76533500I0J-237500D01*
G01*
X128618000Y-77108500D01*
G75*
G02*
X128380500Y-77346000I-237500J0D01*
G01*
G37*
G04 #@! TD.AperFunction*
G04 #@! TA.AperFunction,SMDPad,CuDef*
G36*
G01*
X128380500Y-75596000D02*
X127905500Y-75596000D01*
G75*
G02*
X127668000Y-75358500I0J237500D01*
G01*
X127668000Y-74783500D01*
G75*
G02*
X127905500Y-74546000I237500J0D01*
G01*
X128380500Y-74546000D01*
G75*
G02*
X128618000Y-74783500I0J-237500D01*
G01*
X128618000Y-75358500D01*
G75*
G02*
X128380500Y-75596000I-237500J0D01*
G01*
G37*
G04 #@! TD.AperFunction*
G04 #@! TA.AperFunction,SMDPad,CuDef*
G36*
G01*
X131555500Y-77346000D02*
X131080500Y-77346000D01*
G75*
G02*
X130843000Y-77108500I0J237500D01*
G01*
X130843000Y-76533500D01*
G75*
G02*
X131080500Y-76296000I237500J0D01*
G01*
X131555500Y-76296000D01*
G75*
G02*
X131793000Y-76533500I0J-237500D01*
G01*
X131793000Y-77108500D01*
G75*
G02*
X131555500Y-77346000I-237500J0D01*
G01*
G37*
G04 #@! TD.AperFunction*
G04 #@! TA.AperFunction,SMDPad,CuDef*
G36*
G01*
X131555500Y-75596000D02*
X131080500Y-75596000D01*
G75*
G02*
X130843000Y-75358500I0J237500D01*
G01*
X130843000Y-74783500D01*
G75*
G02*
X131080500Y-74546000I237500J0D01*
G01*
X131555500Y-74546000D01*
G75*
G02*
X131793000Y-74783500I0J-237500D01*
G01*
X131793000Y-75358500D01*
G75*
G02*
X131555500Y-75596000I-237500J0D01*
G01*
G37*
G04 #@! TD.AperFunction*
G04 #@! TA.AperFunction,SMDPad,CuDef*
G36*
G01*
X118855500Y-77346000D02*
X118380500Y-77346000D01*
G75*
G02*
X118143000Y-77108500I0J237500D01*
G01*
X118143000Y-76533500D01*
G75*
G02*
X118380500Y-76296000I237500J0D01*
G01*
X118855500Y-76296000D01*
G75*
G02*
X119093000Y-76533500I0J-237500D01*
G01*
X119093000Y-77108500D01*
G75*
G02*
X118855500Y-77346000I-237500J0D01*
G01*
G37*
G04 #@! TD.AperFunction*
G04 #@! TA.AperFunction,SMDPad,CuDef*
G36*
G01*
X118855500Y-75596000D02*
X118380500Y-75596000D01*
G75*
G02*
X118143000Y-75358500I0J237500D01*
G01*
X118143000Y-74783500D01*
G75*
G02*
X118380500Y-74546000I237500J0D01*
G01*
X118855500Y-74546000D01*
G75*
G02*
X119093000Y-74783500I0J-237500D01*
G01*
X119093000Y-75358500D01*
G75*
G02*
X118855500Y-75596000I-237500J0D01*
G01*
G37*
G04 #@! TD.AperFunction*
G04 #@! TA.AperFunction,SMDPad,CuDef*
G36*
G01*
X191405500Y-89786000D02*
X191880500Y-89786000D01*
G75*
G02*
X192118000Y-90023500I0J-237500D01*
G01*
X192118000Y-90598500D01*
G75*
G02*
X191880500Y-90836000I-237500J0D01*
G01*
X191405500Y-90836000D01*
G75*
G02*
X191168000Y-90598500I0J237500D01*
G01*
X191168000Y-90023500D01*
G75*
G02*
X191405500Y-89786000I237500J0D01*
G01*
G37*
G04 #@! TD.AperFunction*
G04 #@! TA.AperFunction,SMDPad,CuDef*
G36*
G01*
X191405500Y-91536000D02*
X191880500Y-91536000D01*
G75*
G02*
X192118000Y-91773500I0J-237500D01*
G01*
X192118000Y-92348500D01*
G75*
G02*
X191880500Y-92586000I-237500J0D01*
G01*
X191405500Y-92586000D01*
G75*
G02*
X191168000Y-92348500I0J237500D01*
G01*
X191168000Y-91773500D01*
G75*
G02*
X191405500Y-91536000I237500J0D01*
G01*
G37*
G04 #@! TD.AperFunction*
G04 #@! TA.AperFunction,SMDPad,CuDef*
G36*
G01*
X191405500Y-94866000D02*
X191880500Y-94866000D01*
G75*
G02*
X192118000Y-95103500I0J-237500D01*
G01*
X192118000Y-95678500D01*
G75*
G02*
X191880500Y-95916000I-237500J0D01*
G01*
X191405500Y-95916000D01*
G75*
G02*
X191168000Y-95678500I0J237500D01*
G01*
X191168000Y-95103500D01*
G75*
G02*
X191405500Y-94866000I237500J0D01*
G01*
G37*
G04 #@! TD.AperFunction*
G04 #@! TA.AperFunction,SMDPad,CuDef*
G36*
G01*
X191405500Y-96616000D02*
X191880500Y-96616000D01*
G75*
G02*
X192118000Y-96853500I0J-237500D01*
G01*
X192118000Y-97428500D01*
G75*
G02*
X191880500Y-97666000I-237500J0D01*
G01*
X191405500Y-97666000D01*
G75*
G02*
X191168000Y-97428500I0J237500D01*
G01*
X191168000Y-96853500D01*
G75*
G02*
X191405500Y-96616000I237500J0D01*
G01*
G37*
G04 #@! TD.AperFunction*
G04 #@! TA.AperFunction,SMDPad,CuDef*
G36*
G01*
X178070500Y-91691000D02*
X178545500Y-91691000D01*
G75*
G02*
X178783000Y-91928500I0J-237500D01*
G01*
X178783000Y-92528500D01*
G75*
G02*
X178545500Y-92766000I-237500J0D01*
G01*
X178070500Y-92766000D01*
G75*
G02*
X177833000Y-92528500I0J237500D01*
G01*
X177833000Y-91928500D01*
G75*
G02*
X178070500Y-91691000I237500J0D01*
G01*
G37*
G04 #@! TD.AperFunction*
G04 #@! TA.AperFunction,SMDPad,CuDef*
G36*
G01*
X178070500Y-93416000D02*
X178545500Y-93416000D01*
G75*
G02*
X178783000Y-93653500I0J-237500D01*
G01*
X178783000Y-94253500D01*
G75*
G02*
X178545500Y-94491000I-237500J0D01*
G01*
X178070500Y-94491000D01*
G75*
G02*
X177833000Y-94253500I0J237500D01*
G01*
X177833000Y-93653500D01*
G75*
G02*
X178070500Y-93416000I237500J0D01*
G01*
G37*
G04 #@! TD.AperFunction*
G04 #@! TA.AperFunction,SMDPad,CuDef*
G36*
G01*
X187010500Y-102061000D02*
X187010500Y-102536000D01*
G75*
G02*
X186773000Y-102773500I-237500J0D01*
G01*
X186173000Y-102773500D01*
G75*
G02*
X185935500Y-102536000I0J237500D01*
G01*
X185935500Y-102061000D01*
G75*
G02*
X186173000Y-101823500I237500J0D01*
G01*
X186773000Y-101823500D01*
G75*
G02*
X187010500Y-102061000I0J-237500D01*
G01*
G37*
G04 #@! TD.AperFunction*
G04 #@! TA.AperFunction,SMDPad,CuDef*
G36*
G01*
X185285500Y-102061000D02*
X185285500Y-102536000D01*
G75*
G02*
X185048000Y-102773500I-237500J0D01*
G01*
X184448000Y-102773500D01*
G75*
G02*
X184210500Y-102536000I0J237500D01*
G01*
X184210500Y-102061000D01*
G75*
G02*
X184448000Y-101823500I237500J0D01*
G01*
X185048000Y-101823500D01*
G75*
G02*
X185285500Y-102061000I0J-237500D01*
G01*
G37*
G04 #@! TD.AperFunction*
G04 #@! TA.AperFunction,SMDPad,CuDef*
G36*
G01*
X188865500Y-87246000D02*
X189340500Y-87246000D01*
G75*
G02*
X189578000Y-87483500I0J-237500D01*
G01*
X189578000Y-88083500D01*
G75*
G02*
X189340500Y-88321000I-237500J0D01*
G01*
X188865500Y-88321000D01*
G75*
G02*
X188628000Y-88083500I0J237500D01*
G01*
X188628000Y-87483500D01*
G75*
G02*
X188865500Y-87246000I237500J0D01*
G01*
G37*
G04 #@! TD.AperFunction*
G04 #@! TA.AperFunction,SMDPad,CuDef*
G36*
G01*
X188865500Y-88971000D02*
X189340500Y-88971000D01*
G75*
G02*
X189578000Y-89208500I0J-237500D01*
G01*
X189578000Y-89808500D01*
G75*
G02*
X189340500Y-90046000I-237500J0D01*
G01*
X188865500Y-90046000D01*
G75*
G02*
X188628000Y-89808500I0J237500D01*
G01*
X188628000Y-89208500D01*
G75*
G02*
X188865500Y-88971000I237500J0D01*
G01*
G37*
G04 #@! TD.AperFunction*
G04 #@! TA.AperFunction,SMDPad,CuDef*
G36*
G01*
X115840500Y-85658500D02*
X116315500Y-85658500D01*
G75*
G02*
X116553000Y-85896000I0J-237500D01*
G01*
X116553000Y-86496000D01*
G75*
G02*
X116315500Y-86733500I-237500J0D01*
G01*
X115840500Y-86733500D01*
G75*
G02*
X115603000Y-86496000I0J237500D01*
G01*
X115603000Y-85896000D01*
G75*
G02*
X115840500Y-85658500I237500J0D01*
G01*
G37*
G04 #@! TD.AperFunction*
G04 #@! TA.AperFunction,SMDPad,CuDef*
G36*
G01*
X115840500Y-87383500D02*
X116315500Y-87383500D01*
G75*
G02*
X116553000Y-87621000I0J-237500D01*
G01*
X116553000Y-88221000D01*
G75*
G02*
X116315500Y-88458500I-237500J0D01*
G01*
X115840500Y-88458500D01*
G75*
G02*
X115603000Y-88221000I0J237500D01*
G01*
X115603000Y-87621000D01*
G75*
G02*
X115840500Y-87383500I237500J0D01*
G01*
G37*
G04 #@! TD.AperFunction*
G04 #@! TA.AperFunction,SMDPad,CuDef*
G36*
G01*
X138700500Y-92326000D02*
X139175500Y-92326000D01*
G75*
G02*
X139413000Y-92563500I0J-237500D01*
G01*
X139413000Y-93163500D01*
G75*
G02*
X139175500Y-93401000I-237500J0D01*
G01*
X138700500Y-93401000D01*
G75*
G02*
X138463000Y-93163500I0J237500D01*
G01*
X138463000Y-92563500D01*
G75*
G02*
X138700500Y-92326000I237500J0D01*
G01*
G37*
G04 #@! TD.AperFunction*
G04 #@! TA.AperFunction,SMDPad,CuDef*
G36*
G01*
X138700500Y-94051000D02*
X139175500Y-94051000D01*
G75*
G02*
X139413000Y-94288500I0J-237500D01*
G01*
X139413000Y-94888500D01*
G75*
G02*
X139175500Y-95126000I-237500J0D01*
G01*
X138700500Y-95126000D01*
G75*
G02*
X138463000Y-94888500I0J237500D01*
G01*
X138463000Y-94288500D01*
G75*
G02*
X138700500Y-94051000I237500J0D01*
G01*
G37*
G04 #@! TD.AperFunction*
G04 #@! TA.AperFunction,SMDPad,CuDef*
G36*
G01*
X134095500Y-95126000D02*
X133620500Y-95126000D01*
G75*
G02*
X133383000Y-94888500I0J237500D01*
G01*
X133383000Y-94288500D01*
G75*
G02*
X133620500Y-94051000I237500J0D01*
G01*
X134095500Y-94051000D01*
G75*
G02*
X134333000Y-94288500I0J-237500D01*
G01*
X134333000Y-94888500D01*
G75*
G02*
X134095500Y-95126000I-237500J0D01*
G01*
G37*
G04 #@! TD.AperFunction*
G04 #@! TA.AperFunction,SMDPad,CuDef*
G36*
G01*
X134095500Y-93401000D02*
X133620500Y-93401000D01*
G75*
G02*
X133383000Y-93163500I0J237500D01*
G01*
X133383000Y-92563500D01*
G75*
G02*
X133620500Y-92326000I237500J0D01*
G01*
X134095500Y-92326000D01*
G75*
G02*
X134333000Y-92563500I0J-237500D01*
G01*
X134333000Y-93163500D01*
G75*
G02*
X134095500Y-93401000I-237500J0D01*
G01*
G37*
G04 #@! TD.AperFunction*
G04 #@! TA.AperFunction,SMDPad,CuDef*
G36*
G01*
X134998000Y-93963500D02*
X134998000Y-93488500D01*
G75*
G02*
X135235500Y-93251000I237500J0D01*
G01*
X135835500Y-93251000D01*
G75*
G02*
X136073000Y-93488500I0J-237500D01*
G01*
X136073000Y-93963500D01*
G75*
G02*
X135835500Y-94201000I-237500J0D01*
G01*
X135235500Y-94201000D01*
G75*
G02*
X134998000Y-93963500I0J237500D01*
G01*
G37*
G04 #@! TD.AperFunction*
G04 #@! TA.AperFunction,SMDPad,CuDef*
G36*
G01*
X136723000Y-93963500D02*
X136723000Y-93488500D01*
G75*
G02*
X136960500Y-93251000I237500J0D01*
G01*
X137560500Y-93251000D01*
G75*
G02*
X137798000Y-93488500I0J-237500D01*
G01*
X137798000Y-93963500D01*
G75*
G02*
X137560500Y-94201000I-237500J0D01*
G01*
X136960500Y-94201000D01*
G75*
G02*
X136723000Y-93963500I0J237500D01*
G01*
G37*
G04 #@! TD.AperFunction*
G04 #@! TA.AperFunction,SMDPad,CuDef*
G36*
G01*
X160398000Y-93963500D02*
X160398000Y-93488500D01*
G75*
G02*
X160635500Y-93251000I237500J0D01*
G01*
X161235500Y-93251000D01*
G75*
G02*
X161473000Y-93488500I0J-237500D01*
G01*
X161473000Y-93963500D01*
G75*
G02*
X161235500Y-94201000I-237500J0D01*
G01*
X160635500Y-94201000D01*
G75*
G02*
X160398000Y-93963500I0J237500D01*
G01*
G37*
G04 #@! TD.AperFunction*
G04 #@! TA.AperFunction,SMDPad,CuDef*
G36*
G01*
X162123000Y-93963500D02*
X162123000Y-93488500D01*
G75*
G02*
X162360500Y-93251000I237500J0D01*
G01*
X162960500Y-93251000D01*
G75*
G02*
X163198000Y-93488500I0J-237500D01*
G01*
X163198000Y-93963500D01*
G75*
G02*
X162960500Y-94201000I-237500J0D01*
G01*
X162360500Y-94201000D01*
G75*
G02*
X162123000Y-93963500I0J237500D01*
G01*
G37*
G04 #@! TD.AperFunction*
G04 #@! TA.AperFunction,SMDPad,CuDef*
G36*
G01*
X162670500Y-113541000D02*
X162195500Y-113541000D01*
G75*
G02*
X161958000Y-113303500I0J237500D01*
G01*
X161958000Y-112703500D01*
G75*
G02*
X162195500Y-112466000I237500J0D01*
G01*
X162670500Y-112466000D01*
G75*
G02*
X162908000Y-112703500I0J-237500D01*
G01*
X162908000Y-113303500D01*
G75*
G02*
X162670500Y-113541000I-237500J0D01*
G01*
G37*
G04 #@! TD.AperFunction*
G04 #@! TA.AperFunction,SMDPad,CuDef*
G36*
G01*
X162670500Y-111816000D02*
X162195500Y-111816000D01*
G75*
G02*
X161958000Y-111578500I0J237500D01*
G01*
X161958000Y-110978500D01*
G75*
G02*
X162195500Y-110741000I237500J0D01*
G01*
X162670500Y-110741000D01*
G75*
G02*
X162908000Y-110978500I0J-237500D01*
G01*
X162908000Y-111578500D01*
G75*
G02*
X162670500Y-111816000I-237500J0D01*
G01*
G37*
G04 #@! TD.AperFunction*
D40*
X149098000Y-119126000D03*
X146558000Y-119126000D03*
X144018000Y-119126000D03*
X141478000Y-119126000D03*
X138938000Y-119126000D03*
X136398000Y-119126000D03*
X133858000Y-119126000D03*
X131318000Y-119126000D03*
X145034000Y-70866000D03*
X142494000Y-70866000D03*
X139954000Y-70866000D03*
X137414000Y-70866000D03*
X134874000Y-70866000D03*
X132334000Y-70866000D03*
X129794000Y-70866000D03*
X127254000Y-70866000D03*
X124714000Y-70866000D03*
X122174000Y-70866000D03*
X166878000Y-70866000D03*
X164338000Y-70866000D03*
X161798000Y-70866000D03*
X159258000Y-70866000D03*
X156718000Y-70866000D03*
X154178000Y-70866000D03*
X151638000Y-70866000D03*
X149098000Y-70866000D03*
X189738000Y-70866000D03*
X187198000Y-70866000D03*
X184658000Y-70866000D03*
X182118000Y-70866000D03*
X179578000Y-70866000D03*
X177038000Y-70866000D03*
X174498000Y-70866000D03*
X171958000Y-70866000D03*
D41*
X117348000Y-119126000D03*
X199898000Y-119126000D03*
X118618000Y-70866000D03*
X169418000Y-86106000D03*
X193548000Y-70866000D03*
D42*
X198628000Y-88646000D03*
X202438000Y-98806000D03*
D43*
X124015500Y-101346000D03*
D42*
X187198000Y-93726000D03*
X194500500Y-99441000D03*
X189308000Y-99553500D03*
X189308000Y-101141000D03*
X183705500Y-102298500D03*
X182118000Y-86741000D03*
D43*
X163830000Y-94678500D03*
D42*
X159575500Y-93726000D03*
X125285500Y-82296000D03*
D43*
X161798000Y-99441000D03*
X125090500Y-116781000D03*
D42*
X131000500Y-93091000D03*
X132270500Y-93091000D03*
X131635500Y-94043500D03*
X124015500Y-82296000D03*
X121793000Y-90233500D03*
X120523000Y-90233500D03*
X128460500Y-78486000D03*
X130365500Y-88011000D03*
X142430500Y-93091000D03*
X143383000Y-108966000D03*
X161253000Y-113003500D03*
D43*
X177990500Y-98806000D03*
D42*
X116078000Y-85153500D03*
X173818000Y-115361000D03*
X165018000Y-115271000D03*
X167195500Y-120396000D03*
X171640500Y-120396000D03*
X133858000Y-84201000D03*
X202438000Y-83566000D03*
X196088000Y-69278500D03*
X198628000Y-69278500D03*
X191008000Y-69278500D03*
X183388000Y-69278500D03*
X175768000Y-69278500D03*
X163068000Y-69278500D03*
X155448000Y-69278500D03*
X147193000Y-69278500D03*
X121158000Y-69278500D03*
X138620500Y-69278500D03*
X116078000Y-69278500D03*
X110998000Y-69278500D03*
X104648000Y-69596000D03*
X104330500Y-87058500D03*
X133858000Y-76898500D03*
X142113000Y-76898500D03*
X154495500Y-93091000D03*
X153543000Y-108331000D03*
X148145500Y-96583500D03*
X151955500Y-99758500D03*
X144335500Y-99758500D03*
X148145500Y-104521000D03*
X177990500Y-91186000D03*
X160528000Y-116586000D03*
X159258000Y-116586000D03*
X157988000Y-116586000D03*
X168148000Y-110553500D03*
X178943000Y-112141000D03*
X178943000Y-110871000D03*
X169418000Y-70231000D03*
X169418000Y-71501000D03*
X184023000Y-115951000D03*
X185293000Y-115951000D03*
D43*
X163830000Y-93726000D03*
X130683000Y-104203500D03*
X186563000Y-105791000D03*
X133858000Y-86741000D03*
D42*
X142430500Y-94361000D03*
X116078000Y-89598500D03*
X161253000Y-111278500D03*
X130048000Y-96266000D03*
X131318000Y-96266000D03*
X202438000Y-88646000D03*
X178308000Y-87376000D03*
X177990500Y-96266000D03*
X133858000Y-82931000D03*
X133858000Y-81661000D03*
X133858000Y-80391000D03*
X179578000Y-87376000D03*
X187198000Y-94996000D03*
D43*
X192518000Y-95391000D03*
X192518000Y-90311000D03*
X119493000Y-76821000D03*
X132193000Y-76821000D03*
X129018000Y-76821000D03*
X125843000Y-76821000D03*
X122668000Y-76821000D03*
D42*
X184658000Y-91186000D03*
X185928000Y-91186000D03*
D43*
X166116000Y-89598500D03*
D42*
X184975500Y-95631000D03*
X185928000Y-93726000D03*
D43*
X132905500Y-86741000D03*
X173228000Y-88328500D03*
X173228000Y-87058500D03*
X159575500Y-102616000D03*
X183388000Y-105473500D03*
X124333000Y-95948500D03*
X124968000Y-78168500D03*
X121158000Y-78168500D03*
X119380000Y-93599000D03*
X182753000Y-117538500D03*
X177038000Y-119126000D03*
X159575500Y-103568500D03*
X162433000Y-101663500D03*
X136395500Y-103566000D03*
D42*
X184023000Y-93726000D03*
X182118000Y-96266000D03*
D43*
X162433000Y-100711000D03*
X136395500Y-101666000D03*
X185293000Y-105473500D03*
X187833000Y-105791000D03*
X184340500Y-106426000D03*
X189103000Y-105791000D03*
X185293000Y-107378500D03*
X196723000Y-101981000D03*
D44*
X198628000Y-77121000D02*
X198683000Y-77066000D01*
X198628000Y-88646000D02*
X198628000Y-77121000D01*
X162433000Y-113003500D02*
X164730500Y-113003500D01*
X171018000Y-112716000D02*
X173818000Y-112716000D01*
X135323000Y-93938500D02*
X135535500Y-93726000D01*
X134673000Y-94588500D02*
X135535500Y-93726000D01*
X133858000Y-94588500D02*
X134673000Y-94588500D01*
X135110500Y-94588500D02*
X135323000Y-94801000D01*
X134673000Y-94588500D02*
X135110500Y-94588500D01*
X135323000Y-94801000D02*
X135323000Y-93938500D01*
X135323000Y-99611000D02*
X135323000Y-94801000D01*
D45*
X122258000Y-116781000D02*
X125090500Y-116781000D01*
X126408000Y-116781000D02*
X126678000Y-116781000D01*
D44*
X124093000Y-103251000D02*
X124093000Y-101423500D01*
X124015500Y-101346000D02*
X124093000Y-101423500D01*
X193320500Y-87783500D02*
X195453000Y-89916000D01*
X189103000Y-87783500D02*
X193320500Y-87783500D01*
X196723000Y-88646000D02*
X195453000Y-89916000D01*
X198628000Y-88646000D02*
X196723000Y-88646000D01*
D46*
X178605500Y-92526000D02*
X178308000Y-92228500D01*
X181597402Y-94126000D02*
X181800500Y-93922902D01*
X180408000Y-94126000D02*
X181597402Y-94126000D01*
X181597402Y-92526000D02*
X180408000Y-92526000D01*
X181800500Y-92729098D02*
X181597402Y-92526000D01*
X181800500Y-93922902D02*
X181800500Y-92729098D01*
X188908000Y-93326000D02*
X187598000Y-93326000D01*
X187598000Y-93326000D02*
X187198000Y-93726000D01*
X187198000Y-93726000D02*
X187198000Y-93726000D01*
X184473000Y-102431000D02*
X184473000Y-102113500D01*
D44*
X162873000Y-93938500D02*
X162660500Y-93726000D01*
D47*
X157598000Y-93091000D02*
X158305500Y-93091000D01*
X120523000Y-80541000D02*
X122963000Y-80541000D01*
X125603000Y-81343500D02*
X125603000Y-80641000D01*
X125603000Y-81978500D02*
X125603000Y-81978500D01*
X123063000Y-81343500D02*
X123698000Y-81978500D01*
X123063000Y-80641000D02*
X123063000Y-81343500D01*
X125603000Y-81978500D02*
X125603000Y-81343500D01*
X124968000Y-81978500D02*
X125603000Y-81343500D01*
X124650500Y-81978500D02*
X124968000Y-81978500D01*
X123698000Y-81978500D02*
X124650500Y-81978500D01*
X124650500Y-81978500D02*
X125603000Y-81978500D01*
D48*
X158940500Y-93091000D02*
X157598000Y-93091000D01*
X159575500Y-93726000D02*
X158940500Y-93091000D01*
D45*
X161798000Y-99441000D02*
X161798000Y-99441000D01*
X162703000Y-99441000D02*
X162873000Y-99611000D01*
X161798000Y-99441000D02*
X162703000Y-99441000D01*
D44*
X160755500Y-113003500D02*
X161253000Y-113003500D01*
X160020000Y-110490000D02*
X160020000Y-112268000D01*
X161609000Y-108901000D02*
X160020000Y-110490000D01*
X162433000Y-108901000D02*
X161609000Y-108901000D01*
D45*
X125090500Y-116781000D02*
X126408000Y-116781000D01*
D47*
X183705500Y-102298500D02*
X184748000Y-102298500D01*
X183705500Y-102298500D02*
X184473000Y-103066000D01*
D46*
X184473000Y-103066000D02*
X184473000Y-102431000D01*
X184473000Y-104416000D02*
X184473000Y-103066000D01*
D47*
X184473000Y-102573500D02*
X184748000Y-102298500D01*
X184473000Y-104416000D02*
X184473000Y-102573500D01*
X182435500Y-101028500D02*
X183705500Y-102298500D01*
D45*
X132180500Y-94588500D02*
X131635500Y-94043500D01*
X133858000Y-94588500D02*
X132180500Y-94588500D01*
D47*
X123698000Y-81978500D02*
X124015500Y-82296000D01*
X125285500Y-82296000D02*
X125603000Y-81978500D01*
X124015500Y-82296000D02*
X124015500Y-82296000D01*
D48*
X131703000Y-88011000D02*
X131953000Y-88011000D01*
X131703000Y-88011000D02*
X130365500Y-88011000D01*
X139165500Y-93091000D02*
X138938000Y-92863500D01*
X140598000Y-93091000D02*
X139165500Y-93091000D01*
X140598000Y-93091000D02*
X142430500Y-93091000D01*
X142430500Y-93091000D02*
X142430500Y-93091000D01*
X143383000Y-110601000D02*
X143383000Y-110553500D01*
X143383000Y-110553500D02*
X143383000Y-108966000D01*
X143383000Y-108966000D02*
X143383000Y-108966000D01*
D49*
X165018000Y-112716000D02*
X165018000Y-115271000D01*
X173818000Y-120123500D02*
X173818000Y-118216000D01*
X173545500Y-120396000D02*
X173818000Y-120123500D01*
X165290500Y-120396000D02*
X167195500Y-120396000D01*
X165018000Y-120123500D02*
X165290500Y-120396000D01*
X165018000Y-118216000D02*
X165018000Y-120123500D01*
D47*
X152908000Y-113183500D02*
X153315500Y-112776000D01*
X152908000Y-115316000D02*
X152908000Y-113183500D01*
D46*
X161632500Y-108901000D02*
X160020000Y-110513500D01*
X162433000Y-108901000D02*
X161632500Y-108901000D01*
X160020000Y-112268000D02*
X160755500Y-113003500D01*
X160020000Y-110513500D02*
X160020000Y-112268000D01*
X164730500Y-113003500D02*
X165018000Y-112716000D01*
X160755500Y-113003500D02*
X164730500Y-113003500D01*
D44*
X161253000Y-113003500D02*
X162433000Y-113003500D01*
X163068000Y-94678500D02*
X162873000Y-94483500D01*
X163830000Y-94678500D02*
X163195000Y-94678500D01*
X162873000Y-94483500D02*
X162873000Y-93938500D01*
X162873000Y-95461000D02*
X162873000Y-94483500D01*
X162873000Y-94873500D02*
X163068000Y-94678500D01*
X162873000Y-95461000D02*
X162873000Y-94873500D01*
X179578000Y-98806000D02*
X177990500Y-98806000D01*
X177990500Y-98806000D02*
X177038000Y-98806000D01*
D47*
X175768000Y-100076000D02*
X176720500Y-101028500D01*
D44*
X176720500Y-99123500D02*
X176720500Y-100711000D01*
D47*
X177038000Y-101028500D02*
X182435500Y-101028500D01*
X176720500Y-101028500D02*
X177038000Y-101028500D01*
D44*
X177038000Y-98806000D02*
X176720500Y-99123500D01*
X176720500Y-100711000D02*
X177038000Y-101028500D01*
X176720500Y-99123500D02*
X175768000Y-100076000D01*
X171958000Y-96266000D02*
X175768000Y-100076000D01*
X169418000Y-96266000D02*
X171958000Y-96266000D01*
D48*
X177990500Y-91821000D02*
X177990500Y-91186000D01*
X178308000Y-92138500D02*
X177990500Y-91821000D01*
X178308000Y-92228500D02*
X178308000Y-92138500D01*
D46*
X177990500Y-91503500D02*
X179013000Y-92526000D01*
X179013000Y-92526000D02*
X178605500Y-92526000D01*
X180408000Y-92526000D02*
X179013000Y-92526000D01*
D48*
X116078000Y-86196000D02*
X116078000Y-85153500D01*
X116078000Y-85153500D02*
X116078000Y-85153500D01*
D49*
X173818000Y-115361000D02*
X173818000Y-112716000D01*
X165018000Y-115271000D02*
X165018000Y-118216000D01*
X167195500Y-120396000D02*
X171640500Y-120396000D01*
X171640500Y-120396000D02*
X173545500Y-120396000D01*
X165018000Y-115271000D02*
X165018000Y-115996000D01*
X165018000Y-115996000D02*
X166243000Y-117221000D01*
X172820500Y-117221000D02*
X173818000Y-116223500D01*
X166243000Y-117221000D02*
X172820500Y-117221000D01*
X173818000Y-116223500D02*
X173818000Y-115361000D01*
X173818000Y-118216000D02*
X173818000Y-116223500D01*
X165018000Y-118216000D02*
X173818000Y-118216000D01*
X165018000Y-118216000D02*
X165018000Y-118218500D01*
X165018000Y-118218500D02*
X166243000Y-119443500D01*
X166243000Y-119443500D02*
X171640500Y-119443500D01*
X171640500Y-119443500D02*
X172910500Y-119443500D01*
D44*
X173545500Y-108648500D02*
X174498000Y-108648500D01*
X174498000Y-108648500D02*
X175133000Y-109283500D01*
X175133000Y-111401000D02*
X173818000Y-112716000D01*
X177038000Y-111506000D02*
X176720500Y-111506000D01*
X176720500Y-111506000D02*
X176403000Y-111823500D01*
X176403000Y-111823500D02*
X175133000Y-111823500D01*
X174240500Y-112716000D02*
X173818000Y-112716000D01*
X175133000Y-111823500D02*
X174240500Y-112716000D01*
X175133000Y-111188500D02*
X175450500Y-111506000D01*
X175133000Y-109283500D02*
X175133000Y-111188500D01*
X175133000Y-111188500D02*
X175133000Y-111401000D01*
X175450500Y-111506000D02*
X177038000Y-111506000D01*
X175450500Y-111506000D02*
X175133000Y-111823500D01*
D49*
X141478000Y-119126000D02*
X141478000Y-118491000D01*
X141478000Y-118491000D02*
X142811500Y-117157500D01*
X142811500Y-117157500D02*
X146431000Y-117157500D01*
X146431000Y-117157500D02*
X156273500Y-117157500D01*
X156273500Y-117157500D02*
X157416500Y-117157500D01*
X157416500Y-117157500D02*
X157988000Y-116586000D01*
X157988000Y-116586000D02*
X159258000Y-116586000D01*
X160528000Y-116586000D02*
X160528000Y-116586000D01*
X159258000Y-116586000D02*
X160528000Y-116586000D01*
X157988000Y-116586000D02*
X157988000Y-116586000D01*
D44*
X168148000Y-110553500D02*
X168148000Y-110553500D01*
D46*
X167818000Y-110883500D02*
X168148000Y-110553500D01*
X167818000Y-112716000D02*
X167818000Y-110883500D01*
D49*
X175768000Y-102616000D02*
X177038000Y-103886000D01*
X177038000Y-103886000D02*
X178943000Y-105791000D01*
X178943000Y-105791000D02*
X178943000Y-108966000D01*
X178943000Y-110553500D02*
X178943000Y-111506000D01*
X178943000Y-111506000D02*
X178943000Y-111506000D01*
X178943000Y-108966000D02*
X178943000Y-110553500D01*
D50*
X141478000Y-119126000D02*
X141478000Y-118173500D01*
D49*
X140462000Y-117157500D02*
X140208000Y-116903500D01*
X142811500Y-117157500D02*
X140462000Y-117157500D01*
D50*
X141478000Y-118173500D02*
X140208000Y-116903500D01*
X122428000Y-104521000D02*
X120483000Y-102576000D01*
X122428000Y-112776000D02*
X122428000Y-104521000D01*
X124650500Y-114998500D02*
X122428000Y-112776000D01*
X138303000Y-114998500D02*
X124650500Y-114998500D01*
X140208000Y-116903500D02*
X138303000Y-114998500D01*
X113538000Y-100711000D02*
X115403000Y-102576000D01*
X113538000Y-78486000D02*
X113538000Y-100711000D01*
X110998000Y-77136000D02*
X112188000Y-77136000D01*
X112188000Y-77136000D02*
X113538000Y-78486000D01*
X120483000Y-102576000D02*
X115403000Y-102576000D01*
D44*
X113578000Y-100751000D02*
X113538000Y-100711000D01*
D50*
X115403000Y-102576000D02*
X113578000Y-102576000D01*
D44*
X113578000Y-102576000D02*
X113578000Y-100751000D01*
D50*
X113578000Y-102576000D02*
X110998000Y-102576000D01*
X169418000Y-71501000D02*
X169418000Y-72136000D01*
X199898000Y-70866000D02*
X197358000Y-70866000D01*
X199898000Y-70866000D02*
X198628000Y-70866000D01*
X171640500Y-74358500D02*
X169418000Y-72136000D01*
X195135500Y-74358500D02*
X171640500Y-74358500D01*
X197358000Y-72136000D02*
X197040500Y-72453500D01*
X197358000Y-70866000D02*
X197358000Y-72136000D01*
X197040500Y-72453500D02*
X195135500Y-74358500D01*
X198628000Y-70866000D02*
X197040500Y-72453500D01*
X199898000Y-70866000D02*
X200850500Y-71818500D01*
X200850500Y-99314182D02*
X200850500Y-99758500D01*
X200850500Y-99758500D02*
X202120500Y-101028500D01*
X202120500Y-101028500D02*
X202120500Y-114046000D01*
X202120500Y-114046000D02*
X202120500Y-114585182D01*
X202120500Y-114585182D02*
X202120500Y-114998500D01*
X202120500Y-114998500D02*
X201168000Y-115951000D01*
X201168000Y-115951000D02*
X186245500Y-115951000D01*
X186245500Y-115951000D02*
X184975500Y-115951000D01*
X185293000Y-115951000D02*
X184023000Y-115951000D01*
X199580500Y-74358500D02*
X200850500Y-75628500D01*
X200850500Y-75628500D02*
X200850500Y-99314182D01*
X200850500Y-71818500D02*
X200850500Y-75628500D01*
X196405500Y-74358500D02*
X195770500Y-74358500D01*
X199898000Y-70866000D02*
X196405500Y-74358500D01*
X195770500Y-74358500D02*
X199580500Y-74358500D01*
X195135500Y-74358500D02*
X195770500Y-74358500D01*
X199898000Y-72771000D02*
X199898000Y-70866000D01*
X199898000Y-72771000D02*
X199263000Y-72771000D01*
X199263000Y-72771000D02*
X198628000Y-73406000D01*
X198628000Y-73406000D02*
X198945500Y-73723500D01*
X198945500Y-73723500D02*
X199898000Y-73723500D01*
X169418000Y-71501000D02*
X169418000Y-70231000D01*
D49*
X178943000Y-111188500D02*
X178943000Y-112141000D01*
D44*
X162433000Y-103951000D02*
X162433000Y-104521000D01*
X166243000Y-108331000D02*
X166243000Y-108901000D01*
X162433000Y-104521000D02*
X166243000Y-108331000D01*
X130683000Y-103251000D02*
X130683000Y-104203500D01*
X130683000Y-104203500D02*
X130683000Y-104203500D01*
D47*
X186673000Y-102498500D02*
X186473000Y-102298500D01*
X186673000Y-104416000D02*
X186673000Y-102498500D01*
X186673000Y-104416000D02*
X186673000Y-105681000D01*
X186673000Y-105681000D02*
X186563000Y-105791000D01*
X186563000Y-105791000D02*
X186563000Y-105791000D01*
D48*
X116305500Y-88011000D02*
X116078000Y-87783500D01*
X118233000Y-88011000D02*
X116305500Y-88011000D01*
X131703000Y-85471000D02*
X131953000Y-85471000D01*
D44*
X134493000Y-92456000D02*
X135485500Y-92456000D01*
X133858000Y-92863500D02*
X133858000Y-86741000D01*
X133858000Y-92456000D02*
X134175500Y-92138500D01*
X133858000Y-92863500D02*
X133858000Y-92456000D01*
X134175500Y-92138500D02*
X134493000Y-92456000D01*
X134175500Y-92138500D02*
X133858000Y-91821000D01*
X134085500Y-92863500D02*
X134493000Y-92456000D01*
X133858000Y-92863500D02*
X134085500Y-92863500D01*
X133858000Y-86106000D02*
X133223000Y-85471000D01*
X133858000Y-86741000D02*
X133858000Y-86106000D01*
X133223000Y-85471000D02*
X131703000Y-85471000D01*
X131703000Y-85471000D02*
X131703000Y-82931000D01*
X131703000Y-81728500D02*
X130615500Y-80641000D01*
X130615500Y-80641000D02*
X129413000Y-80641000D01*
X131703000Y-81728500D02*
X131703000Y-82931000D01*
D48*
X139165500Y-94361000D02*
X138938000Y-94588500D01*
X140598000Y-94361000D02*
X139165500Y-94361000D01*
X140598000Y-94361000D02*
X142430500Y-94361000D01*
X142430500Y-94361000D02*
X142430500Y-94361000D01*
X118233000Y-88011000D02*
X117030500Y-88011000D01*
D47*
X155448000Y-113183500D02*
X155040500Y-112776000D01*
X155448000Y-115316000D02*
X155448000Y-113183500D01*
D46*
X165565500Y-110553500D02*
X163158000Y-110553500D01*
X166243000Y-109876000D02*
X165565500Y-110553500D01*
X166243000Y-108901000D02*
X166243000Y-109876000D01*
X163158000Y-110553500D02*
X162433000Y-111278500D01*
X162433000Y-111278500D02*
X161253000Y-111278500D01*
X161253000Y-111278500D02*
X161253000Y-111278500D01*
D44*
X162984264Y-92456000D02*
X162710500Y-92456000D01*
X163830000Y-93301736D02*
X162984264Y-92456000D01*
X163830000Y-93726000D02*
X163830000Y-93301736D01*
D48*
X116078000Y-89598500D02*
X116078000Y-87921000D01*
D47*
X116078000Y-88963500D02*
X117030500Y-88011000D01*
X116078000Y-89598500D02*
X116078000Y-88963500D01*
D45*
X171253000Y-99371200D02*
X169735300Y-97853500D01*
X171253000Y-100076000D02*
X171253000Y-99371200D01*
X160723000Y-92618500D02*
X160885500Y-92456000D01*
X169735300Y-97853500D02*
X161163000Y-97853500D01*
X160918000Y-97853500D02*
X160723000Y-97658500D01*
X161163000Y-97853500D02*
X160845500Y-97853500D01*
X160918000Y-97853500D02*
X160723000Y-98048500D01*
X161163000Y-97853500D02*
X160918000Y-97853500D01*
X160723000Y-98048500D02*
X160723000Y-97658500D01*
X160723000Y-99611000D02*
X160723000Y-98048500D01*
X156293200Y-109601000D02*
X155765500Y-109073300D01*
X157598000Y-109601000D02*
X156293200Y-109601000D01*
X155765500Y-92741978D02*
X156368978Y-92138500D01*
X155765500Y-109073300D02*
X155765500Y-92741978D01*
X160568000Y-92138500D02*
X160885500Y-92456000D01*
X156368978Y-92138500D02*
X160568000Y-92138500D01*
X160918000Y-93726000D02*
X160723000Y-93531000D01*
X160935500Y-93726000D02*
X160918000Y-93726000D01*
X160723000Y-93531000D02*
X160723000Y-92618500D01*
X160723000Y-97658500D02*
X160723000Y-93531000D01*
X137473000Y-92618500D02*
X137310500Y-92456000D01*
X137643000Y-95631000D02*
X137473000Y-95461000D01*
X140598000Y-95631000D02*
X137643000Y-95631000D01*
X137473000Y-102491000D02*
X137598000Y-102616000D01*
X137473000Y-99611000D02*
X137473000Y-102491000D01*
X137350500Y-93726000D02*
X137473000Y-93603500D01*
X137260500Y-93726000D02*
X137350500Y-93726000D01*
X137473000Y-93603500D02*
X137473000Y-92618500D01*
X137473000Y-99611000D02*
X137473000Y-93603500D01*
D51*
X130048000Y-96266000D02*
X131318000Y-96266000D01*
X127508000Y-111506000D02*
X127508000Y-112141000D01*
X132588000Y-106426000D02*
X127508000Y-111506000D01*
X132588000Y-97536000D02*
X132588000Y-106426000D01*
X131318000Y-96266000D02*
X132588000Y-97536000D01*
D46*
X190097402Y-95726000D02*
X188908000Y-95726000D01*
X190373000Y-95450402D02*
X190097402Y-95726000D01*
X190373000Y-94996000D02*
X190373000Y-95450402D01*
X191008000Y-94361000D02*
X190373000Y-94996000D01*
X191093688Y-94361000D02*
X191008000Y-94361000D01*
X192909990Y-94357990D02*
X191096698Y-94357990D01*
X193548000Y-94996000D02*
X192909990Y-94357990D01*
X193548000Y-95948500D02*
X193548000Y-94996000D01*
X195015500Y-97416000D02*
X193548000Y-95948500D01*
X191096698Y-94357990D02*
X191093688Y-94361000D01*
X195453000Y-97416000D02*
X195015500Y-97416000D01*
X178308000Y-93953500D02*
X178472500Y-93953500D01*
X180408000Y-94926000D02*
X179280500Y-94926000D01*
X178829250Y-93612250D02*
X178821500Y-93604500D01*
X178821500Y-93604500D02*
X179100000Y-93326000D01*
X178829250Y-94474750D02*
X178829250Y-93612250D01*
X178472500Y-93953500D02*
X178821500Y-93604500D01*
X179280500Y-94926000D02*
X178829250Y-94474750D01*
X178829250Y-94474750D02*
X178308000Y-93953500D01*
D44*
X199503000Y-101981000D02*
X199503000Y-101903500D01*
X195453000Y-97853500D02*
X195453000Y-97416000D01*
X199503000Y-101903500D02*
X195453000Y-97853500D01*
D48*
X178308000Y-93953500D02*
X177990500Y-94271000D01*
X177990500Y-96266000D02*
X177990500Y-96266000D01*
D46*
X178511750Y-94474750D02*
X177990500Y-94996000D01*
X178829250Y-94474750D02*
X178511750Y-94474750D01*
D48*
X177990500Y-94996000D02*
X177990500Y-96266000D01*
X177990500Y-94271000D02*
X177990500Y-94996000D01*
D46*
X178952499Y-93309001D02*
X178308000Y-93953500D01*
X179478501Y-93309001D02*
X178952499Y-93309001D01*
X179495500Y-93326000D02*
X179478501Y-93309001D01*
X179100000Y-93326000D02*
X179495500Y-93326000D01*
X179495500Y-93326000D02*
X180408000Y-93326000D01*
D48*
X133858000Y-82931000D02*
X133858000Y-80391000D01*
D50*
X169418000Y-90551000D02*
X168148000Y-89281000D01*
X169418000Y-91186000D02*
X169418000Y-90551000D01*
X167830500Y-89281000D02*
X165925500Y-87376000D01*
X168148000Y-89281000D02*
X167830500Y-89281000D01*
X165925500Y-81026000D02*
X164338000Y-79438500D01*
X165925500Y-87376000D02*
X165925500Y-81026000D01*
X134175500Y-79438500D02*
X133540500Y-80073500D01*
X164338000Y-79438500D02*
X134175500Y-79438500D01*
X133540500Y-82613500D02*
X133540500Y-82296000D01*
X133540500Y-80073500D02*
X133540500Y-82613500D01*
D47*
X169418000Y-91186000D02*
X168783000Y-91186000D01*
X168783000Y-91186000D02*
X168465500Y-90868500D01*
X168465500Y-90233500D02*
X168465500Y-90868500D01*
D44*
X189973000Y-94126000D02*
X188908000Y-94126000D01*
X190690500Y-93408500D02*
X189973000Y-94126000D01*
X192278000Y-93408500D02*
X190690500Y-93408500D01*
X193275201Y-92411299D02*
X192278000Y-93408500D01*
X193275201Y-89947543D02*
X193275201Y-92411299D01*
X192608658Y-89281000D02*
X193275201Y-89947543D01*
X189330500Y-89281000D02*
X192608658Y-89281000D01*
X189103000Y-89508500D02*
X189330500Y-89281000D01*
X109093000Y-101981000D02*
X110998000Y-100076000D01*
X109093000Y-107696000D02*
X109093000Y-101981000D01*
X117348000Y-115951000D02*
X109093000Y-107696000D01*
X118935500Y-115951000D02*
X117348000Y-115951000D01*
X120523000Y-117538500D02*
X118935500Y-115951000D01*
X121475500Y-120713500D02*
X120523000Y-119761000D01*
X120523000Y-119761000D02*
X120523000Y-117538500D01*
X155130500Y-120713500D02*
X121475500Y-120713500D01*
X156718000Y-119126000D02*
X155130500Y-120713500D01*
X186245500Y-84201000D02*
X186563000Y-84201000D01*
X186563000Y-84201000D02*
X188468000Y-84201000D01*
X185928000Y-84201000D02*
X186245500Y-84201000D01*
X182658000Y-87471000D02*
X185928000Y-84201000D01*
X182658000Y-89476000D02*
X182658000Y-87471000D01*
D45*
X185928000Y-83566000D02*
X185928000Y-79756000D01*
X185928000Y-83883500D02*
X186245500Y-84201000D01*
X185928000Y-83566000D02*
X185928000Y-83883500D01*
X185928000Y-83883500D02*
X185928000Y-84201000D01*
X187890500Y-96526000D02*
X188908000Y-96526000D01*
X187198000Y-95833500D02*
X187890500Y-96526000D01*
X187198000Y-94996000D02*
X187198000Y-95833500D01*
D44*
X191643000Y-97141000D02*
X190613000Y-97141000D01*
X189998000Y-96526000D02*
X188908000Y-96526000D01*
X190613000Y-97141000D02*
X189998000Y-96526000D01*
X191643000Y-95391000D02*
X192518000Y-95391000D01*
X192518000Y-95391000D02*
X192518000Y-95391000D01*
X191308000Y-91726000D02*
X191643000Y-92061000D01*
X188908000Y-91726000D02*
X191308000Y-91726000D01*
X191643000Y-90311000D02*
X192518000Y-90311000D01*
X192518000Y-90311000D02*
X192518000Y-90311000D01*
D52*
X118618000Y-75071000D02*
X118985000Y-75071000D01*
X118985000Y-75071000D02*
X121666000Y-72390000D01*
X130810000Y-72390000D02*
X132334000Y-70866000D01*
X121666000Y-72390000D02*
X130810000Y-72390000D01*
D44*
X119493000Y-76821000D02*
X118618000Y-76821000D01*
D52*
X131318000Y-75071000D02*
X131318000Y-74930000D01*
X131318000Y-74930000D02*
X132334000Y-73914000D01*
X132334000Y-73914000D02*
X134112000Y-73914000D01*
X134112000Y-73914000D02*
X134620000Y-73406000D01*
X134620000Y-73406000D02*
X141478000Y-73406000D01*
X141478000Y-73406000D02*
X141986000Y-72898000D01*
X141986000Y-72898000D02*
X143764000Y-72898000D01*
X143764000Y-72898000D02*
X144272000Y-72390000D01*
X147574000Y-72390000D02*
X149098000Y-70866000D01*
X144272000Y-72390000D02*
X147574000Y-72390000D01*
D44*
X132193000Y-76821000D02*
X131318000Y-76821000D01*
D52*
X128143000Y-75071000D02*
X128143000Y-75057000D01*
X128143000Y-75057000D02*
X129286000Y-73914000D01*
X129286000Y-73914000D02*
X131572000Y-73914000D01*
X131572000Y-73914000D02*
X132080000Y-73406000D01*
X132080000Y-73406000D02*
X133858000Y-73406000D01*
X133858000Y-73406000D02*
X134366000Y-72898000D01*
X134366000Y-72898000D02*
X141224000Y-72898000D01*
X141224000Y-72898000D02*
X141732000Y-72390000D01*
X143510000Y-72390000D02*
X145034000Y-70866000D01*
X141732000Y-72390000D02*
X143510000Y-72390000D01*
D44*
X129018000Y-76821000D02*
X128143000Y-76821000D01*
D52*
X124968000Y-75071000D02*
X125081000Y-75071000D01*
X125081000Y-75071000D02*
X126746000Y-73406000D01*
X126746000Y-73406000D02*
X131318000Y-73406000D01*
X131318000Y-73406000D02*
X131826000Y-72898000D01*
X131826000Y-72898000D02*
X133604000Y-72898000D01*
X133604000Y-72898000D02*
X134112000Y-72390000D01*
X140970000Y-72390000D02*
X142494000Y-70866000D01*
X134112000Y-72390000D02*
X140970000Y-72390000D01*
D44*
X125843000Y-76821000D02*
X124968000Y-76821000D01*
X122668000Y-76821000D02*
X121793000Y-76821000D01*
D45*
X169193121Y-114372401D02*
X167204401Y-114372401D01*
X169418000Y-114147522D02*
X169193121Y-114372401D01*
X169418000Y-112716000D02*
X169418000Y-114147522D01*
X167204401Y-114372401D02*
X166878000Y-114046000D01*
X166878000Y-114046000D02*
X166878000Y-110236000D01*
X167513000Y-109601000D02*
X167513000Y-108901000D01*
X166878000Y-110236000D02*
X167513000Y-109601000D01*
X168618000Y-111353500D02*
X168618000Y-112716000D01*
X169100500Y-110871000D02*
X168618000Y-111353500D01*
X169100500Y-109918500D02*
X169100500Y-110871000D01*
X168783000Y-109601000D02*
X169100500Y-109918500D01*
X168783000Y-108901000D02*
X168783000Y-109601000D01*
D46*
X185058000Y-89476000D02*
X185058000Y-90786000D01*
X185058000Y-90786000D02*
X184658000Y-91186000D01*
X184658000Y-91186000D02*
X184658000Y-91186000D01*
X185858000Y-89476000D02*
X185858000Y-91116000D01*
X185928000Y-91186000D02*
X185928000Y-91186000D01*
X185928000Y-91186000D02*
X185858000Y-91116000D01*
D45*
X183388000Y-79756000D02*
X184658000Y-78486000D01*
X184658000Y-78486000D02*
X186563000Y-78486000D01*
X187184401Y-79107401D02*
X187184401Y-80694901D01*
X186563000Y-78486000D02*
X187184401Y-79107401D01*
X187184401Y-80694901D02*
X187198000Y-80708500D01*
X187198000Y-80917522D02*
X189738000Y-83457522D01*
X187198000Y-80708500D02*
X187198000Y-80917522D01*
X189738000Y-83457522D02*
X189738000Y-84836000D01*
X189103000Y-85471000D02*
X188468000Y-85471000D01*
X189738000Y-84836000D02*
X189103000Y-85471000D01*
D44*
X185928000Y-85471000D02*
X188468000Y-85471000D01*
X183458000Y-87941000D02*
X185928000Y-85471000D01*
X183458000Y-89476000D02*
X183458000Y-87941000D01*
X186245500Y-86423500D02*
X191325500Y-86423500D01*
X191325500Y-86423500D02*
X194183000Y-83566000D01*
X184258000Y-88411000D02*
X186245500Y-86423500D01*
X184258000Y-89476000D02*
X184258000Y-88411000D01*
D45*
X166878000Y-96266000D02*
X165290500Y-94678500D01*
X165290500Y-94678500D02*
X165290500Y-90233500D01*
X165925500Y-89598500D02*
X166116000Y-89598500D01*
X165290500Y-90233500D02*
X165925500Y-89598500D01*
X184975500Y-95631000D02*
X185309798Y-95631000D01*
X186658000Y-96979202D02*
X186658000Y-97976000D01*
X185309798Y-95631000D02*
X186658000Y-96979202D01*
X187458000Y-96988926D02*
X187458000Y-97976000D01*
X185928000Y-95458926D02*
X187458000Y-96988926D01*
X185928000Y-93726000D02*
X185928000Y-95458926D01*
X118483000Y-84201000D02*
X118233000Y-84201000D01*
X119570500Y-85288500D02*
X118483000Y-84201000D01*
X119570500Y-92138500D02*
X119570500Y-85288500D01*
X118618000Y-93091000D02*
X119570500Y-92138500D01*
X118618000Y-94043500D02*
X118618000Y-93091000D01*
X121793000Y-97218500D02*
X118618000Y-94043500D01*
X123380500Y-97218500D02*
X121793000Y-97218500D01*
X124968000Y-98806000D02*
X123380500Y-97218500D01*
X127508000Y-98806000D02*
X125920500Y-97218500D01*
X125920500Y-97218500D02*
X124333000Y-97218500D01*
X124333000Y-97218500D02*
X123698000Y-96583500D01*
X123698000Y-96583500D02*
X122110500Y-96583500D01*
X120523000Y-94996000D02*
X120523000Y-94111000D01*
X122110500Y-96583500D02*
X120523000Y-94996000D01*
D44*
X131703000Y-86741000D02*
X132905500Y-86741000D01*
X132905500Y-86741000D02*
X132905500Y-86741000D01*
D45*
X175768000Y-94996000D02*
X173228000Y-92456000D01*
X173228000Y-88963500D02*
X173228000Y-88328500D01*
X173228000Y-92456000D02*
X173228000Y-88963500D01*
X173228000Y-88963500D02*
X173228000Y-88646000D01*
X172275500Y-88011000D02*
X173228000Y-87058500D01*
X172275500Y-94043500D02*
X172275500Y-88011000D01*
X175768000Y-97536000D02*
X172275500Y-94043500D01*
X160401000Y-104497500D02*
X160020000Y-104878500D01*
X160401000Y-103251000D02*
X160401000Y-104497500D01*
X159766000Y-102616000D02*
X160401000Y-103251000D01*
X159575500Y-102616000D02*
X159766000Y-102616000D01*
X183388000Y-104431000D02*
X183373000Y-104416000D01*
X183388000Y-107696000D02*
X183388000Y-105473500D01*
X184658000Y-108966000D02*
X183388000Y-107696000D01*
X197358000Y-108966000D02*
X184658000Y-108966000D01*
X183388000Y-105473500D02*
X183388000Y-104431000D01*
X124333000Y-95948500D02*
X124333000Y-94111000D01*
X128143000Y-79636200D02*
X128143000Y-80641000D01*
X126675300Y-78168500D02*
X128143000Y-79636200D01*
X124968000Y-78168500D02*
X126675300Y-78168500D01*
X126873000Y-80641000D02*
X126873000Y-79756000D01*
X126873000Y-79756000D02*
X126238000Y-79121000D01*
X124875026Y-79121000D02*
X123922526Y-78168500D01*
X126238000Y-79121000D02*
X124875026Y-79121000D01*
X123922526Y-78168500D02*
X121158000Y-78168500D01*
X131703000Y-89281000D02*
X131318000Y-89281000D01*
X131318000Y-89281000D02*
X128143000Y-92456000D01*
X128143000Y-92456000D02*
X127825500Y-92773500D01*
X127825500Y-92773500D02*
X119888000Y-92773500D01*
X119824500Y-92773500D02*
X119380000Y-93218000D01*
X119888000Y-92773500D02*
X119824500Y-92773500D01*
X119380000Y-93218000D02*
X119380000Y-93599000D01*
X119380000Y-93599000D02*
X119380000Y-93599000D01*
X122258000Y-118931000D02*
X126408000Y-118931000D01*
X128583000Y-118931000D02*
X126408000Y-118931000D01*
X129975500Y-117538500D02*
X128583000Y-118931000D01*
X134810500Y-117538500D02*
X129975500Y-117538500D01*
X136398000Y-119126000D02*
X134810500Y-117538500D01*
X196405500Y-110236000D02*
X192595500Y-114046000D01*
X197993000Y-110236000D02*
X196405500Y-110236000D01*
X198614401Y-109614599D02*
X197993000Y-110236000D01*
X198628000Y-108966000D02*
X198614401Y-108979599D01*
X198628000Y-107696000D02*
X198628000Y-108966000D01*
X198614401Y-108979599D02*
X198614401Y-109614599D01*
X199898000Y-106426000D02*
X198628000Y-107696000D01*
X192595500Y-114046000D02*
X184023000Y-114046000D01*
X184023000Y-114046000D02*
X182854590Y-115214410D01*
X182854590Y-115214410D02*
X182753000Y-115316000D01*
X182753000Y-115316000D02*
X182753000Y-117538500D01*
X182753000Y-117538500D02*
X182753000Y-117538500D01*
X177038000Y-119126000D02*
X177038000Y-114046000D01*
D44*
X180848000Y-85471000D02*
X180213000Y-85471000D01*
X180213000Y-85471000D02*
X177355500Y-82613500D01*
X177355500Y-82613500D02*
X174815500Y-82613500D01*
X174815500Y-82613500D02*
X164338000Y-72136000D01*
X164338000Y-72136000D02*
X164338000Y-70866000D01*
X180213000Y-84201000D02*
X180848000Y-84201000D01*
X175133000Y-81661000D02*
X177673000Y-81661000D01*
X177673000Y-81661000D02*
X180213000Y-84201000D01*
X166878000Y-73406000D02*
X175133000Y-81661000D01*
X166878000Y-70866000D02*
X166878000Y-73406000D01*
D45*
X158496000Y-105791000D02*
X157598000Y-105791000D01*
X159067500Y-105219500D02*
X158496000Y-105791000D01*
X159067500Y-104076500D02*
X159067500Y-105219500D01*
X159575500Y-103568500D02*
X159067500Y-104076500D01*
X167155500Y-102063500D02*
X167155500Y-100711000D01*
X166243000Y-102976000D02*
X167155500Y-102063500D01*
X166243000Y-103951000D02*
X166243000Y-102976000D01*
X167470500Y-101026000D02*
X167155500Y-100711000D01*
X168853000Y-101026000D02*
X167470500Y-101026000D01*
X164973000Y-102896320D02*
X164973000Y-103951000D01*
X165330500Y-98806000D02*
X166224410Y-99699910D01*
X164973000Y-103951000D02*
X164973000Y-102616000D01*
X166224410Y-99699910D02*
X166224410Y-101644910D01*
X165253320Y-102616000D02*
X165271910Y-102597410D01*
X165271910Y-102597410D02*
X164973000Y-102896320D01*
X164973000Y-102616000D02*
X165253320Y-102616000D01*
X166224410Y-101644910D02*
X165271910Y-102597410D01*
X135198000Y-103566000D02*
X136395500Y-103566000D01*
X136395500Y-103566000D02*
X136395500Y-103566000D01*
X164338000Y-101663500D02*
X162433000Y-101663500D01*
X164973000Y-102298500D02*
X164338000Y-101663500D01*
X164973000Y-102616000D02*
X164973000Y-102298500D01*
X159702500Y-107061000D02*
X160020000Y-107378500D01*
X157725000Y-107061000D02*
X159702500Y-107061000D01*
X160020000Y-107378500D02*
X160020000Y-106703500D01*
X160020000Y-108688500D02*
X160020000Y-107378500D01*
X173540500Y-109853500D02*
X173545500Y-109848500D01*
X173545500Y-109848500D02*
X171710500Y-109848500D01*
X171323000Y-109461000D02*
X171323000Y-108901000D01*
X171710500Y-109848500D02*
X171323000Y-109461000D01*
X173545500Y-107448500D02*
X170758000Y-107448500D01*
X170053000Y-108153500D02*
X170053000Y-108901000D01*
X170758000Y-107448500D02*
X170053000Y-108153500D01*
X164973000Y-108331000D02*
X164973000Y-108901000D01*
X161671000Y-105029000D02*
X164973000Y-108331000D01*
X161671000Y-102171500D02*
X161671000Y-105029000D01*
X159893000Y-100393500D02*
X161671000Y-102171500D01*
X159893000Y-97891200D02*
X159893000Y-100393500D01*
X158902800Y-96901000D02*
X159893000Y-97891200D01*
X157598000Y-96901000D02*
X158902800Y-96901000D01*
X161036000Y-105346500D02*
X163703000Y-108013500D01*
X161036000Y-102489000D02*
X161036000Y-105346500D01*
X159258000Y-100711000D02*
X161036000Y-102489000D01*
X159258000Y-98488500D02*
X159258000Y-100711000D01*
X163703000Y-108013500D02*
X163703000Y-108901000D01*
X158940500Y-98171000D02*
X159258000Y-98488500D01*
X157598000Y-98171000D02*
X158940500Y-98171000D01*
X184023000Y-95948500D02*
X184658000Y-96583500D01*
X184023000Y-93726000D02*
X184023000Y-95948500D01*
X185858000Y-96969478D02*
X185858000Y-97976000D01*
X185472022Y-96583500D02*
X185858000Y-96969478D01*
X184658000Y-96583500D02*
X185472022Y-96583500D01*
X182753000Y-92341000D02*
X181858000Y-91446000D01*
X181858000Y-91446000D02*
X181858000Y-89476000D01*
X182753000Y-95631000D02*
X182753000Y-92341000D01*
X182118000Y-96266000D02*
X182753000Y-95631000D01*
X180975000Y-96774000D02*
X180727000Y-96526000D01*
X180727000Y-96526000D02*
X180408000Y-96526000D01*
X180975000Y-99441000D02*
X180975000Y-96774000D01*
X180410000Y-100006000D02*
X180975000Y-99441000D01*
X179578000Y-100006000D02*
X180410000Y-100006000D01*
X179303200Y-95726000D02*
X179070000Y-95959200D01*
X180408000Y-95726000D02*
X179303200Y-95726000D01*
X179070000Y-95959200D02*
X179070000Y-97409000D01*
X179267000Y-97606000D02*
X179070000Y-97409000D01*
X179578000Y-97606000D02*
X179267000Y-97606000D01*
X167475500Y-99126000D02*
X167155500Y-98806000D01*
X168853000Y-99126000D02*
X167475500Y-99126000D01*
X165330500Y-100711000D02*
X164338000Y-100711000D01*
X164338000Y-100711000D02*
X164338000Y-100711000D01*
X135198000Y-101666000D02*
X136395500Y-101666000D01*
X136395500Y-101666000D02*
X136395500Y-101666000D01*
X164338000Y-100711000D02*
X162433000Y-100711000D01*
X185610500Y-104453500D02*
X185573000Y-104416000D01*
D44*
X185573000Y-105193500D02*
X185293000Y-105473500D01*
X185573000Y-104416000D02*
X185573000Y-105193500D01*
D45*
X187833000Y-104476000D02*
X187773000Y-104416000D01*
X187833000Y-105791000D02*
X187833000Y-104476000D01*
X184467500Y-106553000D02*
X184340500Y-106426000D01*
X187071000Y-106553000D02*
X184467500Y-106553000D01*
X187833000Y-105791000D02*
X187071000Y-106553000D01*
X188873000Y-104608500D02*
X189103000Y-104838500D01*
X188873000Y-104416000D02*
X188873000Y-104608500D01*
X189103000Y-104838500D02*
X189103000Y-105791000D01*
X189103000Y-105791000D02*
X189103000Y-105791000D01*
X189103000Y-106108500D02*
X189103000Y-105791000D01*
X187833000Y-107378500D02*
X189103000Y-106108500D01*
X185928000Y-107378500D02*
X187833000Y-107378500D01*
X185928000Y-107378500D02*
X185293000Y-107378500D01*
D44*
X197753000Y-101981000D02*
X196723000Y-101981000D01*
X196723000Y-101981000D02*
X196723000Y-101981000D01*
X125843000Y-103251000D02*
X128858000Y-103251000D01*
D52*
X133350000Y-72390000D02*
X134874000Y-70866000D01*
X131572000Y-72390000D02*
X133350000Y-72390000D01*
X131064000Y-72898000D02*
X131572000Y-72390000D01*
X123952000Y-72898000D02*
X131064000Y-72898000D01*
X121793000Y-75057000D02*
X123952000Y-72898000D01*
X121793000Y-75071000D02*
X121793000Y-75057000D01*
D45*
X117983000Y-92071000D02*
X118233000Y-91821000D01*
X117983000Y-94361000D02*
X117983000Y-92071000D01*
X122428000Y-98806000D02*
X117983000Y-94361000D01*
D53*
X155114006Y-92619112D02*
X155101905Y-92741978D01*
X155105101Y-92774427D01*
X155105100Y-109040861D01*
X155101905Y-109073300D01*
X155103603Y-109090543D01*
X154363000Y-109090543D01*
X154263415Y-109100351D01*
X154178000Y-109126261D01*
X154092585Y-109100351D01*
X153993000Y-109090543D01*
X153093000Y-109090543D01*
X152993415Y-109100351D01*
X152908000Y-109126261D01*
X152822585Y-109100351D01*
X152723000Y-109090543D01*
X151823000Y-109090543D01*
X151723415Y-109100351D01*
X151638000Y-109126261D01*
X151552585Y-109100351D01*
X151453000Y-109090543D01*
X150553000Y-109090543D01*
X150453415Y-109100351D01*
X150368000Y-109126261D01*
X150282585Y-109100351D01*
X150183000Y-109090543D01*
X149283000Y-109090543D01*
X149183415Y-109100351D01*
X149098000Y-109126261D01*
X149012585Y-109100351D01*
X148913000Y-109090543D01*
X148013000Y-109090543D01*
X147913415Y-109100351D01*
X147828000Y-109126261D01*
X147742585Y-109100351D01*
X147643000Y-109090543D01*
X146743000Y-109090543D01*
X146643415Y-109100351D01*
X146558000Y-109126261D01*
X146472585Y-109100351D01*
X146373000Y-109090543D01*
X145473000Y-109090543D01*
X145373415Y-109100351D01*
X145288000Y-109126261D01*
X145202585Y-109100351D01*
X145103000Y-109090543D01*
X144203000Y-109090543D01*
X144103415Y-109100351D01*
X144018002Y-109126261D01*
X143932585Y-109100350D01*
X143833000Y-109090542D01*
X143635000Y-109093000D01*
X143508000Y-109220000D01*
X143508000Y-109474000D01*
X143258000Y-109474000D01*
X143258000Y-109220000D01*
X143131000Y-109093000D01*
X142933000Y-109090542D01*
X142833415Y-109100350D01*
X142737656Y-109129398D01*
X142659913Y-109170954D01*
X142622119Y-109160827D01*
X142589250Y-109156500D01*
X142108457Y-109156500D01*
X142108457Y-109151000D01*
X142098649Y-109051415D01*
X142072739Y-108966000D01*
X142098649Y-108880585D01*
X142108457Y-108781000D01*
X142108457Y-107881000D01*
X142098649Y-107781415D01*
X142072739Y-107696000D01*
X142098649Y-107610585D01*
X142108457Y-107511000D01*
X142108457Y-106611000D01*
X142098649Y-106511415D01*
X142072739Y-106426000D01*
X142098649Y-106340585D01*
X142108457Y-106241000D01*
X142108457Y-105341000D01*
X142098649Y-105241415D01*
X142072739Y-105156000D01*
X142098649Y-105070585D01*
X142108457Y-104971000D01*
X142108457Y-104071000D01*
X142098649Y-103971415D01*
X142072739Y-103886000D01*
X142098649Y-103800585D01*
X142108457Y-103701000D01*
X142108457Y-103091000D01*
X145087542Y-103091000D01*
X145097350Y-103190585D01*
X145126398Y-103286344D01*
X145173570Y-103374595D01*
X145237052Y-103451948D01*
X145314405Y-103515430D01*
X145402656Y-103562602D01*
X145498415Y-103591650D01*
X145598000Y-103601458D01*
X147846000Y-103599000D01*
X147973000Y-103472000D01*
X147973000Y-100716000D01*
X148223000Y-100716000D01*
X148223000Y-103472000D01*
X148350000Y-103599000D01*
X150598000Y-103601458D01*
X150697585Y-103591650D01*
X150793344Y-103562602D01*
X150881595Y-103515430D01*
X150958948Y-103451948D01*
X151022430Y-103374595D01*
X151069602Y-103286344D01*
X151098650Y-103190585D01*
X151108458Y-103091000D01*
X151106000Y-100843000D01*
X150979000Y-100716000D01*
X148223000Y-100716000D01*
X147973000Y-100716000D01*
X145217000Y-100716000D01*
X145090000Y-100843000D01*
X145087542Y-103091000D01*
X142108457Y-103091000D01*
X142108457Y-102801000D01*
X142098649Y-102701415D01*
X142072739Y-102616000D01*
X142098649Y-102530585D01*
X142108457Y-102431000D01*
X142108457Y-101531000D01*
X142098649Y-101431415D01*
X142072739Y-101346000D01*
X142098649Y-101260585D01*
X142108457Y-101161000D01*
X142108457Y-100261000D01*
X142098649Y-100161415D01*
X142072739Y-100076000D01*
X142098649Y-99990585D01*
X142108457Y-99891000D01*
X142108457Y-98991000D01*
X142098649Y-98891415D01*
X142072739Y-98806000D01*
X142098649Y-98720585D01*
X142108457Y-98621000D01*
X142108457Y-98091000D01*
X145087542Y-98091000D01*
X145090000Y-100339000D01*
X145217000Y-100466000D01*
X147973000Y-100466000D01*
X147973000Y-97710000D01*
X148223000Y-97710000D01*
X148223000Y-100466000D01*
X150979000Y-100466000D01*
X151106000Y-100339000D01*
X151108458Y-98091000D01*
X151098650Y-97991415D01*
X151069602Y-97895656D01*
X151022430Y-97807405D01*
X150958948Y-97730052D01*
X150881595Y-97666570D01*
X150793344Y-97619398D01*
X150697585Y-97590350D01*
X150598000Y-97580542D01*
X148350000Y-97583000D01*
X148223000Y-97710000D01*
X147973000Y-97710000D01*
X147846000Y-97583000D01*
X145598000Y-97580542D01*
X145498415Y-97590350D01*
X145402656Y-97619398D01*
X145314405Y-97666570D01*
X145237052Y-97730052D01*
X145173570Y-97807405D01*
X145126398Y-97895656D01*
X145097350Y-97991415D01*
X145087542Y-98091000D01*
X142108457Y-98091000D01*
X142108457Y-97721000D01*
X142098649Y-97621415D01*
X142072739Y-97536000D01*
X142098649Y-97450585D01*
X142108457Y-97351000D01*
X142108457Y-96451000D01*
X142098649Y-96351415D01*
X142072739Y-96266000D01*
X142098649Y-96180585D01*
X142108457Y-96081000D01*
X142108457Y-95275400D01*
X142475418Y-95275400D01*
X142609754Y-95262169D01*
X142782119Y-95209883D01*
X142940971Y-95124974D01*
X143080207Y-95010707D01*
X143194474Y-94871471D01*
X143279383Y-94712619D01*
X143331669Y-94540254D01*
X143349324Y-94361000D01*
X143331669Y-94181746D01*
X143279383Y-94009381D01*
X143194474Y-93850529D01*
X143080207Y-93711293D01*
X142940971Y-93597026D01*
X142782119Y-93512117D01*
X142609754Y-93459831D01*
X142475418Y-93446600D01*
X142107286Y-93446600D01*
X142106000Y-93343000D01*
X141979000Y-93216000D01*
X141605000Y-93216000D01*
X141605000Y-92966000D01*
X141979000Y-92966000D01*
X142106000Y-92839000D01*
X142108458Y-92641000D01*
X142098650Y-92541415D01*
X142069602Y-92445656D01*
X142040289Y-92390817D01*
X142483106Y-91948000D01*
X154442894Y-91948000D01*
X155114006Y-92619112D01*
G04 #@! TA.AperFunction,Conductor*
D54*
G36*
X155114006Y-92619112D02*
G01*
X155101905Y-92741978D01*
X155105101Y-92774427D01*
X155105100Y-109040861D01*
X155101905Y-109073300D01*
X155103603Y-109090543D01*
X154363000Y-109090543D01*
X154263415Y-109100351D01*
X154178000Y-109126261D01*
X154092585Y-109100351D01*
X153993000Y-109090543D01*
X153093000Y-109090543D01*
X152993415Y-109100351D01*
X152908000Y-109126261D01*
X152822585Y-109100351D01*
X152723000Y-109090543D01*
X151823000Y-109090543D01*
X151723415Y-109100351D01*
X151638000Y-109126261D01*
X151552585Y-109100351D01*
X151453000Y-109090543D01*
X150553000Y-109090543D01*
X150453415Y-109100351D01*
X150368000Y-109126261D01*
X150282585Y-109100351D01*
X150183000Y-109090543D01*
X149283000Y-109090543D01*
X149183415Y-109100351D01*
X149098000Y-109126261D01*
X149012585Y-109100351D01*
X148913000Y-109090543D01*
X148013000Y-109090543D01*
X147913415Y-109100351D01*
X147828000Y-109126261D01*
X147742585Y-109100351D01*
X147643000Y-109090543D01*
X146743000Y-109090543D01*
X146643415Y-109100351D01*
X146558000Y-109126261D01*
X146472585Y-109100351D01*
X146373000Y-109090543D01*
X145473000Y-109090543D01*
X145373415Y-109100351D01*
X145288000Y-109126261D01*
X145202585Y-109100351D01*
X145103000Y-109090543D01*
X144203000Y-109090543D01*
X144103415Y-109100351D01*
X144018002Y-109126261D01*
X143932585Y-109100350D01*
X143833000Y-109090542D01*
X143635000Y-109093000D01*
X143508000Y-109220000D01*
X143508000Y-109474000D01*
X143258000Y-109474000D01*
X143258000Y-109220000D01*
X143131000Y-109093000D01*
X142933000Y-109090542D01*
X142833415Y-109100350D01*
X142737656Y-109129398D01*
X142659913Y-109170954D01*
X142622119Y-109160827D01*
X142589250Y-109156500D01*
X142108457Y-109156500D01*
X142108457Y-109151000D01*
X142098649Y-109051415D01*
X142072739Y-108966000D01*
X142098649Y-108880585D01*
X142108457Y-108781000D01*
X142108457Y-107881000D01*
X142098649Y-107781415D01*
X142072739Y-107696000D01*
X142098649Y-107610585D01*
X142108457Y-107511000D01*
X142108457Y-106611000D01*
X142098649Y-106511415D01*
X142072739Y-106426000D01*
X142098649Y-106340585D01*
X142108457Y-106241000D01*
X142108457Y-105341000D01*
X142098649Y-105241415D01*
X142072739Y-105156000D01*
X142098649Y-105070585D01*
X142108457Y-104971000D01*
X142108457Y-104071000D01*
X142098649Y-103971415D01*
X142072739Y-103886000D01*
X142098649Y-103800585D01*
X142108457Y-103701000D01*
X142108457Y-103091000D01*
X145087542Y-103091000D01*
X145097350Y-103190585D01*
X145126398Y-103286344D01*
X145173570Y-103374595D01*
X145237052Y-103451948D01*
X145314405Y-103515430D01*
X145402656Y-103562602D01*
X145498415Y-103591650D01*
X145598000Y-103601458D01*
X147846000Y-103599000D01*
X147973000Y-103472000D01*
X147973000Y-100716000D01*
X148223000Y-100716000D01*
X148223000Y-103472000D01*
X148350000Y-103599000D01*
X150598000Y-103601458D01*
X150697585Y-103591650D01*
X150793344Y-103562602D01*
X150881595Y-103515430D01*
X150958948Y-103451948D01*
X151022430Y-103374595D01*
X151069602Y-103286344D01*
X151098650Y-103190585D01*
X151108458Y-103091000D01*
X151106000Y-100843000D01*
X150979000Y-100716000D01*
X148223000Y-100716000D01*
X147973000Y-100716000D01*
X145217000Y-100716000D01*
X145090000Y-100843000D01*
X145087542Y-103091000D01*
X142108457Y-103091000D01*
X142108457Y-102801000D01*
X142098649Y-102701415D01*
X142072739Y-102616000D01*
X142098649Y-102530585D01*
X142108457Y-102431000D01*
X142108457Y-101531000D01*
X142098649Y-101431415D01*
X142072739Y-101346000D01*
X142098649Y-101260585D01*
X142108457Y-101161000D01*
X142108457Y-100261000D01*
X142098649Y-100161415D01*
X142072739Y-100076000D01*
X142098649Y-99990585D01*
X142108457Y-99891000D01*
X142108457Y-98991000D01*
X142098649Y-98891415D01*
X142072739Y-98806000D01*
X142098649Y-98720585D01*
X142108457Y-98621000D01*
X142108457Y-98091000D01*
X145087542Y-98091000D01*
X145090000Y-100339000D01*
X145217000Y-100466000D01*
X147973000Y-100466000D01*
X147973000Y-97710000D01*
X148223000Y-97710000D01*
X148223000Y-100466000D01*
X150979000Y-100466000D01*
X151106000Y-100339000D01*
X151108458Y-98091000D01*
X151098650Y-97991415D01*
X151069602Y-97895656D01*
X151022430Y-97807405D01*
X150958948Y-97730052D01*
X150881595Y-97666570D01*
X150793344Y-97619398D01*
X150697585Y-97590350D01*
X150598000Y-97580542D01*
X148350000Y-97583000D01*
X148223000Y-97710000D01*
X147973000Y-97710000D01*
X147846000Y-97583000D01*
X145598000Y-97580542D01*
X145498415Y-97590350D01*
X145402656Y-97619398D01*
X145314405Y-97666570D01*
X145237052Y-97730052D01*
X145173570Y-97807405D01*
X145126398Y-97895656D01*
X145097350Y-97991415D01*
X145087542Y-98091000D01*
X142108457Y-98091000D01*
X142108457Y-97721000D01*
X142098649Y-97621415D01*
X142072739Y-97536000D01*
X142098649Y-97450585D01*
X142108457Y-97351000D01*
X142108457Y-96451000D01*
X142098649Y-96351415D01*
X142072739Y-96266000D01*
X142098649Y-96180585D01*
X142108457Y-96081000D01*
X142108457Y-95275400D01*
X142475418Y-95275400D01*
X142609754Y-95262169D01*
X142782119Y-95209883D01*
X142940971Y-95124974D01*
X143080207Y-95010707D01*
X143194474Y-94871471D01*
X143279383Y-94712619D01*
X143331669Y-94540254D01*
X143349324Y-94361000D01*
X143331669Y-94181746D01*
X143279383Y-94009381D01*
X143194474Y-93850529D01*
X143080207Y-93711293D01*
X142940971Y-93597026D01*
X142782119Y-93512117D01*
X142609754Y-93459831D01*
X142475418Y-93446600D01*
X142107286Y-93446600D01*
X142106000Y-93343000D01*
X141979000Y-93216000D01*
X141605000Y-93216000D01*
X141605000Y-92966000D01*
X141979000Y-92966000D01*
X142106000Y-92839000D01*
X142108458Y-92641000D01*
X142098650Y-92541415D01*
X142069602Y-92445656D01*
X142040289Y-92390817D01*
X142483106Y-91948000D01*
X154442894Y-91948000D01*
X155114006Y-92619112D01*
G37*
G04 #@! TD.AperFunction*
D53*
X155114006Y-92619112D02*
X155101905Y-92741978D01*
X155105101Y-92774427D01*
X155105100Y-109040861D01*
X155101905Y-109073300D01*
X155103603Y-109090543D01*
X154363000Y-109090543D01*
X154263415Y-109100351D01*
X154178000Y-109126261D01*
X154092585Y-109100351D01*
X153993000Y-109090543D01*
X153093000Y-109090543D01*
X152993415Y-109100351D01*
X152908000Y-109126261D01*
X152822585Y-109100351D01*
X152723000Y-109090543D01*
X151823000Y-109090543D01*
X151723415Y-109100351D01*
X151638000Y-109126261D01*
X151552585Y-109100351D01*
X151453000Y-109090543D01*
X150553000Y-109090543D01*
X150453415Y-109100351D01*
X150368000Y-109126261D01*
X150282585Y-109100351D01*
X150183000Y-109090543D01*
X149283000Y-109090543D01*
X149183415Y-109100351D01*
X149098000Y-109126261D01*
X149012585Y-109100351D01*
X148913000Y-109090543D01*
X148013000Y-109090543D01*
X147913415Y-109100351D01*
X147828000Y-109126261D01*
X147742585Y-109100351D01*
X147643000Y-109090543D01*
X146743000Y-109090543D01*
X146643415Y-109100351D01*
X146558000Y-109126261D01*
X146472585Y-109100351D01*
X146373000Y-109090543D01*
X145473000Y-109090543D01*
X145373415Y-109100351D01*
X145288000Y-109126261D01*
X145202585Y-109100351D01*
X145103000Y-109090543D01*
X144203000Y-109090543D01*
X144103415Y-109100351D01*
X144018002Y-109126261D01*
X143932585Y-109100350D01*
X143833000Y-109090542D01*
X143635000Y-109093000D01*
X143508000Y-109220000D01*
X143508000Y-109474000D01*
X143258000Y-109474000D01*
X143258000Y-109220000D01*
X143131000Y-109093000D01*
X142933000Y-109090542D01*
X142833415Y-109100350D01*
X142764909Y-109121131D01*
X142763408Y-109119302D01*
X142318908Y-108674802D01*
X142299662Y-108659008D01*
X142217259Y-108603948D01*
X142195303Y-108592212D01*
X142171479Y-108584985D01*
X142108457Y-108572449D01*
X142108457Y-107881000D01*
X142098649Y-107781415D01*
X142072739Y-107696000D01*
X142098649Y-107610585D01*
X142108457Y-107511000D01*
X142108457Y-106611000D01*
X142098649Y-106511415D01*
X142072739Y-106426000D01*
X142098649Y-106340585D01*
X142108457Y-106241000D01*
X142108457Y-105341000D01*
X142098649Y-105241415D01*
X142072739Y-105156000D01*
X142098649Y-105070585D01*
X142108457Y-104971000D01*
X142108457Y-104071000D01*
X142098649Y-103971415D01*
X142072739Y-103886000D01*
X142098649Y-103800585D01*
X142108457Y-103701000D01*
X142108457Y-103091000D01*
X145087542Y-103091000D01*
X145097350Y-103190585D01*
X145126398Y-103286344D01*
X145173570Y-103374595D01*
X145237052Y-103451948D01*
X145314405Y-103515430D01*
X145402656Y-103562602D01*
X145498415Y-103591650D01*
X145598000Y-103601458D01*
X147846000Y-103599000D01*
X147973000Y-103472000D01*
X147973000Y-100716000D01*
X148223000Y-100716000D01*
X148223000Y-103472000D01*
X148350000Y-103599000D01*
X150598000Y-103601458D01*
X150697585Y-103591650D01*
X150793344Y-103562602D01*
X150881595Y-103515430D01*
X150958948Y-103451948D01*
X151022430Y-103374595D01*
X151069602Y-103286344D01*
X151098650Y-103190585D01*
X151108458Y-103091000D01*
X151106000Y-100843000D01*
X150979000Y-100716000D01*
X148223000Y-100716000D01*
X147973000Y-100716000D01*
X145217000Y-100716000D01*
X145090000Y-100843000D01*
X145087542Y-103091000D01*
X142108457Y-103091000D01*
X142108457Y-102801000D01*
X142098649Y-102701415D01*
X142072739Y-102616000D01*
X142098649Y-102530585D01*
X142108457Y-102431000D01*
X142108457Y-101531000D01*
X142098649Y-101431415D01*
X142072739Y-101346000D01*
X142098649Y-101260585D01*
X142108457Y-101161000D01*
X142108457Y-100261000D01*
X142098649Y-100161415D01*
X142072739Y-100076000D01*
X142098649Y-99990585D01*
X142108457Y-99891000D01*
X142108457Y-98991000D01*
X142098649Y-98891415D01*
X142072739Y-98806000D01*
X142098649Y-98720585D01*
X142108457Y-98621000D01*
X142108457Y-98091000D01*
X145087542Y-98091000D01*
X145090000Y-100339000D01*
X145217000Y-100466000D01*
X147973000Y-100466000D01*
X147973000Y-97710000D01*
X148223000Y-97710000D01*
X148223000Y-100466000D01*
X150979000Y-100466000D01*
X151106000Y-100339000D01*
X151108458Y-98091000D01*
X151098650Y-97991415D01*
X151069602Y-97895656D01*
X151022430Y-97807405D01*
X150958948Y-97730052D01*
X150881595Y-97666570D01*
X150793344Y-97619398D01*
X150697585Y-97590350D01*
X150598000Y-97580542D01*
X148350000Y-97583000D01*
X148223000Y-97710000D01*
X147973000Y-97710000D01*
X147846000Y-97583000D01*
X145598000Y-97580542D01*
X145498415Y-97590350D01*
X145402656Y-97619398D01*
X145314405Y-97666570D01*
X145237052Y-97730052D01*
X145173570Y-97807405D01*
X145126398Y-97895656D01*
X145097350Y-97991415D01*
X145087542Y-98091000D01*
X142108457Y-98091000D01*
X142108457Y-97721000D01*
X142098649Y-97621415D01*
X142072739Y-97536000D01*
X142098649Y-97450585D01*
X142108457Y-97351000D01*
X142108457Y-96451000D01*
X142098649Y-96351415D01*
X142072739Y-96266000D01*
X142098649Y-96180585D01*
X142108457Y-96081000D01*
X142108457Y-95275400D01*
X142475418Y-95275400D01*
X142609754Y-95262169D01*
X142782119Y-95209883D01*
X142940971Y-95124974D01*
X143080207Y-95010707D01*
X143194474Y-94871471D01*
X143279383Y-94712619D01*
X143331669Y-94540254D01*
X143349324Y-94361000D01*
X143331669Y-94181746D01*
X143279383Y-94009381D01*
X143194474Y-93850529D01*
X143080207Y-93711293D01*
X142940971Y-93597026D01*
X142782119Y-93512117D01*
X142609754Y-93459831D01*
X142475418Y-93446600D01*
X142107286Y-93446600D01*
X142106000Y-93343000D01*
X141979000Y-93216000D01*
X141605000Y-93216000D01*
X141605000Y-92966000D01*
X141979000Y-92966000D01*
X142106000Y-92839000D01*
X142108458Y-92641000D01*
X142098650Y-92541415D01*
X142069602Y-92445656D01*
X142040289Y-92390817D01*
X142437065Y-91994041D01*
X142488061Y-91959967D01*
X142548221Y-91948000D01*
X154442894Y-91948000D01*
X155114006Y-92619112D01*
G04 #@! TA.AperFunction,Conductor*
D54*
G36*
X155114006Y-92619112D02*
G01*
X155101905Y-92741978D01*
X155105101Y-92774427D01*
X155105100Y-109040861D01*
X155101905Y-109073300D01*
X155103603Y-109090543D01*
X154363000Y-109090543D01*
X154263415Y-109100351D01*
X154178000Y-109126261D01*
X154092585Y-109100351D01*
X153993000Y-109090543D01*
X153093000Y-109090543D01*
X152993415Y-109100351D01*
X152908000Y-109126261D01*
X152822585Y-109100351D01*
X152723000Y-109090543D01*
X151823000Y-109090543D01*
X151723415Y-109100351D01*
X151638000Y-109126261D01*
X151552585Y-109100351D01*
X151453000Y-109090543D01*
X150553000Y-109090543D01*
X150453415Y-109100351D01*
X150368000Y-109126261D01*
X150282585Y-109100351D01*
X150183000Y-109090543D01*
X149283000Y-109090543D01*
X149183415Y-109100351D01*
X149098000Y-109126261D01*
X149012585Y-109100351D01*
X148913000Y-109090543D01*
X148013000Y-109090543D01*
X147913415Y-109100351D01*
X147828000Y-109126261D01*
X147742585Y-109100351D01*
X147643000Y-109090543D01*
X146743000Y-109090543D01*
X146643415Y-109100351D01*
X146558000Y-109126261D01*
X146472585Y-109100351D01*
X146373000Y-109090543D01*
X145473000Y-109090543D01*
X145373415Y-109100351D01*
X145288000Y-109126261D01*
X145202585Y-109100351D01*
X145103000Y-109090543D01*
X144203000Y-109090543D01*
X144103415Y-109100351D01*
X144018002Y-109126261D01*
X143932585Y-109100350D01*
X143833000Y-109090542D01*
X143635000Y-109093000D01*
X143508000Y-109220000D01*
X143508000Y-109474000D01*
X143258000Y-109474000D01*
X143258000Y-109220000D01*
X143131000Y-109093000D01*
X142933000Y-109090542D01*
X142833415Y-109100350D01*
X142764909Y-109121131D01*
X142763408Y-109119302D01*
X142318908Y-108674802D01*
X142299662Y-108659008D01*
X142217259Y-108603948D01*
X142195303Y-108592212D01*
X142171479Y-108584985D01*
X142108457Y-108572449D01*
X142108457Y-107881000D01*
X142098649Y-107781415D01*
X142072739Y-107696000D01*
X142098649Y-107610585D01*
X142108457Y-107511000D01*
X142108457Y-106611000D01*
X142098649Y-106511415D01*
X142072739Y-106426000D01*
X142098649Y-106340585D01*
X142108457Y-106241000D01*
X142108457Y-105341000D01*
X142098649Y-105241415D01*
X142072739Y-105156000D01*
X142098649Y-105070585D01*
X142108457Y-104971000D01*
X142108457Y-104071000D01*
X142098649Y-103971415D01*
X142072739Y-103886000D01*
X142098649Y-103800585D01*
X142108457Y-103701000D01*
X142108457Y-103091000D01*
X145087542Y-103091000D01*
X145097350Y-103190585D01*
X145126398Y-103286344D01*
X145173570Y-103374595D01*
X145237052Y-103451948D01*
X145314405Y-103515430D01*
X145402656Y-103562602D01*
X145498415Y-103591650D01*
X145598000Y-103601458D01*
X147846000Y-103599000D01*
X147973000Y-103472000D01*
X147973000Y-100716000D01*
X148223000Y-100716000D01*
X148223000Y-103472000D01*
X148350000Y-103599000D01*
X150598000Y-103601458D01*
X150697585Y-103591650D01*
X150793344Y-103562602D01*
X150881595Y-103515430D01*
X150958948Y-103451948D01*
X151022430Y-103374595D01*
X151069602Y-103286344D01*
X151098650Y-103190585D01*
X151108458Y-103091000D01*
X151106000Y-100843000D01*
X150979000Y-100716000D01*
X148223000Y-100716000D01*
X147973000Y-100716000D01*
X145217000Y-100716000D01*
X145090000Y-100843000D01*
X145087542Y-103091000D01*
X142108457Y-103091000D01*
X142108457Y-102801000D01*
X142098649Y-102701415D01*
X142072739Y-102616000D01*
X142098649Y-102530585D01*
X142108457Y-102431000D01*
X142108457Y-101531000D01*
X142098649Y-101431415D01*
X142072739Y-101346000D01*
X142098649Y-101260585D01*
X142108457Y-101161000D01*
X142108457Y-100261000D01*
X142098649Y-100161415D01*
X142072739Y-100076000D01*
X142098649Y-99990585D01*
X142108457Y-99891000D01*
X142108457Y-98991000D01*
X142098649Y-98891415D01*
X142072739Y-98806000D01*
X142098649Y-98720585D01*
X142108457Y-98621000D01*
X142108457Y-98091000D01*
X145087542Y-98091000D01*
X145090000Y-100339000D01*
X145217000Y-100466000D01*
X147973000Y-100466000D01*
X147973000Y-97710000D01*
X148223000Y-97710000D01*
X148223000Y-100466000D01*
X150979000Y-100466000D01*
X151106000Y-100339000D01*
X151108458Y-98091000D01*
X151098650Y-97991415D01*
X151069602Y-97895656D01*
X151022430Y-97807405D01*
X150958948Y-97730052D01*
X150881595Y-97666570D01*
X150793344Y-97619398D01*
X150697585Y-97590350D01*
X150598000Y-97580542D01*
X148350000Y-97583000D01*
X148223000Y-97710000D01*
X147973000Y-97710000D01*
X147846000Y-97583000D01*
X145598000Y-97580542D01*
X145498415Y-97590350D01*
X145402656Y-97619398D01*
X145314405Y-97666570D01*
X145237052Y-97730052D01*
X145173570Y-97807405D01*
X145126398Y-97895656D01*
X145097350Y-97991415D01*
X145087542Y-98091000D01*
X142108457Y-98091000D01*
X142108457Y-97721000D01*
X142098649Y-97621415D01*
X142072739Y-97536000D01*
X142098649Y-97450585D01*
X142108457Y-97351000D01*
X142108457Y-96451000D01*
X142098649Y-96351415D01*
X142072739Y-96266000D01*
X142098649Y-96180585D01*
X142108457Y-96081000D01*
X142108457Y-95275400D01*
X142475418Y-95275400D01*
X142609754Y-95262169D01*
X142782119Y-95209883D01*
X142940971Y-95124974D01*
X143080207Y-95010707D01*
X143194474Y-94871471D01*
X143279383Y-94712619D01*
X143331669Y-94540254D01*
X143349324Y-94361000D01*
X143331669Y-94181746D01*
X143279383Y-94009381D01*
X143194474Y-93850529D01*
X143080207Y-93711293D01*
X142940971Y-93597026D01*
X142782119Y-93512117D01*
X142609754Y-93459831D01*
X142475418Y-93446600D01*
X142107286Y-93446600D01*
X142106000Y-93343000D01*
X141979000Y-93216000D01*
X141605000Y-93216000D01*
X141605000Y-92966000D01*
X141979000Y-92966000D01*
X142106000Y-92839000D01*
X142108458Y-92641000D01*
X142098650Y-92541415D01*
X142069602Y-92445656D01*
X142040289Y-92390817D01*
X142437065Y-91994041D01*
X142488061Y-91959967D01*
X142548221Y-91948000D01*
X154442894Y-91948000D01*
X155114006Y-92619112D01*
G37*
G04 #@! TD.AperFunction*
M02*
