M48
; DRILL file {KiCad (5.1.9)-1} date 11/13/21 12:48:44
; FORMAT={-:-/ absolute / metric / decimal}
; #@! TF.CreationDate,2021-11-13T12:48:44+09:00
; #@! TF.GenerationSoftware,Kicad,Pcbnew,(5.1.9)-1
; #@! TF.FileFunction,Plated,1,4,PTH
FMAT,2
METRIC
T1C0.300
T2C0.400
T3C0.800
T4C0.950
T5C1.000
T6C1.016
T7C1.500
T8C3.048
%
G90
G05
T1
X119.38Y-93.599
X119.493Y-76.821
X121.158Y-78.168
X122.668Y-76.821
X124.015Y-101.346
X124.333Y-95.948
X124.968Y-78.168
X125.09Y-116.781
X125.843Y-76.821
X129.018Y-76.821
X130.683Y-104.203
X132.193Y-76.821
X132.905Y-86.741
X133.858Y-86.741
X136.395Y-101.666
X136.395Y-103.566
X159.576Y-102.616
X159.576Y-103.569
X161.798Y-99.441
X162.433Y-100.711
X162.433Y-101.663
X163.83Y-93.726
X163.83Y-94.678
X166.116Y-89.599
X173.228Y-87.058
X173.228Y-88.328
X177.038Y-119.126
X177.99Y-98.806
X182.753Y-117.538
X183.388Y-105.474
X184.34Y-106.426
X185.293Y-105.474
X185.293Y-107.378
X186.563Y-105.791
X187.833Y-105.791
X189.103Y-105.791
X192.518Y-90.311
X192.518Y-95.391
X196.723Y-101.981
T2
X104.331Y-87.058
X104.648Y-69.596
X110.998Y-69.278
X116.078Y-69.278
X116.078Y-85.153
X116.078Y-89.599
X120.523Y-90.233
X121.158Y-69.278
X121.793Y-90.233
X124.015Y-82.296
X125.285Y-82.296
X128.46Y-78.486
X130.048Y-96.266
X130.365Y-88.011
X131.0Y-93.091
X131.318Y-96.266
X131.636Y-94.043
X132.27Y-93.091
X133.858Y-76.898
X133.858Y-80.391
X133.858Y-81.661
X133.858Y-82.931
X133.858Y-84.201
X138.62Y-69.278
X142.113Y-76.898
X142.43Y-93.091
X142.43Y-94.361
X143.383Y-108.966
X144.335Y-99.758
X147.193Y-69.278
X148.145Y-96.584
X148.145Y-104.521
X151.956Y-99.758
X153.543Y-108.331
X154.495Y-93.091
X155.448Y-69.278
X157.988Y-116.586
X159.258Y-116.586
X159.576Y-93.726
X160.528Y-116.586
X161.253Y-111.278
X161.253Y-113.003
X163.068Y-69.278
X165.018Y-115.271
X167.195Y-120.396
X168.148Y-110.553
X169.418Y-70.231
X169.418Y-71.501
X171.641Y-120.396
X173.818Y-115.361
X175.768Y-69.278
X177.99Y-91.186
X177.99Y-96.266
X178.308Y-87.376
X178.943Y-110.871
X178.943Y-112.141
X179.578Y-87.376
X182.118Y-86.741
X182.118Y-96.266
X183.388Y-69.278
X183.706Y-102.298
X184.023Y-93.726
X184.023Y-115.951
X184.658Y-91.186
X184.975Y-95.631
X185.293Y-115.951
X185.928Y-91.186
X185.928Y-93.726
X187.198Y-93.726
X187.198Y-94.996
X189.308Y-99.553
X189.308Y-101.141
X191.008Y-69.278
X194.5Y-99.441
X196.088Y-69.278
X198.628Y-69.278
X198.628Y-88.646
X202.438Y-83.566
X202.438Y-88.646
X202.438Y-98.806
T3
X118.618Y-107.506
X118.618Y-109.506
X118.618Y-111.506
T4
X110.998Y-72.136
X110.998Y-74.636
X110.998Y-77.136
X110.998Y-79.636
X110.998Y-86.106
X110.998Y-88.606
X110.998Y-91.106
X110.998Y-93.606
X110.998Y-100.076
X110.998Y-102.576
X110.998Y-105.076
X195.453Y-89.916
X195.453Y-92.416
X195.453Y-94.916
X195.453Y-97.416
T5
X110.998Y-112.776
X110.998Y-115.276
X119.888Y-98.806
X122.428Y-98.806
X124.968Y-98.806
X127.508Y-98.806
X127.508Y-112.141
X130.048Y-98.806
X130.048Y-112.141
X132.588Y-112.141
X142.748Y-115.316
X144.018Y-76.581
X145.288Y-115.316
X146.558Y-76.581
X147.828Y-115.316
X149.098Y-76.581
X150.368Y-115.316
X151.638Y-76.581
X152.908Y-115.316
X154.178Y-76.581
X154.178Y-119.126
X155.448Y-115.316
X156.718Y-119.126
X159.258Y-119.126
X161.798Y-119.126
X166.878Y-91.186
X166.878Y-93.726
X166.878Y-96.266
X169.418Y-91.186
X169.418Y-93.726
X169.418Y-96.266
X175.768Y-79.756
X175.768Y-84.836
X175.768Y-87.376
X175.768Y-89.916
X175.768Y-92.456
X175.768Y-94.996
X175.768Y-97.536
X175.768Y-100.076
X175.768Y-102.616
X177.038Y-108.966
X177.038Y-111.506
X177.038Y-114.046
X178.308Y-79.756
X180.848Y-79.756
X183.388Y-79.756
X185.928Y-79.756
X188.468Y-79.756
X194.183Y-77.066
X194.183Y-83.566
X197.358Y-70.866
X197.358Y-106.426
X197.358Y-108.966
X197.358Y-111.506
X197.358Y-114.046
X198.683Y-77.066
X198.683Y-83.566
X199.898Y-70.866
X199.898Y-106.426
X199.898Y-108.966
X199.898Y-111.506
X199.898Y-114.046
T6
X122.174Y-70.866
X124.714Y-70.866
X127.254Y-70.866
X129.794Y-70.866
X131.318Y-119.126
X132.334Y-70.866
X133.858Y-119.126
X134.874Y-70.866
X136.398Y-119.126
X137.414Y-70.866
X138.938Y-119.126
X139.954Y-70.866
X141.478Y-119.126
X142.494Y-70.866
X144.018Y-119.126
X145.034Y-70.866
X146.558Y-119.126
X149.098Y-70.866
X149.098Y-119.126
X151.638Y-70.866
X154.178Y-70.866
X156.718Y-70.866
X159.258Y-70.866
X161.798Y-70.866
X164.338Y-70.866
X166.878Y-70.866
X171.958Y-70.866
X174.498Y-70.866
X177.038Y-70.866
X179.578Y-70.866
X182.118Y-70.866
X184.658Y-70.866
X187.198Y-70.866
X189.738Y-70.866
T7
X118.618Y-105.406
X118.618Y-113.606
T8
X117.348Y-119.126
X118.618Y-70.866
X169.418Y-86.106
X193.548Y-70.866
X199.898Y-119.126
T0
M30
