G04 #@! TF.GenerationSoftware,KiCad,Pcbnew,(5.1.9)-1*
G04 #@! TF.CreationDate,2021-11-13T13:02:01+09:00*
G04 #@! TF.ProjectId,MainBoard2022_mega,4d61696e-426f-4617-9264-323032325f6d,rev?*
G04 #@! TF.SameCoordinates,Original*
G04 #@! TF.FileFunction,Paste,Bot*
G04 #@! TF.FilePolarity,Positive*
%FSLAX46Y46*%
G04 Gerber Fmt 4.6, Leading zero omitted, Abs format (unit mm)*
G04 Created by KiCad (PCBNEW (5.1.9)-1) date 2021-11-13 13:02:01*
%MOMM*%
%LPD*%
G01*
G04 APERTURE LIST*
%ADD10R,1.900000X0.400000*%
%ADD11R,0.900000X0.800000*%
%ADD12R,0.700000X1.000000*%
%ADD13R,3.800000X2.000000*%
%ADD14R,1.500000X2.000000*%
%ADD15R,1.300000X3.400000*%
G04 APERTURE END LIST*
D10*
X192278000Y-100006000D03*
X192278000Y-98806000D03*
X192278000Y-97606000D03*
G36*
G01*
X148593000Y-73803500D02*
X148593000Y-74278500D01*
G75*
G02*
X148355500Y-74516000I-237500J0D01*
G01*
X147855500Y-74516000D01*
G75*
G02*
X147618000Y-74278500I0J237500D01*
G01*
X147618000Y-73803500D01*
G75*
G02*
X147855500Y-73566000I237500J0D01*
G01*
X148355500Y-73566000D01*
G75*
G02*
X148593000Y-73803500I0J-237500D01*
G01*
G37*
G36*
G01*
X146768000Y-73803500D02*
X146768000Y-74278500D01*
G75*
G02*
X146530500Y-74516000I-237500J0D01*
G01*
X146030500Y-74516000D01*
G75*
G02*
X145793000Y-74278500I0J237500D01*
G01*
X145793000Y-73803500D01*
G75*
G02*
X146030500Y-73566000I237500J0D01*
G01*
X146530500Y-73566000D01*
G75*
G02*
X146768000Y-73803500I0J-237500D01*
G01*
G37*
G36*
G01*
X198203000Y-101743500D02*
X198203000Y-102218500D01*
G75*
G02*
X197965500Y-102456000I-237500J0D01*
G01*
X197465500Y-102456000D01*
G75*
G02*
X197228000Y-102218500I0J237500D01*
G01*
X197228000Y-101743500D01*
G75*
G02*
X197465500Y-101506000I237500J0D01*
G01*
X197965500Y-101506000D01*
G75*
G02*
X198203000Y-101743500I0J-237500D01*
G01*
G37*
G36*
G01*
X200028000Y-101743500D02*
X200028000Y-102218500D01*
G75*
G02*
X199790500Y-102456000I-237500J0D01*
G01*
X199290500Y-102456000D01*
G75*
G02*
X199053000Y-102218500I0J237500D01*
G01*
X199053000Y-101743500D01*
G75*
G02*
X199290500Y-101506000I237500J0D01*
G01*
X199790500Y-101506000D01*
G75*
G02*
X200028000Y-101743500I0J-237500D01*
G01*
G37*
G36*
G01*
X108220500Y-77086000D02*
X108695500Y-77086000D01*
G75*
G02*
X108933000Y-77323500I0J-237500D01*
G01*
X108933000Y-77923500D01*
G75*
G02*
X108695500Y-78161000I-237500J0D01*
G01*
X108220500Y-78161000D01*
G75*
G02*
X107983000Y-77923500I0J237500D01*
G01*
X107983000Y-77323500D01*
G75*
G02*
X108220500Y-77086000I237500J0D01*
G01*
G37*
G36*
G01*
X108220500Y-78811000D02*
X108695500Y-78811000D01*
G75*
G02*
X108933000Y-79048500I0J-237500D01*
G01*
X108933000Y-79648500D01*
G75*
G02*
X108695500Y-79886000I-237500J0D01*
G01*
X108220500Y-79886000D01*
G75*
G02*
X107983000Y-79648500I0J237500D01*
G01*
X107983000Y-79048500D01*
G75*
G02*
X108220500Y-78811000I237500J0D01*
G01*
G37*
G36*
G01*
X122298000Y-106028500D02*
X122298000Y-105553500D01*
G75*
G02*
X122535500Y-105316000I237500J0D01*
G01*
X123135500Y-105316000D01*
G75*
G02*
X123373000Y-105553500I0J-237500D01*
G01*
X123373000Y-106028500D01*
G75*
G02*
X123135500Y-106266000I-237500J0D01*
G01*
X122535500Y-106266000D01*
G75*
G02*
X122298000Y-106028500I0J237500D01*
G01*
G37*
G36*
G01*
X124023000Y-106028500D02*
X124023000Y-105553500D01*
G75*
G02*
X124260500Y-105316000I237500J0D01*
G01*
X124860500Y-105316000D01*
G75*
G02*
X125098000Y-105553500I0J-237500D01*
G01*
X125098000Y-106028500D01*
G75*
G02*
X124860500Y-106266000I-237500J0D01*
G01*
X124260500Y-106266000D01*
G75*
G02*
X124023000Y-106028500I0J237500D01*
G01*
G37*
D11*
X193478000Y-113096000D03*
X193478000Y-114996000D03*
X191078000Y-114046000D03*
G36*
G01*
X190333000Y-88496000D02*
X190333000Y-88796000D01*
G75*
G02*
X190183000Y-88946000I-150000J0D01*
G01*
X188433000Y-88946000D01*
G75*
G02*
X188283000Y-88796000I0J150000D01*
G01*
X188283000Y-88496000D01*
G75*
G02*
X188433000Y-88346000I150000J0D01*
G01*
X190183000Y-88346000D01*
G75*
G02*
X190333000Y-88496000I0J-150000D01*
G01*
G37*
G36*
G01*
X190333000Y-89766000D02*
X190333000Y-90066000D01*
G75*
G02*
X190183000Y-90216000I-150000J0D01*
G01*
X188433000Y-90216000D01*
G75*
G02*
X188283000Y-90066000I0J150000D01*
G01*
X188283000Y-89766000D01*
G75*
G02*
X188433000Y-89616000I150000J0D01*
G01*
X190183000Y-89616000D01*
G75*
G02*
X190333000Y-89766000I0J-150000D01*
G01*
G37*
G36*
G01*
X190333000Y-91036000D02*
X190333000Y-91336000D01*
G75*
G02*
X190183000Y-91486000I-150000J0D01*
G01*
X188433000Y-91486000D01*
G75*
G02*
X188283000Y-91336000I0J150000D01*
G01*
X188283000Y-91036000D01*
G75*
G02*
X188433000Y-90886000I150000J0D01*
G01*
X190183000Y-90886000D01*
G75*
G02*
X190333000Y-91036000I0J-150000D01*
G01*
G37*
G36*
G01*
X190333000Y-92306000D02*
X190333000Y-92606000D01*
G75*
G02*
X190183000Y-92756000I-150000J0D01*
G01*
X188433000Y-92756000D01*
G75*
G02*
X188283000Y-92606000I0J150000D01*
G01*
X188283000Y-92306000D01*
G75*
G02*
X188433000Y-92156000I150000J0D01*
G01*
X190183000Y-92156000D01*
G75*
G02*
X190333000Y-92306000I0J-150000D01*
G01*
G37*
G36*
G01*
X190333000Y-93576000D02*
X190333000Y-93876000D01*
G75*
G02*
X190183000Y-94026000I-150000J0D01*
G01*
X188433000Y-94026000D01*
G75*
G02*
X188283000Y-93876000I0J150000D01*
G01*
X188283000Y-93576000D01*
G75*
G02*
X188433000Y-93426000I150000J0D01*
G01*
X190183000Y-93426000D01*
G75*
G02*
X190333000Y-93576000I0J-150000D01*
G01*
G37*
G36*
G01*
X190333000Y-94846000D02*
X190333000Y-95146000D01*
G75*
G02*
X190183000Y-95296000I-150000J0D01*
G01*
X188433000Y-95296000D01*
G75*
G02*
X188283000Y-95146000I0J150000D01*
G01*
X188283000Y-94846000D01*
G75*
G02*
X188433000Y-94696000I150000J0D01*
G01*
X190183000Y-94696000D01*
G75*
G02*
X190333000Y-94846000I0J-150000D01*
G01*
G37*
G36*
G01*
X190333000Y-96116000D02*
X190333000Y-96416000D01*
G75*
G02*
X190183000Y-96566000I-150000J0D01*
G01*
X188433000Y-96566000D01*
G75*
G02*
X188283000Y-96416000I0J150000D01*
G01*
X188283000Y-96116000D01*
G75*
G02*
X188433000Y-95966000I150000J0D01*
G01*
X190183000Y-95966000D01*
G75*
G02*
X190333000Y-96116000I0J-150000D01*
G01*
G37*
G36*
G01*
X190333000Y-97386000D02*
X190333000Y-97686000D01*
G75*
G02*
X190183000Y-97836000I-150000J0D01*
G01*
X188433000Y-97836000D01*
G75*
G02*
X188283000Y-97686000I0J150000D01*
G01*
X188283000Y-97386000D01*
G75*
G02*
X188433000Y-97236000I150000J0D01*
G01*
X190183000Y-97236000D01*
G75*
G02*
X190333000Y-97386000I0J-150000D01*
G01*
G37*
G36*
G01*
X190333000Y-98656000D02*
X190333000Y-98956000D01*
G75*
G02*
X190183000Y-99106000I-150000J0D01*
G01*
X188433000Y-99106000D01*
G75*
G02*
X188283000Y-98956000I0J150000D01*
G01*
X188283000Y-98656000D01*
G75*
G02*
X188433000Y-98506000I150000J0D01*
G01*
X190183000Y-98506000D01*
G75*
G02*
X190333000Y-98656000I0J-150000D01*
G01*
G37*
G36*
G01*
X181033000Y-98656000D02*
X181033000Y-98956000D01*
G75*
G02*
X180883000Y-99106000I-150000J0D01*
G01*
X179133000Y-99106000D01*
G75*
G02*
X178983000Y-98956000I0J150000D01*
G01*
X178983000Y-98656000D01*
G75*
G02*
X179133000Y-98506000I150000J0D01*
G01*
X180883000Y-98506000D01*
G75*
G02*
X181033000Y-98656000I0J-150000D01*
G01*
G37*
G36*
G01*
X181033000Y-97386000D02*
X181033000Y-97686000D01*
G75*
G02*
X180883000Y-97836000I-150000J0D01*
G01*
X179133000Y-97836000D01*
G75*
G02*
X178983000Y-97686000I0J150000D01*
G01*
X178983000Y-97386000D01*
G75*
G02*
X179133000Y-97236000I150000J0D01*
G01*
X180883000Y-97236000D01*
G75*
G02*
X181033000Y-97386000I0J-150000D01*
G01*
G37*
G36*
G01*
X181033000Y-96116000D02*
X181033000Y-96416000D01*
G75*
G02*
X180883000Y-96566000I-150000J0D01*
G01*
X179133000Y-96566000D01*
G75*
G02*
X178983000Y-96416000I0J150000D01*
G01*
X178983000Y-96116000D01*
G75*
G02*
X179133000Y-95966000I150000J0D01*
G01*
X180883000Y-95966000D01*
G75*
G02*
X181033000Y-96116000I0J-150000D01*
G01*
G37*
G36*
G01*
X181033000Y-94846000D02*
X181033000Y-95146000D01*
G75*
G02*
X180883000Y-95296000I-150000J0D01*
G01*
X179133000Y-95296000D01*
G75*
G02*
X178983000Y-95146000I0J150000D01*
G01*
X178983000Y-94846000D01*
G75*
G02*
X179133000Y-94696000I150000J0D01*
G01*
X180883000Y-94696000D01*
G75*
G02*
X181033000Y-94846000I0J-150000D01*
G01*
G37*
G36*
G01*
X181033000Y-93576000D02*
X181033000Y-93876000D01*
G75*
G02*
X180883000Y-94026000I-150000J0D01*
G01*
X179133000Y-94026000D01*
G75*
G02*
X178983000Y-93876000I0J150000D01*
G01*
X178983000Y-93576000D01*
G75*
G02*
X179133000Y-93426000I150000J0D01*
G01*
X180883000Y-93426000D01*
G75*
G02*
X181033000Y-93576000I0J-150000D01*
G01*
G37*
G36*
G01*
X181033000Y-92306000D02*
X181033000Y-92606000D01*
G75*
G02*
X180883000Y-92756000I-150000J0D01*
G01*
X179133000Y-92756000D01*
G75*
G02*
X178983000Y-92606000I0J150000D01*
G01*
X178983000Y-92306000D01*
G75*
G02*
X179133000Y-92156000I150000J0D01*
G01*
X180883000Y-92156000D01*
G75*
G02*
X181033000Y-92306000I0J-150000D01*
G01*
G37*
G36*
G01*
X181033000Y-91036000D02*
X181033000Y-91336000D01*
G75*
G02*
X180883000Y-91486000I-150000J0D01*
G01*
X179133000Y-91486000D01*
G75*
G02*
X178983000Y-91336000I0J150000D01*
G01*
X178983000Y-91036000D01*
G75*
G02*
X179133000Y-90886000I150000J0D01*
G01*
X180883000Y-90886000D01*
G75*
G02*
X181033000Y-91036000I0J-150000D01*
G01*
G37*
G36*
G01*
X181033000Y-89766000D02*
X181033000Y-90066000D01*
G75*
G02*
X180883000Y-90216000I-150000J0D01*
G01*
X179133000Y-90216000D01*
G75*
G02*
X178983000Y-90066000I0J150000D01*
G01*
X178983000Y-89766000D01*
G75*
G02*
X179133000Y-89616000I150000J0D01*
G01*
X180883000Y-89616000D01*
G75*
G02*
X181033000Y-89766000I0J-150000D01*
G01*
G37*
G36*
G01*
X181033000Y-88496000D02*
X181033000Y-88796000D01*
G75*
G02*
X180883000Y-88946000I-150000J0D01*
G01*
X179133000Y-88946000D01*
G75*
G02*
X178983000Y-88796000I0J150000D01*
G01*
X178983000Y-88496000D01*
G75*
G02*
X179133000Y-88346000I150000J0D01*
G01*
X180883000Y-88346000D01*
G75*
G02*
X181033000Y-88496000I0J-150000D01*
G01*
G37*
D12*
X126558000Y-81731000D03*
X128458000Y-81731000D03*
X127508000Y-84131000D03*
D13*
X127508000Y-86766000D03*
D14*
X127508000Y-93066000D03*
X125208000Y-93066000D03*
X129808000Y-93066000D03*
G36*
G01*
X199748000Y-90276000D02*
X200048000Y-90276000D01*
G75*
G02*
X200198000Y-90426000I0J-150000D01*
G01*
X200198000Y-92076000D01*
G75*
G02*
X200048000Y-92226000I-150000J0D01*
G01*
X199748000Y-92226000D01*
G75*
G02*
X199598000Y-92076000I0J150000D01*
G01*
X199598000Y-90426000D01*
G75*
G02*
X199748000Y-90276000I150000J0D01*
G01*
G37*
G36*
G01*
X201018000Y-90276000D02*
X201318000Y-90276000D01*
G75*
G02*
X201468000Y-90426000I0J-150000D01*
G01*
X201468000Y-92076000D01*
G75*
G02*
X201318000Y-92226000I-150000J0D01*
G01*
X201018000Y-92226000D01*
G75*
G02*
X200868000Y-92076000I0J150000D01*
G01*
X200868000Y-90426000D01*
G75*
G02*
X201018000Y-90276000I150000J0D01*
G01*
G37*
G36*
G01*
X202288000Y-90276000D02*
X202588000Y-90276000D01*
G75*
G02*
X202738000Y-90426000I0J-150000D01*
G01*
X202738000Y-92076000D01*
G75*
G02*
X202588000Y-92226000I-150000J0D01*
G01*
X202288000Y-92226000D01*
G75*
G02*
X202138000Y-92076000I0J150000D01*
G01*
X202138000Y-90426000D01*
G75*
G02*
X202288000Y-90276000I150000J0D01*
G01*
G37*
G36*
G01*
X203558000Y-90276000D02*
X203858000Y-90276000D01*
G75*
G02*
X204008000Y-90426000I0J-150000D01*
G01*
X204008000Y-92076000D01*
G75*
G02*
X203858000Y-92226000I-150000J0D01*
G01*
X203558000Y-92226000D01*
G75*
G02*
X203408000Y-92076000I0J150000D01*
G01*
X203408000Y-90426000D01*
G75*
G02*
X203558000Y-90276000I150000J0D01*
G01*
G37*
G36*
G01*
X203558000Y-95226000D02*
X203858000Y-95226000D01*
G75*
G02*
X204008000Y-95376000I0J-150000D01*
G01*
X204008000Y-97026000D01*
G75*
G02*
X203858000Y-97176000I-150000J0D01*
G01*
X203558000Y-97176000D01*
G75*
G02*
X203408000Y-97026000I0J150000D01*
G01*
X203408000Y-95376000D01*
G75*
G02*
X203558000Y-95226000I150000J0D01*
G01*
G37*
G36*
G01*
X202288000Y-95226000D02*
X202588000Y-95226000D01*
G75*
G02*
X202738000Y-95376000I0J-150000D01*
G01*
X202738000Y-97026000D01*
G75*
G02*
X202588000Y-97176000I-150000J0D01*
G01*
X202288000Y-97176000D01*
G75*
G02*
X202138000Y-97026000I0J150000D01*
G01*
X202138000Y-95376000D01*
G75*
G02*
X202288000Y-95226000I150000J0D01*
G01*
G37*
G36*
G01*
X201018000Y-95226000D02*
X201318000Y-95226000D01*
G75*
G02*
X201468000Y-95376000I0J-150000D01*
G01*
X201468000Y-97026000D01*
G75*
G02*
X201318000Y-97176000I-150000J0D01*
G01*
X201018000Y-97176000D01*
G75*
G02*
X200868000Y-97026000I0J150000D01*
G01*
X200868000Y-95376000D01*
G75*
G02*
X201018000Y-95226000I150000J0D01*
G01*
G37*
G36*
G01*
X199748000Y-95226000D02*
X200048000Y-95226000D01*
G75*
G02*
X200198000Y-95376000I0J-150000D01*
G01*
X200198000Y-97026000D01*
G75*
G02*
X200048000Y-97176000I-150000J0D01*
G01*
X199748000Y-97176000D01*
G75*
G02*
X199598000Y-97026000I0J150000D01*
G01*
X199598000Y-95376000D01*
G75*
G02*
X199748000Y-95226000I150000J0D01*
G01*
G37*
G36*
G01*
X121555500Y-74546000D02*
X122030500Y-74546000D01*
G75*
G02*
X122268000Y-74783500I0J-237500D01*
G01*
X122268000Y-75283500D01*
G75*
G02*
X122030500Y-75521000I-237500J0D01*
G01*
X121555500Y-75521000D01*
G75*
G02*
X121318000Y-75283500I0J237500D01*
G01*
X121318000Y-74783500D01*
G75*
G02*
X121555500Y-74546000I237500J0D01*
G01*
G37*
G36*
G01*
X121555500Y-76371000D02*
X122030500Y-76371000D01*
G75*
G02*
X122268000Y-76608500I0J-237500D01*
G01*
X122268000Y-77108500D01*
G75*
G02*
X122030500Y-77346000I-237500J0D01*
G01*
X121555500Y-77346000D01*
G75*
G02*
X121318000Y-77108500I0J237500D01*
G01*
X121318000Y-76608500D01*
G75*
G02*
X121555500Y-76371000I237500J0D01*
G01*
G37*
G36*
G01*
X124730500Y-74546000D02*
X125205500Y-74546000D01*
G75*
G02*
X125443000Y-74783500I0J-237500D01*
G01*
X125443000Y-75283500D01*
G75*
G02*
X125205500Y-75521000I-237500J0D01*
G01*
X124730500Y-75521000D01*
G75*
G02*
X124493000Y-75283500I0J237500D01*
G01*
X124493000Y-74783500D01*
G75*
G02*
X124730500Y-74546000I237500J0D01*
G01*
G37*
G36*
G01*
X124730500Y-76371000D02*
X125205500Y-76371000D01*
G75*
G02*
X125443000Y-76608500I0J-237500D01*
G01*
X125443000Y-77108500D01*
G75*
G02*
X125205500Y-77346000I-237500J0D01*
G01*
X124730500Y-77346000D01*
G75*
G02*
X124493000Y-77108500I0J237500D01*
G01*
X124493000Y-76608500D01*
G75*
G02*
X124730500Y-76371000I237500J0D01*
G01*
G37*
G36*
G01*
X127905500Y-74546000D02*
X128380500Y-74546000D01*
G75*
G02*
X128618000Y-74783500I0J-237500D01*
G01*
X128618000Y-75283500D01*
G75*
G02*
X128380500Y-75521000I-237500J0D01*
G01*
X127905500Y-75521000D01*
G75*
G02*
X127668000Y-75283500I0J237500D01*
G01*
X127668000Y-74783500D01*
G75*
G02*
X127905500Y-74546000I237500J0D01*
G01*
G37*
G36*
G01*
X127905500Y-76371000D02*
X128380500Y-76371000D01*
G75*
G02*
X128618000Y-76608500I0J-237500D01*
G01*
X128618000Y-77108500D01*
G75*
G02*
X128380500Y-77346000I-237500J0D01*
G01*
X127905500Y-77346000D01*
G75*
G02*
X127668000Y-77108500I0J237500D01*
G01*
X127668000Y-76608500D01*
G75*
G02*
X127905500Y-76371000I237500J0D01*
G01*
G37*
G36*
G01*
X131080500Y-74546000D02*
X131555500Y-74546000D01*
G75*
G02*
X131793000Y-74783500I0J-237500D01*
G01*
X131793000Y-75283500D01*
G75*
G02*
X131555500Y-75521000I-237500J0D01*
G01*
X131080500Y-75521000D01*
G75*
G02*
X130843000Y-75283500I0J237500D01*
G01*
X130843000Y-74783500D01*
G75*
G02*
X131080500Y-74546000I237500J0D01*
G01*
G37*
G36*
G01*
X131080500Y-76371000D02*
X131555500Y-76371000D01*
G75*
G02*
X131793000Y-76608500I0J-237500D01*
G01*
X131793000Y-77108500D01*
G75*
G02*
X131555500Y-77346000I-237500J0D01*
G01*
X131080500Y-77346000D01*
G75*
G02*
X130843000Y-77108500I0J237500D01*
G01*
X130843000Y-76608500D01*
G75*
G02*
X131080500Y-76371000I237500J0D01*
G01*
G37*
G36*
G01*
X118380500Y-74546000D02*
X118855500Y-74546000D01*
G75*
G02*
X119093000Y-74783500I0J-237500D01*
G01*
X119093000Y-75283500D01*
G75*
G02*
X118855500Y-75521000I-237500J0D01*
G01*
X118380500Y-75521000D01*
G75*
G02*
X118143000Y-75283500I0J237500D01*
G01*
X118143000Y-74783500D01*
G75*
G02*
X118380500Y-74546000I237500J0D01*
G01*
G37*
G36*
G01*
X118380500Y-76371000D02*
X118855500Y-76371000D01*
G75*
G02*
X119093000Y-76608500I0J-237500D01*
G01*
X119093000Y-77108500D01*
G75*
G02*
X118855500Y-77346000I-237500J0D01*
G01*
X118380500Y-77346000D01*
G75*
G02*
X118143000Y-77108500I0J237500D01*
G01*
X118143000Y-76608500D01*
G75*
G02*
X118380500Y-76371000I237500J0D01*
G01*
G37*
G36*
G01*
X190878000Y-111108500D02*
X190878000Y-110633500D01*
G75*
G02*
X191115500Y-110396000I237500J0D01*
G01*
X191615500Y-110396000D01*
G75*
G02*
X191853000Y-110633500I0J-237500D01*
G01*
X191853000Y-111108500D01*
G75*
G02*
X191615500Y-111346000I-237500J0D01*
G01*
X191115500Y-111346000D01*
G75*
G02*
X190878000Y-111108500I0J237500D01*
G01*
G37*
G36*
G01*
X192703000Y-111108500D02*
X192703000Y-110633500D01*
G75*
G02*
X192940500Y-110396000I237500J0D01*
G01*
X193440500Y-110396000D01*
G75*
G02*
X193678000Y-110633500I0J-237500D01*
G01*
X193678000Y-111108500D01*
G75*
G02*
X193440500Y-111346000I-237500J0D01*
G01*
X192940500Y-111346000D01*
G75*
G02*
X192703000Y-111108500I0J237500D01*
G01*
G37*
G36*
G01*
X191245500Y-82426000D02*
X190770500Y-82426000D01*
G75*
G02*
X190533000Y-82188500I0J237500D01*
G01*
X190533000Y-81688500D01*
G75*
G02*
X190770500Y-81451000I237500J0D01*
G01*
X191245500Y-81451000D01*
G75*
G02*
X191483000Y-81688500I0J-237500D01*
G01*
X191483000Y-82188500D01*
G75*
G02*
X191245500Y-82426000I-237500J0D01*
G01*
G37*
G36*
G01*
X191245500Y-80601000D02*
X190770500Y-80601000D01*
G75*
G02*
X190533000Y-80363500I0J237500D01*
G01*
X190533000Y-79863500D01*
G75*
G02*
X190770500Y-79626000I237500J0D01*
G01*
X191245500Y-79626000D01*
G75*
G02*
X191483000Y-79863500I0J-237500D01*
G01*
X191483000Y-80363500D01*
G75*
G02*
X191245500Y-80601000I-237500J0D01*
G01*
G37*
G36*
G01*
X191880500Y-92586000D02*
X191405500Y-92586000D01*
G75*
G02*
X191168000Y-92348500I0J237500D01*
G01*
X191168000Y-91848500D01*
G75*
G02*
X191405500Y-91611000I237500J0D01*
G01*
X191880500Y-91611000D01*
G75*
G02*
X192118000Y-91848500I0J-237500D01*
G01*
X192118000Y-92348500D01*
G75*
G02*
X191880500Y-92586000I-237500J0D01*
G01*
G37*
G36*
G01*
X191880500Y-90761000D02*
X191405500Y-90761000D01*
G75*
G02*
X191168000Y-90523500I0J237500D01*
G01*
X191168000Y-90023500D01*
G75*
G02*
X191405500Y-89786000I237500J0D01*
G01*
X191880500Y-89786000D01*
G75*
G02*
X192118000Y-90023500I0J-237500D01*
G01*
X192118000Y-90523500D01*
G75*
G02*
X191880500Y-90761000I-237500J0D01*
G01*
G37*
G36*
G01*
X189340500Y-104651000D02*
X188865500Y-104651000D01*
G75*
G02*
X188628000Y-104413500I0J237500D01*
G01*
X188628000Y-103913500D01*
G75*
G02*
X188865500Y-103676000I237500J0D01*
G01*
X189340500Y-103676000D01*
G75*
G02*
X189578000Y-103913500I0J-237500D01*
G01*
X189578000Y-104413500D01*
G75*
G02*
X189340500Y-104651000I-237500J0D01*
G01*
G37*
G36*
G01*
X189340500Y-102826000D02*
X188865500Y-102826000D01*
G75*
G02*
X188628000Y-102588500I0J237500D01*
G01*
X188628000Y-102088500D01*
G75*
G02*
X188865500Y-101851000I237500J0D01*
G01*
X189340500Y-101851000D01*
G75*
G02*
X189578000Y-102088500I0J-237500D01*
G01*
X189578000Y-102588500D01*
G75*
G02*
X189340500Y-102826000I-237500J0D01*
G01*
G37*
G36*
G01*
X187435500Y-104651000D02*
X186960500Y-104651000D01*
G75*
G02*
X186723000Y-104413500I0J237500D01*
G01*
X186723000Y-103913500D01*
G75*
G02*
X186960500Y-103676000I237500J0D01*
G01*
X187435500Y-103676000D01*
G75*
G02*
X187673000Y-103913500I0J-237500D01*
G01*
X187673000Y-104413500D01*
G75*
G02*
X187435500Y-104651000I-237500J0D01*
G01*
G37*
G36*
G01*
X187435500Y-102826000D02*
X186960500Y-102826000D01*
G75*
G02*
X186723000Y-102588500I0J237500D01*
G01*
X186723000Y-102088500D01*
G75*
G02*
X186960500Y-101851000I237500J0D01*
G01*
X187435500Y-101851000D01*
G75*
G02*
X187673000Y-102088500I0J-237500D01*
G01*
X187673000Y-102588500D01*
G75*
G02*
X187435500Y-102826000I-237500J0D01*
G01*
G37*
G36*
G01*
X185530500Y-104651000D02*
X185055500Y-104651000D01*
G75*
G02*
X184818000Y-104413500I0J237500D01*
G01*
X184818000Y-103913500D01*
G75*
G02*
X185055500Y-103676000I237500J0D01*
G01*
X185530500Y-103676000D01*
G75*
G02*
X185768000Y-103913500I0J-237500D01*
G01*
X185768000Y-104413500D01*
G75*
G02*
X185530500Y-104651000I-237500J0D01*
G01*
G37*
G36*
G01*
X185530500Y-102826000D02*
X185055500Y-102826000D01*
G75*
G02*
X184818000Y-102588500I0J237500D01*
G01*
X184818000Y-102088500D01*
G75*
G02*
X185055500Y-101851000I237500J0D01*
G01*
X185530500Y-101851000D01*
G75*
G02*
X185768000Y-102088500I0J-237500D01*
G01*
X185768000Y-102588500D01*
G75*
G02*
X185530500Y-102826000I-237500J0D01*
G01*
G37*
G36*
G01*
X190878000Y-109203500D02*
X190878000Y-108728500D01*
G75*
G02*
X191115500Y-108491000I237500J0D01*
G01*
X191615500Y-108491000D01*
G75*
G02*
X191853000Y-108728500I0J-237500D01*
G01*
X191853000Y-109203500D01*
G75*
G02*
X191615500Y-109441000I-237500J0D01*
G01*
X191115500Y-109441000D01*
G75*
G02*
X190878000Y-109203500I0J237500D01*
G01*
G37*
G36*
G01*
X192703000Y-109203500D02*
X192703000Y-108728500D01*
G75*
G02*
X192940500Y-108491000I237500J0D01*
G01*
X193440500Y-108491000D01*
G75*
G02*
X193678000Y-108728500I0J-237500D01*
G01*
X193678000Y-109203500D01*
G75*
G02*
X193440500Y-109441000I-237500J0D01*
G01*
X192940500Y-109441000D01*
G75*
G02*
X192703000Y-109203500I0J237500D01*
G01*
G37*
G36*
G01*
X190878000Y-107298500D02*
X190878000Y-106823500D01*
G75*
G02*
X191115500Y-106586000I237500J0D01*
G01*
X191615500Y-106586000D01*
G75*
G02*
X191853000Y-106823500I0J-237500D01*
G01*
X191853000Y-107298500D01*
G75*
G02*
X191615500Y-107536000I-237500J0D01*
G01*
X191115500Y-107536000D01*
G75*
G02*
X190878000Y-107298500I0J237500D01*
G01*
G37*
G36*
G01*
X192703000Y-107298500D02*
X192703000Y-106823500D01*
G75*
G02*
X192940500Y-106586000I237500J0D01*
G01*
X193440500Y-106586000D01*
G75*
G02*
X193678000Y-106823500I0J-237500D01*
G01*
X193678000Y-107298500D01*
G75*
G02*
X193440500Y-107536000I-237500J0D01*
G01*
X192940500Y-107536000D01*
G75*
G02*
X192703000Y-107298500I0J237500D01*
G01*
G37*
G36*
G01*
X190878000Y-105393500D02*
X190878000Y-104918500D01*
G75*
G02*
X191115500Y-104681000I237500J0D01*
G01*
X191615500Y-104681000D01*
G75*
G02*
X191853000Y-104918500I0J-237500D01*
G01*
X191853000Y-105393500D01*
G75*
G02*
X191615500Y-105631000I-237500J0D01*
G01*
X191115500Y-105631000D01*
G75*
G02*
X190878000Y-105393500I0J237500D01*
G01*
G37*
G36*
G01*
X192703000Y-105393500D02*
X192703000Y-104918500D01*
G75*
G02*
X192940500Y-104681000I237500J0D01*
G01*
X193440500Y-104681000D01*
G75*
G02*
X193678000Y-104918500I0J-237500D01*
G01*
X193678000Y-105393500D01*
G75*
G02*
X193440500Y-105631000I-237500J0D01*
G01*
X192940500Y-105631000D01*
G75*
G02*
X192703000Y-105393500I0J237500D01*
G01*
G37*
G36*
G01*
X191405500Y-93318500D02*
X191880500Y-93318500D01*
G75*
G02*
X192118000Y-93556000I0J-237500D01*
G01*
X192118000Y-94056000D01*
G75*
G02*
X191880500Y-94293500I-237500J0D01*
G01*
X191405500Y-94293500D01*
G75*
G02*
X191168000Y-94056000I0J237500D01*
G01*
X191168000Y-93556000D01*
G75*
G02*
X191405500Y-93318500I237500J0D01*
G01*
G37*
G36*
G01*
X191405500Y-95143500D02*
X191880500Y-95143500D01*
G75*
G02*
X192118000Y-95381000I0J-237500D01*
G01*
X192118000Y-95881000D01*
G75*
G02*
X191880500Y-96118500I-237500J0D01*
G01*
X191405500Y-96118500D01*
G75*
G02*
X191168000Y-95881000I0J237500D01*
G01*
X191168000Y-95381000D01*
G75*
G02*
X191405500Y-95143500I237500J0D01*
G01*
G37*
G36*
G01*
X131448000Y-101108500D02*
X131448000Y-101583500D01*
G75*
G02*
X131210500Y-101821000I-237500J0D01*
G01*
X130710500Y-101821000D01*
G75*
G02*
X130473000Y-101583500I0J237500D01*
G01*
X130473000Y-101108500D01*
G75*
G02*
X130710500Y-100871000I237500J0D01*
G01*
X131210500Y-100871000D01*
G75*
G02*
X131448000Y-101108500I0J-237500D01*
G01*
G37*
G36*
G01*
X129623000Y-101108500D02*
X129623000Y-101583500D01*
G75*
G02*
X129385500Y-101821000I-237500J0D01*
G01*
X128885500Y-101821000D01*
G75*
G02*
X128648000Y-101583500I0J237500D01*
G01*
X128648000Y-101108500D01*
G75*
G02*
X128885500Y-100871000I237500J0D01*
G01*
X129385500Y-100871000D01*
G75*
G02*
X129623000Y-101108500I0J-237500D01*
G01*
G37*
G36*
G01*
X125813000Y-101108500D02*
X125813000Y-101583500D01*
G75*
G02*
X125575500Y-101821000I-237500J0D01*
G01*
X125075500Y-101821000D01*
G75*
G02*
X124838000Y-101583500I0J237500D01*
G01*
X124838000Y-101108500D01*
G75*
G02*
X125075500Y-100871000I237500J0D01*
G01*
X125575500Y-100871000D01*
G75*
G02*
X125813000Y-101108500I0J-237500D01*
G01*
G37*
G36*
G01*
X127638000Y-101108500D02*
X127638000Y-101583500D01*
G75*
G02*
X127400500Y-101821000I-237500J0D01*
G01*
X126900500Y-101821000D01*
G75*
G02*
X126663000Y-101583500I0J237500D01*
G01*
X126663000Y-101108500D01*
G75*
G02*
X126900500Y-100871000I237500J0D01*
G01*
X127400500Y-100871000D01*
G75*
G02*
X127638000Y-101108500I0J-237500D01*
G01*
G37*
G36*
G01*
X177943500Y-87627000D02*
X178418500Y-87627000D01*
G75*
G02*
X178656000Y-87864500I0J-237500D01*
G01*
X178656000Y-88364500D01*
G75*
G02*
X178418500Y-88602000I-237500J0D01*
G01*
X177943500Y-88602000D01*
G75*
G02*
X177706000Y-88364500I0J237500D01*
G01*
X177706000Y-87864500D01*
G75*
G02*
X177943500Y-87627000I237500J0D01*
G01*
G37*
G36*
G01*
X177943500Y-89452000D02*
X178418500Y-89452000D01*
G75*
G02*
X178656000Y-89689500I0J-237500D01*
G01*
X178656000Y-90189500D01*
G75*
G02*
X178418500Y-90427000I-237500J0D01*
G01*
X177943500Y-90427000D01*
G75*
G02*
X177706000Y-90189500I0J237500D01*
G01*
X177706000Y-89689500D01*
G75*
G02*
X177943500Y-89452000I237500J0D01*
G01*
G37*
G36*
G01*
X149603000Y-74278500D02*
X149603000Y-73803500D01*
G75*
G02*
X149840500Y-73566000I237500J0D01*
G01*
X150340500Y-73566000D01*
G75*
G02*
X150578000Y-73803500I0J-237500D01*
G01*
X150578000Y-74278500D01*
G75*
G02*
X150340500Y-74516000I-237500J0D01*
G01*
X149840500Y-74516000D01*
G75*
G02*
X149603000Y-74278500I0J237500D01*
G01*
G37*
G36*
G01*
X151428000Y-74278500D02*
X151428000Y-73803500D01*
G75*
G02*
X151665500Y-73566000I237500J0D01*
G01*
X152165500Y-73566000D01*
G75*
G02*
X152403000Y-73803500I0J-237500D01*
G01*
X152403000Y-74278500D01*
G75*
G02*
X152165500Y-74516000I-237500J0D01*
G01*
X151665500Y-74516000D01*
G75*
G02*
X151428000Y-74278500I0J237500D01*
G01*
G37*
G36*
G01*
X199133000Y-99043500D02*
X199133000Y-98568500D01*
G75*
G02*
X199370500Y-98331000I237500J0D01*
G01*
X199870500Y-98331000D01*
G75*
G02*
X200108000Y-98568500I0J-237500D01*
G01*
X200108000Y-99043500D01*
G75*
G02*
X199870500Y-99281000I-237500J0D01*
G01*
X199370500Y-99281000D01*
G75*
G02*
X199133000Y-99043500I0J237500D01*
G01*
G37*
G36*
G01*
X200958000Y-99043500D02*
X200958000Y-98568500D01*
G75*
G02*
X201195500Y-98331000I237500J0D01*
G01*
X201695500Y-98331000D01*
G75*
G02*
X201933000Y-98568500I0J-237500D01*
G01*
X201933000Y-99043500D01*
G75*
G02*
X201695500Y-99281000I-237500J0D01*
G01*
X201195500Y-99281000D01*
G75*
G02*
X200958000Y-99043500I0J237500D01*
G01*
G37*
G36*
G01*
X198230500Y-95126000D02*
X197755500Y-95126000D01*
G75*
G02*
X197518000Y-94888500I0J237500D01*
G01*
X197518000Y-94388500D01*
G75*
G02*
X197755500Y-94151000I237500J0D01*
G01*
X198230500Y-94151000D01*
G75*
G02*
X198468000Y-94388500I0J-237500D01*
G01*
X198468000Y-94888500D01*
G75*
G02*
X198230500Y-95126000I-237500J0D01*
G01*
G37*
G36*
G01*
X198230500Y-93301000D02*
X197755500Y-93301000D01*
G75*
G02*
X197518000Y-93063500I0J237500D01*
G01*
X197518000Y-92563500D01*
G75*
G02*
X197755500Y-92326000I237500J0D01*
G01*
X198230500Y-92326000D01*
G75*
G02*
X198468000Y-92563500I0J-237500D01*
G01*
X198468000Y-93063500D01*
G75*
G02*
X198230500Y-93301000I-237500J0D01*
G01*
G37*
G36*
G01*
X122298000Y-107933500D02*
X122298000Y-107458500D01*
G75*
G02*
X122535500Y-107221000I237500J0D01*
G01*
X123035500Y-107221000D01*
G75*
G02*
X123273000Y-107458500I0J-237500D01*
G01*
X123273000Y-107933500D01*
G75*
G02*
X123035500Y-108171000I-237500J0D01*
G01*
X122535500Y-108171000D01*
G75*
G02*
X122298000Y-107933500I0J237500D01*
G01*
G37*
G36*
G01*
X124123000Y-107933500D02*
X124123000Y-107458500D01*
G75*
G02*
X124360500Y-107221000I237500J0D01*
G01*
X124860500Y-107221000D01*
G75*
G02*
X125098000Y-107458500I0J-237500D01*
G01*
X125098000Y-107933500D01*
G75*
G02*
X124860500Y-108171000I-237500J0D01*
G01*
X124360500Y-108171000D01*
G75*
G02*
X124123000Y-107933500I0J237500D01*
G01*
G37*
G36*
G01*
X122298000Y-109838500D02*
X122298000Y-109363500D01*
G75*
G02*
X122535500Y-109126000I237500J0D01*
G01*
X123035500Y-109126000D01*
G75*
G02*
X123273000Y-109363500I0J-237500D01*
G01*
X123273000Y-109838500D01*
G75*
G02*
X123035500Y-110076000I-237500J0D01*
G01*
X122535500Y-110076000D01*
G75*
G02*
X122298000Y-109838500I0J237500D01*
G01*
G37*
G36*
G01*
X124123000Y-109838500D02*
X124123000Y-109363500D01*
G75*
G02*
X124360500Y-109126000I237500J0D01*
G01*
X124860500Y-109126000D01*
G75*
G02*
X125098000Y-109363500I0J-237500D01*
G01*
X125098000Y-109838500D01*
G75*
G02*
X124860500Y-110076000I-237500J0D01*
G01*
X124360500Y-110076000D01*
G75*
G02*
X124123000Y-109838500I0J237500D01*
G01*
G37*
G36*
G01*
X105788000Y-88883500D02*
X105788000Y-88408500D01*
G75*
G02*
X106025500Y-88171000I237500J0D01*
G01*
X106525500Y-88171000D01*
G75*
G02*
X106763000Y-88408500I0J-237500D01*
G01*
X106763000Y-88883500D01*
G75*
G02*
X106525500Y-89121000I-237500J0D01*
G01*
X106025500Y-89121000D01*
G75*
G02*
X105788000Y-88883500I0J237500D01*
G01*
G37*
G36*
G01*
X107613000Y-88883500D02*
X107613000Y-88408500D01*
G75*
G02*
X107850500Y-88171000I237500J0D01*
G01*
X108350500Y-88171000D01*
G75*
G02*
X108588000Y-88408500I0J-237500D01*
G01*
X108588000Y-88883500D01*
G75*
G02*
X108350500Y-89121000I-237500J0D01*
G01*
X107850500Y-89121000D01*
G75*
G02*
X107613000Y-88883500I0J237500D01*
G01*
G37*
G36*
G01*
X108588000Y-85868500D02*
X108588000Y-86343500D01*
G75*
G02*
X108350500Y-86581000I-237500J0D01*
G01*
X107850500Y-86581000D01*
G75*
G02*
X107613000Y-86343500I0J237500D01*
G01*
X107613000Y-85868500D01*
G75*
G02*
X107850500Y-85631000I237500J0D01*
G01*
X108350500Y-85631000D01*
G75*
G02*
X108588000Y-85868500I0J-237500D01*
G01*
G37*
G36*
G01*
X106763000Y-85868500D02*
X106763000Y-86343500D01*
G75*
G02*
X106525500Y-86581000I-237500J0D01*
G01*
X106025500Y-86581000D01*
G75*
G02*
X105788000Y-86343500I0J237500D01*
G01*
X105788000Y-85868500D01*
G75*
G02*
X106025500Y-85631000I237500J0D01*
G01*
X106525500Y-85631000D01*
G75*
G02*
X106763000Y-85868500I0J-237500D01*
G01*
G37*
D15*
X180308000Y-114046000D03*
X189008000Y-114046000D03*
G36*
G01*
X130603000Y-82108500D02*
X130128000Y-82108500D01*
G75*
G02*
X129890500Y-81871000I0J237500D01*
G01*
X129890500Y-81296000D01*
G75*
G02*
X130128000Y-81058500I237500J0D01*
G01*
X130603000Y-81058500D01*
G75*
G02*
X130840500Y-81296000I0J-237500D01*
G01*
X130840500Y-81871000D01*
G75*
G02*
X130603000Y-82108500I-237500J0D01*
G01*
G37*
G36*
G01*
X130603000Y-80358500D02*
X130128000Y-80358500D01*
G75*
G02*
X129890500Y-80121000I0J237500D01*
G01*
X129890500Y-79546000D01*
G75*
G02*
X130128000Y-79308500I237500J0D01*
G01*
X130603000Y-79308500D01*
G75*
G02*
X130840500Y-79546000I0J-237500D01*
G01*
X130840500Y-80121000D01*
G75*
G02*
X130603000Y-80358500I-237500J0D01*
G01*
G37*
G36*
G01*
X123300500Y-91316000D02*
X122825500Y-91316000D01*
G75*
G02*
X122588000Y-91078500I0J237500D01*
G01*
X122588000Y-90503500D01*
G75*
G02*
X122825500Y-90266000I237500J0D01*
G01*
X123300500Y-90266000D01*
G75*
G02*
X123538000Y-90503500I0J-237500D01*
G01*
X123538000Y-91078500D01*
G75*
G02*
X123300500Y-91316000I-237500J0D01*
G01*
G37*
G36*
G01*
X123300500Y-89566000D02*
X122825500Y-89566000D01*
G75*
G02*
X122588000Y-89328500I0J237500D01*
G01*
X122588000Y-88753500D01*
G75*
G02*
X122825500Y-88516000I237500J0D01*
G01*
X123300500Y-88516000D01*
G75*
G02*
X123538000Y-88753500I0J-237500D01*
G01*
X123538000Y-89328500D01*
G75*
G02*
X123300500Y-89566000I-237500J0D01*
G01*
G37*
G36*
G01*
X125433000Y-96716001D02*
X125433000Y-95815999D01*
G75*
G02*
X125682999Y-95566000I249999J0D01*
G01*
X126333001Y-95566000D01*
G75*
G02*
X126583000Y-95815999I0J-249999D01*
G01*
X126583000Y-96716001D01*
G75*
G02*
X126333001Y-96966000I-249999J0D01*
G01*
X125682999Y-96966000D01*
G75*
G02*
X125433000Y-96716001I0J249999D01*
G01*
G37*
G36*
G01*
X128433000Y-96716001D02*
X128433000Y-95815999D01*
G75*
G02*
X128682999Y-95566000I249999J0D01*
G01*
X129333001Y-95566000D01*
G75*
G02*
X129583000Y-95815999I0J-249999D01*
G01*
X129583000Y-96716001D01*
G75*
G02*
X129333001Y-96966000I-249999J0D01*
G01*
X128682999Y-96966000D01*
G75*
G02*
X128433000Y-96716001I0J249999D01*
G01*
G37*
G36*
G01*
X125773000Y-111055999D02*
X125773000Y-111956001D01*
G75*
G02*
X125523001Y-112206000I-249999J0D01*
G01*
X124872999Y-112206000D01*
G75*
G02*
X124623000Y-111956001I0J249999D01*
G01*
X124623000Y-111055999D01*
G75*
G02*
X124872999Y-110806000I249999J0D01*
G01*
X125523001Y-110806000D01*
G75*
G02*
X125773000Y-111055999I0J-249999D01*
G01*
G37*
G36*
G01*
X122773000Y-111055999D02*
X122773000Y-111956001D01*
G75*
G02*
X122523001Y-112206000I-249999J0D01*
G01*
X121872999Y-112206000D01*
G75*
G02*
X121623000Y-111956001I0J249999D01*
G01*
X121623000Y-111055999D01*
G75*
G02*
X121872999Y-110806000I249999J0D01*
G01*
X122523001Y-110806000D01*
G75*
G02*
X122773000Y-111055999I0J-249999D01*
G01*
G37*
G36*
G01*
X108060500Y-104016000D02*
X107585500Y-104016000D01*
G75*
G02*
X107348000Y-103778500I0J237500D01*
G01*
X107348000Y-103178500D01*
G75*
G02*
X107585500Y-102941000I237500J0D01*
G01*
X108060500Y-102941000D01*
G75*
G02*
X108298000Y-103178500I0J-237500D01*
G01*
X108298000Y-103778500D01*
G75*
G02*
X108060500Y-104016000I-237500J0D01*
G01*
G37*
G36*
G01*
X108060500Y-102291000D02*
X107585500Y-102291000D01*
G75*
G02*
X107348000Y-102053500I0J237500D01*
G01*
X107348000Y-101453500D01*
G75*
G02*
X107585500Y-101216000I237500J0D01*
G01*
X108060500Y-101216000D01*
G75*
G02*
X108298000Y-101453500I0J-237500D01*
G01*
X108298000Y-102053500D01*
G75*
G02*
X108060500Y-102291000I-237500J0D01*
G01*
G37*
G36*
G01*
X181613000Y-86186000D02*
X181613000Y-86661000D01*
G75*
G02*
X181375500Y-86898500I-237500J0D01*
G01*
X180775500Y-86898500D01*
G75*
G02*
X180538000Y-86661000I0J237500D01*
G01*
X180538000Y-86186000D01*
G75*
G02*
X180775500Y-85948500I237500J0D01*
G01*
X181375500Y-85948500D01*
G75*
G02*
X181613000Y-86186000I0J-237500D01*
G01*
G37*
G36*
G01*
X179888000Y-86186000D02*
X179888000Y-86661000D01*
G75*
G02*
X179650500Y-86898500I-237500J0D01*
G01*
X179050500Y-86898500D01*
G75*
G02*
X178813000Y-86661000I0J237500D01*
G01*
X178813000Y-86186000D01*
G75*
G02*
X179050500Y-85948500I237500J0D01*
G01*
X179650500Y-85948500D01*
G75*
G02*
X179888000Y-86186000I0J-237500D01*
G01*
G37*
G36*
G01*
X128908000Y-79518500D02*
X128908000Y-79993500D01*
G75*
G02*
X128670500Y-80231000I-237500J0D01*
G01*
X128070500Y-80231000D01*
G75*
G02*
X127833000Y-79993500I0J237500D01*
G01*
X127833000Y-79518500D01*
G75*
G02*
X128070500Y-79281000I237500J0D01*
G01*
X128670500Y-79281000D01*
G75*
G02*
X128908000Y-79518500I0J-237500D01*
G01*
G37*
G36*
G01*
X127183000Y-79518500D02*
X127183000Y-79993500D01*
G75*
G02*
X126945500Y-80231000I-237500J0D01*
G01*
X126345500Y-80231000D01*
G75*
G02*
X126108000Y-79993500I0J237500D01*
G01*
X126108000Y-79518500D01*
G75*
G02*
X126345500Y-79281000I237500J0D01*
G01*
X126945500Y-79281000D01*
G75*
G02*
X127183000Y-79518500I0J-237500D01*
G01*
G37*
G36*
G01*
X129918000Y-84438500D02*
X129918000Y-83963500D01*
G75*
G02*
X130155500Y-83726000I237500J0D01*
G01*
X130755500Y-83726000D01*
G75*
G02*
X130993000Y-83963500I0J-237500D01*
G01*
X130993000Y-84438500D01*
G75*
G02*
X130755500Y-84676000I-237500J0D01*
G01*
X130155500Y-84676000D01*
G75*
G02*
X129918000Y-84438500I0J237500D01*
G01*
G37*
G36*
G01*
X131643000Y-84438500D02*
X131643000Y-83963500D01*
G75*
G02*
X131880500Y-83726000I237500J0D01*
G01*
X132480500Y-83726000D01*
G75*
G02*
X132718000Y-83963500I0J-237500D01*
G01*
X132718000Y-84438500D01*
G75*
G02*
X132480500Y-84676000I-237500J0D01*
G01*
X131880500Y-84676000D01*
G75*
G02*
X131643000Y-84438500I0J237500D01*
G01*
G37*
G36*
G01*
X120507999Y-87691000D02*
X121808001Y-87691000D01*
G75*
G02*
X122058000Y-87940999I0J-249999D01*
G01*
X122058000Y-88766001D01*
G75*
G02*
X121808001Y-89016000I-249999J0D01*
G01*
X120507999Y-89016000D01*
G75*
G02*
X120258000Y-88766001I0J249999D01*
G01*
X120258000Y-87940999D01*
G75*
G02*
X120507999Y-87691000I249999J0D01*
G01*
G37*
G36*
G01*
X120507999Y-90816000D02*
X121808001Y-90816000D01*
G75*
G02*
X122058000Y-91065999I0J-249999D01*
G01*
X122058000Y-91891001D01*
G75*
G02*
X121808001Y-92141000I-249999J0D01*
G01*
X120507999Y-92141000D01*
G75*
G02*
X120258000Y-91891001I0J249999D01*
G01*
X120258000Y-91065999D01*
G75*
G02*
X120507999Y-90816000I249999J0D01*
G01*
G37*
G36*
G01*
X131715500Y-89786000D02*
X132190500Y-89786000D01*
G75*
G02*
X132428000Y-90023500I0J-237500D01*
G01*
X132428000Y-90623500D01*
G75*
G02*
X132190500Y-90861000I-237500J0D01*
G01*
X131715500Y-90861000D01*
G75*
G02*
X131478000Y-90623500I0J237500D01*
G01*
X131478000Y-90023500D01*
G75*
G02*
X131715500Y-89786000I237500J0D01*
G01*
G37*
G36*
G01*
X131715500Y-91511000D02*
X132190500Y-91511000D01*
G75*
G02*
X132428000Y-91748500I0J-237500D01*
G01*
X132428000Y-92348500D01*
G75*
G02*
X132190500Y-92586000I-237500J0D01*
G01*
X131715500Y-92586000D01*
G75*
G02*
X131478000Y-92348500I0J237500D01*
G01*
X131478000Y-91748500D01*
G75*
G02*
X131715500Y-91511000I237500J0D01*
G01*
G37*
G36*
G01*
X123828000Y-92853500D02*
X123828000Y-93328500D01*
G75*
G02*
X123590500Y-93566000I-237500J0D01*
G01*
X122990500Y-93566000D01*
G75*
G02*
X122753000Y-93328500I0J237500D01*
G01*
X122753000Y-92853500D01*
G75*
G02*
X122990500Y-92616000I237500J0D01*
G01*
X123590500Y-92616000D01*
G75*
G02*
X123828000Y-92853500I0J-237500D01*
G01*
G37*
G36*
G01*
X122103000Y-92853500D02*
X122103000Y-93328500D01*
G75*
G02*
X121865500Y-93566000I-237500J0D01*
G01*
X121265500Y-93566000D01*
G75*
G02*
X121028000Y-93328500I0J237500D01*
G01*
X121028000Y-92853500D01*
G75*
G02*
X121265500Y-92616000I237500J0D01*
G01*
X121865500Y-92616000D01*
G75*
G02*
X122103000Y-92853500I0J-237500D01*
G01*
G37*
G36*
G01*
X199133000Y-88883500D02*
X199133000Y-88408500D01*
G75*
G02*
X199370500Y-88171000I237500J0D01*
G01*
X199970500Y-88171000D01*
G75*
G02*
X200208000Y-88408500I0J-237500D01*
G01*
X200208000Y-88883500D01*
G75*
G02*
X199970500Y-89121000I-237500J0D01*
G01*
X199370500Y-89121000D01*
G75*
G02*
X199133000Y-88883500I0J237500D01*
G01*
G37*
G36*
G01*
X200858000Y-88883500D02*
X200858000Y-88408500D01*
G75*
G02*
X201095500Y-88171000I237500J0D01*
G01*
X201695500Y-88171000D01*
G75*
G02*
X201933000Y-88408500I0J-237500D01*
G01*
X201933000Y-88883500D01*
G75*
G02*
X201695500Y-89121000I-237500J0D01*
G01*
X201095500Y-89121000D01*
G75*
G02*
X200858000Y-88883500I0J237500D01*
G01*
G37*
G36*
G01*
X133860500Y-108315999D02*
X133860500Y-109616001D01*
G75*
G02*
X133610501Y-109866000I-249999J0D01*
G01*
X132785499Y-109866000D01*
G75*
G02*
X132535500Y-109616001I0J249999D01*
G01*
X132535500Y-108315999D01*
G75*
G02*
X132785499Y-108066000I249999J0D01*
G01*
X133610501Y-108066000D01*
G75*
G02*
X133860500Y-108315999I0J-249999D01*
G01*
G37*
G36*
G01*
X130735500Y-108315999D02*
X130735500Y-109616001D01*
G75*
G02*
X130485501Y-109866000I-249999J0D01*
G01*
X129660499Y-109866000D01*
G75*
G02*
X129410500Y-109616001I0J249999D01*
G01*
X129410500Y-108315999D01*
G75*
G02*
X129660499Y-108066000I249999J0D01*
G01*
X130485501Y-108066000D01*
G75*
G02*
X130735500Y-108315999I0J-249999D01*
G01*
G37*
G36*
G01*
X127745500Y-110048500D02*
X127270500Y-110048500D01*
G75*
G02*
X127033000Y-109811000I0J237500D01*
G01*
X127033000Y-109211000D01*
G75*
G02*
X127270500Y-108973500I237500J0D01*
G01*
X127745500Y-108973500D01*
G75*
G02*
X127983000Y-109211000I0J-237500D01*
G01*
X127983000Y-109811000D01*
G75*
G02*
X127745500Y-110048500I-237500J0D01*
G01*
G37*
G36*
G01*
X127745500Y-108323500D02*
X127270500Y-108323500D01*
G75*
G02*
X127033000Y-108086000I0J237500D01*
G01*
X127033000Y-107486000D01*
G75*
G02*
X127270500Y-107248500I237500J0D01*
G01*
X127745500Y-107248500D01*
G75*
G02*
X127983000Y-107486000I0J-237500D01*
G01*
X127983000Y-108086000D01*
G75*
G02*
X127745500Y-108323500I-237500J0D01*
G01*
G37*
M02*
