G04 #@! TF.GenerationSoftware,KiCad,Pcbnew,(5.1.9)-1*
G04 #@! TF.CreationDate,2021-11-13T13:02:01+09:00*
G04 #@! TF.ProjectId,MainBoard2022_mega,4d61696e-426f-4617-9264-323032325f6d,rev?*
G04 #@! TF.SameCoordinates,Original*
G04 #@! TF.FileFunction,Legend,Bot*
G04 #@! TF.FilePolarity,Positive*
%FSLAX46Y46*%
G04 Gerber Fmt 4.6, Leading zero omitted, Abs format (unit mm)*
G04 Created by KiCad (PCBNEW (5.1.9)-1) date 2021-11-13 13:02:01*
%MOMM*%
%LPD*%
G01*
G04 APERTURE LIST*
%ADD10C,0.150000*%
%ADD11C,0.120000*%
G04 APERTURE END LIST*
D10*
X196213000Y-119626119D02*
X196165380Y-119578500D01*
X196070142Y-119530880D01*
X195832047Y-119530880D01*
X195736809Y-119578500D01*
X195689190Y-119626119D01*
X195641571Y-119721357D01*
X195641571Y-119816595D01*
X195689190Y-119959452D01*
X196260619Y-120530880D01*
X195641571Y-120530880D01*
X195022523Y-119530880D02*
X194927285Y-119530880D01*
X194832047Y-119578500D01*
X194784428Y-119626119D01*
X194736809Y-119721357D01*
X194689190Y-119911833D01*
X194689190Y-120149928D01*
X194736809Y-120340404D01*
X194784428Y-120435642D01*
X194832047Y-120483261D01*
X194927285Y-120530880D01*
X195022523Y-120530880D01*
X195117761Y-120483261D01*
X195165380Y-120435642D01*
X195213000Y-120340404D01*
X195260619Y-120149928D01*
X195260619Y-119911833D01*
X195213000Y-119721357D01*
X195165380Y-119626119D01*
X195117761Y-119578500D01*
X195022523Y-119530880D01*
X194308238Y-119626119D02*
X194260619Y-119578500D01*
X194165380Y-119530880D01*
X193927285Y-119530880D01*
X193832047Y-119578500D01*
X193784428Y-119626119D01*
X193736809Y-119721357D01*
X193736809Y-119816595D01*
X193784428Y-119959452D01*
X194355857Y-120530880D01*
X193736809Y-120530880D01*
X192784428Y-120530880D02*
X193355857Y-120530880D01*
X193070142Y-120530880D02*
X193070142Y-119530880D01*
X193165380Y-119673738D01*
X193260619Y-119768976D01*
X193355857Y-119816595D01*
X191641571Y-119483261D02*
X192498714Y-120768976D01*
X190784428Y-120530880D02*
X191355857Y-120530880D01*
X191070142Y-120530880D02*
X191070142Y-119530880D01*
X191165380Y-119673738D01*
X191260619Y-119768976D01*
X191355857Y-119816595D01*
X189832047Y-120530880D02*
X190403476Y-120530880D01*
X190117761Y-120530880D02*
X190117761Y-119530880D01*
X190213000Y-119673738D01*
X190308238Y-119768976D01*
X190403476Y-119816595D01*
X188689190Y-119483261D02*
X189546333Y-120768976D01*
X187832047Y-120530880D02*
X188403476Y-120530880D01*
X188117761Y-120530880D02*
X188117761Y-119530880D01*
X188213000Y-119673738D01*
X188308238Y-119768976D01*
X188403476Y-119816595D01*
X187498714Y-119530880D02*
X186879666Y-119530880D01*
X187213000Y-119911833D01*
X187070142Y-119911833D01*
X186974904Y-119959452D01*
X186927285Y-120007071D01*
X186879666Y-120102309D01*
X186879666Y-120340404D01*
X186927285Y-120435642D01*
X186974904Y-120483261D01*
X187070142Y-120530880D01*
X187355857Y-120530880D01*
X187451095Y-120483261D01*
X187498714Y-120435642D01*
X185689190Y-120530880D02*
X185689190Y-119530880D01*
X185308238Y-119530880D01*
X185213000Y-119578500D01*
X185165380Y-119626119D01*
X185117761Y-119721357D01*
X185117761Y-119864214D01*
X185165380Y-119959452D01*
X185213000Y-120007071D01*
X185308238Y-120054690D01*
X185689190Y-120054690D01*
X184546333Y-120530880D02*
X184641571Y-120483261D01*
X184689190Y-120435642D01*
X184736809Y-120340404D01*
X184736809Y-120054690D01*
X184689190Y-119959452D01*
X184641571Y-119911833D01*
X184546333Y-119864214D01*
X184403476Y-119864214D01*
X184308238Y-119911833D01*
X184260619Y-119959452D01*
X184213000Y-120054690D01*
X184213000Y-120340404D01*
X184260619Y-120435642D01*
X184308238Y-120483261D01*
X184403476Y-120530880D01*
X184546333Y-120530880D01*
X183879666Y-119864214D02*
X183689190Y-120530880D01*
X183498714Y-120054690D01*
X183308238Y-120530880D01*
X183117761Y-119864214D01*
X182355857Y-120483261D02*
X182451095Y-120530880D01*
X182641571Y-120530880D01*
X182736809Y-120483261D01*
X182784428Y-120388023D01*
X182784428Y-120007071D01*
X182736809Y-119911833D01*
X182641571Y-119864214D01*
X182451095Y-119864214D01*
X182355857Y-119911833D01*
X182308238Y-120007071D01*
X182308238Y-120102309D01*
X182784428Y-120197547D01*
X181879666Y-120530880D02*
X181879666Y-119864214D01*
X181879666Y-120054690D02*
X181832047Y-119959452D01*
X181784428Y-119911833D01*
X181689190Y-119864214D01*
X181593952Y-119864214D01*
X180879666Y-120483261D02*
X180974904Y-120530880D01*
X181165380Y-120530880D01*
X181260619Y-120483261D01*
X181308238Y-120388023D01*
X181308238Y-120007071D01*
X181260619Y-119911833D01*
X181165380Y-119864214D01*
X180974904Y-119864214D01*
X180879666Y-119911833D01*
X180832047Y-120007071D01*
X180832047Y-120102309D01*
X181308238Y-120197547D01*
X179974904Y-120530880D02*
X179974904Y-119530880D01*
X179974904Y-120483261D02*
X180070142Y-120530880D01*
X180260619Y-120530880D01*
X180355857Y-120483261D01*
X180403476Y-120435642D01*
X180451095Y-120340404D01*
X180451095Y-120054690D01*
X180403476Y-119959452D01*
X180355857Y-119911833D01*
X180260619Y-119864214D01*
X180070142Y-119864214D01*
X179974904Y-119911833D01*
X178736809Y-120530880D02*
X178736809Y-119530880D01*
X178736809Y-119911833D02*
X178641571Y-119864214D01*
X178451095Y-119864214D01*
X178355857Y-119911833D01*
X178308238Y-119959452D01*
X178260619Y-120054690D01*
X178260619Y-120340404D01*
X178308238Y-120435642D01*
X178355857Y-120483261D01*
X178451095Y-120530880D01*
X178641571Y-120530880D01*
X178736809Y-120483261D01*
X177927285Y-119864214D02*
X177689190Y-120530880D01*
X177451095Y-119864214D02*
X177689190Y-120530880D01*
X177784428Y-120768976D01*
X177832047Y-120816595D01*
X177927285Y-120864214D01*
X176308238Y-120530880D02*
X176308238Y-119530880D01*
X175736809Y-120530880D02*
X176165380Y-119959452D01*
X175736809Y-119530880D02*
X176308238Y-120102309D01*
X175308238Y-119530880D02*
X175308238Y-120340404D01*
X175260619Y-120435642D01*
X175213000Y-120483261D01*
X175117761Y-120530880D01*
X174927285Y-120530880D01*
X174832047Y-120483261D01*
X174784428Y-120435642D01*
X174736809Y-120340404D01*
X174736809Y-119530880D01*
X173927285Y-120007071D02*
X173784428Y-120054690D01*
X173736809Y-120102309D01*
X173689190Y-120197547D01*
X173689190Y-120340404D01*
X173736809Y-120435642D01*
X173784428Y-120483261D01*
X173879666Y-120530880D01*
X174260619Y-120530880D01*
X174260619Y-119530880D01*
X173927285Y-119530880D01*
X173832047Y-119578500D01*
X173784428Y-119626119D01*
X173736809Y-119721357D01*
X173736809Y-119816595D01*
X173784428Y-119911833D01*
X173832047Y-119959452D01*
X173927285Y-120007071D01*
X174260619Y-120007071D01*
X173403476Y-119530880D02*
X172832047Y-119530880D01*
X173117761Y-120530880D02*
X173117761Y-119530880D01*
X172546333Y-120483261D02*
X172403476Y-120530880D01*
X172165380Y-120530880D01*
X172070142Y-120483261D01*
X172022523Y-120435642D01*
X171974904Y-120340404D01*
X171974904Y-120245166D01*
X172022523Y-120149928D01*
X172070142Y-120102309D01*
X172165380Y-120054690D01*
X172355857Y-120007071D01*
X172451095Y-119959452D01*
X172498714Y-119911833D01*
X172546333Y-119816595D01*
X172546333Y-119721357D01*
X172498714Y-119626119D01*
X172451095Y-119578500D01*
X172355857Y-119530880D01*
X172117761Y-119530880D01*
X171974904Y-119578500D01*
X171593952Y-120483261D02*
X171451095Y-120530880D01*
X171213000Y-120530880D01*
X171117761Y-120483261D01*
X171070142Y-120435642D01*
X171022523Y-120340404D01*
X171022523Y-120245166D01*
X171070142Y-120149928D01*
X171117761Y-120102309D01*
X171213000Y-120054690D01*
X171403476Y-120007071D01*
X171498714Y-119959452D01*
X171546333Y-119911833D01*
X171593952Y-119816595D01*
X171593952Y-119721357D01*
X171546333Y-119626119D01*
X171498714Y-119578500D01*
X171403476Y-119530880D01*
X171165380Y-119530880D01*
X171022523Y-119578500D01*
X169879666Y-120245166D02*
X169403476Y-120245166D01*
X169974904Y-120530880D02*
X169641571Y-119530880D01*
X169308238Y-120530880D01*
X169070142Y-119864214D02*
X168832047Y-120530880D01*
X168593952Y-119864214D01*
X168213000Y-120530880D02*
X168213000Y-119864214D01*
X168213000Y-119530880D02*
X168260619Y-119578500D01*
X168213000Y-119626119D01*
X168165380Y-119578500D01*
X168213000Y-119530880D01*
X168213000Y-119626119D01*
X167593952Y-120530880D02*
X167689190Y-120483261D01*
X167736809Y-120435642D01*
X167784428Y-120340404D01*
X167784428Y-120054690D01*
X167736809Y-119959452D01*
X167689190Y-119911833D01*
X167593952Y-119864214D01*
X167451095Y-119864214D01*
X167355857Y-119911833D01*
X167308238Y-119959452D01*
X167260619Y-120054690D01*
X167260619Y-120340404D01*
X167308238Y-120435642D01*
X167355857Y-120483261D01*
X167451095Y-120530880D01*
X167593952Y-120530880D01*
X166832047Y-119864214D02*
X166832047Y-120530880D01*
X166832047Y-119959452D02*
X166784428Y-119911833D01*
X166689190Y-119864214D01*
X166546333Y-119864214D01*
X166451095Y-119911833D01*
X166403476Y-120007071D01*
X166403476Y-120530880D01*
X165927285Y-120530880D02*
X165927285Y-119864214D01*
X165927285Y-119530880D02*
X165974904Y-119578500D01*
X165927285Y-119626119D01*
X165879666Y-119578500D01*
X165927285Y-119530880D01*
X165927285Y-119626119D01*
X165022523Y-120483261D02*
X165117761Y-120530880D01*
X165308238Y-120530880D01*
X165403476Y-120483261D01*
X165451095Y-120435642D01*
X165498714Y-120340404D01*
X165498714Y-120054690D01*
X165451095Y-119959452D01*
X165403476Y-119911833D01*
X165308238Y-119864214D01*
X165117761Y-119864214D01*
X165022523Y-119911833D01*
X164641571Y-120483261D02*
X164546333Y-120530880D01*
X164355857Y-120530880D01*
X164260619Y-120483261D01*
X164213000Y-120388023D01*
X164213000Y-120340404D01*
X164260619Y-120245166D01*
X164355857Y-120197547D01*
X164498714Y-120197547D01*
X164593952Y-120149928D01*
X164641571Y-120054690D01*
X164641571Y-120007071D01*
X164593952Y-119911833D01*
X164498714Y-119864214D01*
X164355857Y-119864214D01*
X164260619Y-119911833D01*
D11*
X147447724Y-74563500D02*
X146938276Y-74563500D01*
X147447724Y-73518500D02*
X146938276Y-73518500D01*
X198882724Y-101458500D02*
X198373276Y-101458500D01*
X198882724Y-102503500D02*
X198373276Y-102503500D01*
X107948000Y-78339733D02*
X107948000Y-78632267D01*
X108968000Y-78339733D02*
X108968000Y-78632267D01*
X123551733Y-106301000D02*
X123844267Y-106301000D01*
X123551733Y-105281000D02*
X123844267Y-105281000D01*
X191328000Y-115696000D02*
X191328000Y-114646000D01*
X193128000Y-115696000D02*
X191328000Y-115696000D01*
X191328000Y-112396000D02*
X191328000Y-113446000D01*
X193728000Y-112396000D02*
X191328000Y-112396000D01*
X188518000Y-88086000D02*
X190333000Y-88086000D01*
X188518000Y-87841000D02*
X188518000Y-88086000D01*
X184658000Y-87841000D02*
X188518000Y-87841000D01*
X180798000Y-87841000D02*
X180798000Y-88086000D01*
X184658000Y-87841000D02*
X180798000Y-87841000D01*
X188518000Y-99611000D02*
X188518000Y-99366000D01*
X184658000Y-99611000D02*
X188518000Y-99611000D01*
X180798000Y-99611000D02*
X180798000Y-99366000D01*
X184658000Y-99611000D02*
X180798000Y-99611000D01*
X129118000Y-81856000D02*
X129118000Y-84006000D01*
X125898000Y-81431000D02*
X125898000Y-84006000D01*
X128208000Y-84006000D02*
X129118000Y-84006000D01*
X125898000Y-84006000D02*
X126808000Y-84006000D01*
X130918000Y-94016000D02*
X130918000Y-88006000D01*
X124098000Y-91766000D02*
X124098000Y-88006000D01*
X130918000Y-88006000D02*
X129658000Y-88006000D01*
X124098000Y-88006000D02*
X125358000Y-88006000D01*
X199243000Y-93726000D02*
X199243000Y-90276000D01*
X199243000Y-93726000D02*
X199243000Y-95676000D01*
X204363000Y-93726000D02*
X204363000Y-91776000D01*
X204363000Y-93726000D02*
X204363000Y-95676000D01*
X122315500Y-75691276D02*
X122315500Y-76200724D01*
X121270500Y-75691276D02*
X121270500Y-76200724D01*
X125490500Y-75691276D02*
X125490500Y-76200724D01*
X124445500Y-75691276D02*
X124445500Y-76200724D01*
X128665500Y-75691276D02*
X128665500Y-76200724D01*
X127620500Y-75691276D02*
X127620500Y-76200724D01*
X131840500Y-75691276D02*
X131840500Y-76200724D01*
X130795500Y-75691276D02*
X130795500Y-76200724D01*
X119140500Y-75691276D02*
X119140500Y-76200724D01*
X118095500Y-75691276D02*
X118095500Y-76200724D01*
X192023276Y-110348500D02*
X192532724Y-110348500D01*
X192023276Y-111393500D02*
X192532724Y-111393500D01*
X190485500Y-81280724D02*
X190485500Y-80771276D01*
X191530500Y-81280724D02*
X191530500Y-80771276D01*
X191120500Y-91440724D02*
X191120500Y-90931276D01*
X192165500Y-91440724D02*
X192165500Y-90931276D01*
X188580500Y-103505724D02*
X188580500Y-102996276D01*
X189625500Y-103505724D02*
X189625500Y-102996276D01*
X186675500Y-103505724D02*
X186675500Y-102996276D01*
X187720500Y-103505724D02*
X187720500Y-102996276D01*
X184770500Y-103505724D02*
X184770500Y-102996276D01*
X185815500Y-103505724D02*
X185815500Y-102996276D01*
X192023276Y-108443500D02*
X192532724Y-108443500D01*
X192023276Y-109488500D02*
X192532724Y-109488500D01*
X192023276Y-106538500D02*
X192532724Y-106538500D01*
X192023276Y-107583500D02*
X192532724Y-107583500D01*
X192023276Y-104633500D02*
X192532724Y-104633500D01*
X192023276Y-105678500D02*
X192532724Y-105678500D01*
X192165500Y-94463776D02*
X192165500Y-94973224D01*
X191120500Y-94463776D02*
X191120500Y-94973224D01*
X130302724Y-101868500D02*
X129793276Y-101868500D01*
X130302724Y-100823500D02*
X129793276Y-100823500D01*
X126492724Y-100823500D02*
X125983276Y-100823500D01*
X126492724Y-101868500D02*
X125983276Y-101868500D01*
X178703500Y-88772276D02*
X178703500Y-89281724D01*
X177658500Y-88772276D02*
X177658500Y-89281724D01*
X150748276Y-73518500D02*
X151257724Y-73518500D01*
X150748276Y-74563500D02*
X151257724Y-74563500D01*
X200278276Y-98283500D02*
X200787724Y-98283500D01*
X200278276Y-99328500D02*
X200787724Y-99328500D01*
X197470500Y-93980724D02*
X197470500Y-93471276D01*
X198515500Y-93980724D02*
X198515500Y-93471276D01*
X123443276Y-107173500D02*
X123952724Y-107173500D01*
X123443276Y-108218500D02*
X123952724Y-108218500D01*
X123443276Y-109078500D02*
X123952724Y-109078500D01*
X123443276Y-110123500D02*
X123952724Y-110123500D01*
X106933276Y-88123500D02*
X107442724Y-88123500D01*
X106933276Y-89168500D02*
X107442724Y-89168500D01*
X107442724Y-86628500D02*
X106933276Y-86628500D01*
X107442724Y-85583500D02*
X106933276Y-85583500D01*
X180048000Y-116006000D02*
X180048000Y-118656000D01*
X180048000Y-118656000D02*
X189268000Y-118656000D01*
X189268000Y-118656000D02*
X189268000Y-116006000D01*
X189268000Y-112086000D02*
X189268000Y-109436000D01*
X189268000Y-109436000D02*
X180048000Y-109436000D01*
X180048000Y-109436000D02*
X180048000Y-112086000D01*
X180048000Y-116006000D02*
X179718000Y-116006000D01*
X119318000Y-95266000D02*
X117918000Y-95266000D01*
X117218000Y-95966000D02*
X117218000Y-96566000D01*
X117918000Y-97266000D02*
X119318000Y-97266000D01*
X120018000Y-96566000D02*
X120018000Y-95966000D01*
X117918000Y-95266000D02*
G75*
G03*
X117218000Y-95966000I0J-700000D01*
G01*
X117218000Y-96566000D02*
G75*
G03*
X117918000Y-97266000I700000J0D01*
G01*
X119318000Y-97266000D02*
G75*
G03*
X120018000Y-96566000I0J700000D01*
G01*
X120018000Y-95966000D02*
G75*
G03*
X119318000Y-95266000I-700000J0D01*
G01*
X119188000Y-80121000D02*
X120588000Y-80121000D01*
X121288000Y-79421000D02*
X121288000Y-78821000D01*
X120588000Y-78121000D02*
X119188000Y-78121000D01*
X118488000Y-78821000D02*
X118488000Y-79421000D01*
X120588000Y-80121000D02*
G75*
G03*
X121288000Y-79421000I0J700000D01*
G01*
X121288000Y-78821000D02*
G75*
G03*
X120588000Y-78121000I-700000J0D01*
G01*
X119188000Y-78121000D02*
G75*
G03*
X118488000Y-78821000I0J-700000D01*
G01*
X118488000Y-79421000D02*
G75*
G03*
X119188000Y-80121000I700000J0D01*
G01*
X122983000Y-80121000D02*
X124383000Y-80121000D01*
X125083000Y-79421000D02*
X125083000Y-78821000D01*
X124383000Y-78121000D02*
X122983000Y-78121000D01*
X122283000Y-78821000D02*
X122283000Y-79421000D01*
X124383000Y-80121000D02*
G75*
G03*
X125083000Y-79421000I0J700000D01*
G01*
X125083000Y-78821000D02*
G75*
G03*
X124383000Y-78121000I-700000J0D01*
G01*
X122983000Y-78121000D02*
G75*
G03*
X122283000Y-78821000I0J-700000D01*
G01*
X122283000Y-79421000D02*
G75*
G03*
X122983000Y-80121000I700000J0D01*
G01*
X121728000Y-97266000D02*
X123128000Y-97266000D01*
X123828000Y-96566000D02*
X123828000Y-95966000D01*
X123128000Y-95266000D02*
X121728000Y-95266000D01*
X121028000Y-95966000D02*
X121028000Y-96566000D01*
X123128000Y-97266000D02*
G75*
G03*
X123828000Y-96566000I0J700000D01*
G01*
X123828000Y-95966000D02*
G75*
G03*
X123128000Y-95266000I-700000J0D01*
G01*
X121728000Y-95266000D02*
G75*
G03*
X121028000Y-95966000I0J-700000D01*
G01*
X121028000Y-96566000D02*
G75*
G03*
X121728000Y-97266000I700000J0D01*
G01*
X129630500Y-82368500D02*
X129630500Y-79908500D01*
X131100500Y-82368500D02*
X129630500Y-82368500D01*
X131100500Y-79908500D02*
X131100500Y-82368500D01*
X122328000Y-91576000D02*
X122328000Y-89116000D01*
X123798000Y-91576000D02*
X122328000Y-91576000D01*
X123798000Y-89116000D02*
X123798000Y-91576000D01*
X125173000Y-95306000D02*
X128033000Y-95306000D01*
X125173000Y-97226000D02*
X125173000Y-95306000D01*
X128033000Y-97226000D02*
X125173000Y-97226000D01*
X126033000Y-112466000D02*
X123173000Y-112466000D01*
X126033000Y-110546000D02*
X126033000Y-112466000D01*
X123173000Y-110546000D02*
X126033000Y-110546000D01*
X107313000Y-102762267D02*
X107313000Y-102469733D01*
X108333000Y-102762267D02*
X108333000Y-102469733D01*
X180359267Y-86933500D02*
X180066733Y-86933500D01*
X180359267Y-85913500D02*
X180066733Y-85913500D01*
X127654267Y-80266000D02*
X127361733Y-80266000D01*
X127654267Y-79246000D02*
X127361733Y-79246000D01*
X131171733Y-83691000D02*
X131464267Y-83691000D01*
X131171733Y-84711000D02*
X131464267Y-84711000D01*
X122068000Y-89204748D02*
X122068000Y-90627252D01*
X120248000Y-89204748D02*
X120248000Y-90627252D01*
X132463000Y-91039733D02*
X132463000Y-91332267D01*
X131443000Y-91039733D02*
X131443000Y-91332267D01*
X122574267Y-93601000D02*
X122281733Y-93601000D01*
X122574267Y-92581000D02*
X122281733Y-92581000D01*
X200386733Y-88136000D02*
X200679267Y-88136000D01*
X200386733Y-89156000D02*
X200679267Y-89156000D01*
X132346752Y-109876000D02*
X130924248Y-109876000D01*
X132346752Y-108056000D02*
X130924248Y-108056000D01*
X126998000Y-108794767D02*
X126998000Y-108502233D01*
X128018000Y-108794767D02*
X128018000Y-108502233D01*
D10*
X185191333Y-95218261D02*
X185267523Y-95180166D01*
X185305619Y-95142071D01*
X185343714Y-95065880D01*
X185343714Y-95027785D01*
X185305619Y-94951595D01*
X185267523Y-94913500D01*
X185191333Y-94875404D01*
X185038952Y-94875404D01*
X184962761Y-94913500D01*
X184924666Y-94951595D01*
X184886571Y-95027785D01*
X184886571Y-95065880D01*
X184924666Y-95142071D01*
X184962761Y-95180166D01*
X185038952Y-95218261D01*
X185191333Y-95218261D01*
X185267523Y-95256357D01*
X185305619Y-95294452D01*
X185343714Y-95370642D01*
X185343714Y-95523023D01*
X185305619Y-95599214D01*
X185267523Y-95637309D01*
X185191333Y-95675404D01*
X185038952Y-95675404D01*
X184962761Y-95637309D01*
X184924666Y-95599214D01*
X184886571Y-95523023D01*
X184886571Y-95370642D01*
X184924666Y-95294452D01*
X184962761Y-95256357D01*
X185038952Y-95218261D01*
X184543714Y-95675404D02*
X184543714Y-94875404D01*
X184277047Y-95446833D01*
X184010380Y-94875404D01*
X184010380Y-95675404D01*
X151478952Y-112704571D02*
X151336095Y-112752190D01*
X151288476Y-112799809D01*
X151240857Y-112895047D01*
X151240857Y-113037904D01*
X151288476Y-113133142D01*
X151336095Y-113180761D01*
X151431333Y-113228380D01*
X151812285Y-113228380D01*
X151812285Y-112228380D01*
X151478952Y-112228380D01*
X151383714Y-112276000D01*
X151336095Y-112323619D01*
X151288476Y-112418857D01*
X151288476Y-112514095D01*
X151336095Y-112609333D01*
X151383714Y-112656952D01*
X151478952Y-112704571D01*
X151812285Y-112704571D01*
X150812285Y-113228380D02*
X150812285Y-112228380D01*
X150478952Y-112942666D01*
X150145619Y-112228380D01*
X150145619Y-113228380D01*
X149669428Y-112704571D02*
X149336095Y-112704571D01*
X149193238Y-113228380D02*
X149669428Y-113228380D01*
X149669428Y-112228380D01*
X149193238Y-112228380D01*
X148812285Y-112323619D02*
X148764666Y-112276000D01*
X148669428Y-112228380D01*
X148431333Y-112228380D01*
X148336095Y-112276000D01*
X148288476Y-112323619D01*
X148240857Y-112418857D01*
X148240857Y-112514095D01*
X148288476Y-112656952D01*
X148859904Y-113228380D01*
X148240857Y-113228380D01*
X147669428Y-112656952D02*
X147764666Y-112609333D01*
X147812285Y-112561714D01*
X147859904Y-112466476D01*
X147859904Y-112418857D01*
X147812285Y-112323619D01*
X147764666Y-112276000D01*
X147669428Y-112228380D01*
X147478952Y-112228380D01*
X147383714Y-112276000D01*
X147336095Y-112323619D01*
X147288476Y-112418857D01*
X147288476Y-112466476D01*
X147336095Y-112561714D01*
X147383714Y-112609333D01*
X147478952Y-112656952D01*
X147669428Y-112656952D01*
X147764666Y-112704571D01*
X147812285Y-112752190D01*
X147859904Y-112847428D01*
X147859904Y-113037904D01*
X147812285Y-113133142D01*
X147764666Y-113180761D01*
X147669428Y-113228380D01*
X147478952Y-113228380D01*
X147383714Y-113180761D01*
X147336095Y-113133142D01*
X147288476Y-113037904D01*
X147288476Y-112847428D01*
X147336095Y-112752190D01*
X147383714Y-112704571D01*
X147478952Y-112656952D01*
X146669428Y-112228380D02*
X146574190Y-112228380D01*
X146478952Y-112276000D01*
X146431333Y-112323619D01*
X146383714Y-112418857D01*
X146336095Y-112609333D01*
X146336095Y-112847428D01*
X146383714Y-113037904D01*
X146431333Y-113133142D01*
X146478952Y-113180761D01*
X146574190Y-113228380D01*
X146669428Y-113228380D01*
X146764666Y-113180761D01*
X146812285Y-113133142D01*
X146859904Y-113037904D01*
X146907523Y-112847428D01*
X146907523Y-112609333D01*
X146859904Y-112418857D01*
X146812285Y-112323619D01*
X146764666Y-112276000D01*
X146669428Y-112228380D01*
X192639904Y-112998380D02*
X191839904Y-112998380D01*
X192639904Y-113455523D01*
X191839904Y-113455523D01*
X192639904Y-113836476D02*
X191839904Y-113836476D01*
X191839904Y-114141238D01*
X191878000Y-114217428D01*
X191916095Y-114255523D01*
X191992285Y-114293619D01*
X192106571Y-114293619D01*
X192182761Y-114255523D01*
X192220857Y-114217428D01*
X192258952Y-114141238D01*
X192258952Y-113836476D01*
X192639904Y-114636476D02*
X191839904Y-114636476D01*
X192639904Y-115093619D01*
X191839904Y-115093619D01*
X187896095Y-94178380D02*
X187896095Y-93178380D01*
X187562761Y-93892666D01*
X187229428Y-93178380D01*
X187229428Y-94178380D01*
X186181809Y-94083142D02*
X186229428Y-94130761D01*
X186372285Y-94178380D01*
X186467523Y-94178380D01*
X186610380Y-94130761D01*
X186705619Y-94035523D01*
X186753238Y-93940285D01*
X186800857Y-93749809D01*
X186800857Y-93606952D01*
X186753238Y-93416476D01*
X186705619Y-93321238D01*
X186610380Y-93226000D01*
X186467523Y-93178380D01*
X186372285Y-93178380D01*
X186229428Y-93226000D01*
X186181809Y-93273619D01*
X185753238Y-94178380D02*
X185753238Y-93178380D01*
X185372285Y-93178380D01*
X185277047Y-93226000D01*
X185229428Y-93273619D01*
X185181809Y-93368857D01*
X185181809Y-93511714D01*
X185229428Y-93606952D01*
X185277047Y-93654571D01*
X185372285Y-93702190D01*
X185753238Y-93702190D01*
X184800857Y-93273619D02*
X184753238Y-93226000D01*
X184658000Y-93178380D01*
X184419904Y-93178380D01*
X184324666Y-93226000D01*
X184277047Y-93273619D01*
X184229428Y-93368857D01*
X184229428Y-93464095D01*
X184277047Y-93606952D01*
X184848476Y-94178380D01*
X184229428Y-94178380D01*
X183324666Y-93178380D02*
X183800857Y-93178380D01*
X183848476Y-93654571D01*
X183800857Y-93606952D01*
X183705619Y-93559333D01*
X183467523Y-93559333D01*
X183372285Y-93606952D01*
X183324666Y-93654571D01*
X183277047Y-93749809D01*
X183277047Y-93987904D01*
X183324666Y-94083142D01*
X183372285Y-94130761D01*
X183467523Y-94178380D01*
X183705619Y-94178380D01*
X183800857Y-94130761D01*
X183848476Y-94083142D01*
X182324666Y-94178380D02*
X182896095Y-94178380D01*
X182610380Y-94178380D02*
X182610380Y-93178380D01*
X182705619Y-93321238D01*
X182800857Y-93416476D01*
X182896095Y-93464095D01*
X181419904Y-93178380D02*
X181896095Y-93178380D01*
X181943714Y-93654571D01*
X181896095Y-93606952D01*
X181800857Y-93559333D01*
X181562761Y-93559333D01*
X181467523Y-93606952D01*
X181419904Y-93654571D01*
X181372285Y-93749809D01*
X181372285Y-93987904D01*
X181419904Y-94083142D01*
X181467523Y-94130761D01*
X181562761Y-94178380D01*
X181800857Y-94178380D01*
X181896095Y-94130761D01*
X181943714Y-94083142D01*
X128498476Y-82492904D02*
X128003238Y-82492904D01*
X128269904Y-82797666D01*
X128155619Y-82797666D01*
X128079428Y-82835761D01*
X128041333Y-82873857D01*
X128003238Y-82950047D01*
X128003238Y-83140523D01*
X128041333Y-83216714D01*
X128079428Y-83254809D01*
X128155619Y-83292904D01*
X128384190Y-83292904D01*
X128460380Y-83254809D01*
X128498476Y-83216714D01*
X127774666Y-82492904D02*
X127508000Y-83292904D01*
X127241333Y-82492904D01*
X127050857Y-82492904D02*
X126555619Y-82492904D01*
X126822285Y-82797666D01*
X126708000Y-82797666D01*
X126631809Y-82835761D01*
X126593714Y-82873857D01*
X126555619Y-82950047D01*
X126555619Y-83140523D01*
X126593714Y-83216714D01*
X126631809Y-83254809D01*
X126708000Y-83292904D01*
X126936571Y-83292904D01*
X127012761Y-83254809D01*
X127050857Y-83216714D01*
X127698476Y-89368380D02*
X128174666Y-89368380D01*
X128222285Y-89844571D01*
X128174666Y-89796952D01*
X128079428Y-89749333D01*
X127841333Y-89749333D01*
X127746095Y-89796952D01*
X127698476Y-89844571D01*
X127650857Y-89939809D01*
X127650857Y-90177904D01*
X127698476Y-90273142D01*
X127746095Y-90320761D01*
X127841333Y-90368380D01*
X128079428Y-90368380D01*
X128174666Y-90320761D01*
X128222285Y-90273142D01*
X127365142Y-89368380D02*
X127031809Y-90368380D01*
X126698476Y-89368380D01*
X203517285Y-93273619D02*
X203469666Y-93226000D01*
X203374428Y-93178380D01*
X203136333Y-93178380D01*
X203041095Y-93226000D01*
X202993476Y-93273619D01*
X202945857Y-93368857D01*
X202945857Y-93464095D01*
X202993476Y-93606952D01*
X203564904Y-94178380D01*
X202945857Y-94178380D01*
X202041095Y-93178380D02*
X202517285Y-93178380D01*
X202564904Y-93654571D01*
X202517285Y-93606952D01*
X202422047Y-93559333D01*
X202183952Y-93559333D01*
X202088714Y-93606952D01*
X202041095Y-93654571D01*
X201993476Y-93749809D01*
X201993476Y-93987904D01*
X202041095Y-94083142D01*
X202088714Y-94130761D01*
X202183952Y-94178380D01*
X202422047Y-94178380D01*
X202517285Y-94130761D01*
X202564904Y-94083142D01*
X201088714Y-93178380D02*
X201564904Y-93178380D01*
X201612523Y-93654571D01*
X201564904Y-93606952D01*
X201469666Y-93559333D01*
X201231571Y-93559333D01*
X201136333Y-93606952D01*
X201088714Y-93654571D01*
X201041095Y-93749809D01*
X201041095Y-93987904D01*
X201088714Y-94083142D01*
X201136333Y-94130761D01*
X201231571Y-94178380D01*
X201469666Y-94178380D01*
X201564904Y-94130761D01*
X201612523Y-94083142D01*
X200088714Y-94178380D02*
X200660142Y-94178380D01*
X200374428Y-94178380D02*
X200374428Y-93178380D01*
X200469666Y-93321238D01*
X200564904Y-93416476D01*
X200660142Y-93464095D01*
X187419904Y-114450761D02*
X187277047Y-114498380D01*
X187038952Y-114498380D01*
X186943714Y-114450761D01*
X186896095Y-114403142D01*
X186848476Y-114307904D01*
X186848476Y-114212666D01*
X186896095Y-114117428D01*
X186943714Y-114069809D01*
X187038952Y-114022190D01*
X187229428Y-113974571D01*
X187324666Y-113926952D01*
X187372285Y-113879333D01*
X187419904Y-113784095D01*
X187419904Y-113688857D01*
X187372285Y-113593619D01*
X187324666Y-113546000D01*
X187229428Y-113498380D01*
X186991333Y-113498380D01*
X186848476Y-113546000D01*
X186419904Y-113831714D02*
X186419904Y-114831714D01*
X186419904Y-113879333D02*
X186324666Y-113831714D01*
X186134190Y-113831714D01*
X186038952Y-113879333D01*
X185991333Y-113926952D01*
X185943714Y-114022190D01*
X185943714Y-114307904D01*
X185991333Y-114403142D01*
X186038952Y-114450761D01*
X186134190Y-114498380D01*
X186324666Y-114498380D01*
X186419904Y-114450761D01*
X185134190Y-114450761D02*
X185229428Y-114498380D01*
X185419904Y-114498380D01*
X185515142Y-114450761D01*
X185562761Y-114355523D01*
X185562761Y-113974571D01*
X185515142Y-113879333D01*
X185419904Y-113831714D01*
X185229428Y-113831714D01*
X185134190Y-113879333D01*
X185086571Y-113974571D01*
X185086571Y-114069809D01*
X185562761Y-114165047D01*
X184229428Y-114498380D02*
X184229428Y-113974571D01*
X184277047Y-113879333D01*
X184372285Y-113831714D01*
X184562761Y-113831714D01*
X184658000Y-113879333D01*
X184229428Y-114450761D02*
X184324666Y-114498380D01*
X184562761Y-114498380D01*
X184658000Y-114450761D01*
X184705619Y-114355523D01*
X184705619Y-114260285D01*
X184658000Y-114165047D01*
X184562761Y-114117428D01*
X184324666Y-114117428D01*
X184229428Y-114069809D01*
X183753238Y-114498380D02*
X183753238Y-113498380D01*
X183658000Y-114117428D02*
X183372285Y-114498380D01*
X183372285Y-113831714D02*
X183753238Y-114212666D01*
X182562761Y-114450761D02*
X182658000Y-114498380D01*
X182848476Y-114498380D01*
X182943714Y-114450761D01*
X182991333Y-114355523D01*
X182991333Y-113974571D01*
X182943714Y-113879333D01*
X182848476Y-113831714D01*
X182658000Y-113831714D01*
X182562761Y-113879333D01*
X182515142Y-113974571D01*
X182515142Y-114069809D01*
X182991333Y-114165047D01*
X182086571Y-114498380D02*
X182086571Y-113831714D01*
X182086571Y-114022190D02*
X182038952Y-113926952D01*
X181991333Y-113879333D01*
X181896095Y-113831714D01*
X181800857Y-113831714D01*
X119522761Y-94416571D02*
X119379904Y-94464190D01*
X119332285Y-94511809D01*
X119284666Y-94607047D01*
X119284666Y-94749904D01*
X119332285Y-94845142D01*
X119379904Y-94892761D01*
X119475142Y-94940380D01*
X119856095Y-94940380D01*
X119856095Y-93940380D01*
X119522761Y-93940380D01*
X119427523Y-93988000D01*
X119379904Y-94035619D01*
X119332285Y-94130857D01*
X119332285Y-94226095D01*
X119379904Y-94321333D01*
X119427523Y-94368952D01*
X119522761Y-94416571D01*
X119856095Y-94416571D01*
X118856095Y-94940380D02*
X118856095Y-93940380D01*
X118475142Y-93940380D01*
X118379904Y-93988000D01*
X118332285Y-94035619D01*
X118284666Y-94130857D01*
X118284666Y-94273714D01*
X118332285Y-94368952D01*
X118379904Y-94416571D01*
X118475142Y-94464190D01*
X118856095Y-94464190D01*
X117903714Y-94892761D02*
X117760857Y-94940380D01*
X117522761Y-94940380D01*
X117427523Y-94892761D01*
X117379904Y-94845142D01*
X117332285Y-94749904D01*
X117332285Y-94654666D01*
X117379904Y-94559428D01*
X117427523Y-94511809D01*
X117522761Y-94464190D01*
X117713238Y-94416571D01*
X117808476Y-94368952D01*
X117856095Y-94321333D01*
X117903714Y-94226095D01*
X117903714Y-94130857D01*
X117856095Y-94035619D01*
X117808476Y-93988000D01*
X117713238Y-93940380D01*
X117475142Y-93940380D01*
X117332285Y-93988000D01*
X119427523Y-81478380D02*
X119427523Y-80478380D01*
X119094190Y-81192666D01*
X118760857Y-80478380D01*
X118760857Y-81478380D01*
X118379904Y-80478380D02*
X117760857Y-80478380D01*
X118094190Y-80859333D01*
X117951333Y-80859333D01*
X117856095Y-80906952D01*
X117808476Y-80954571D01*
X117760857Y-81049809D01*
X117760857Y-81287904D01*
X117808476Y-81383142D01*
X117856095Y-81430761D01*
X117951333Y-81478380D01*
X118237047Y-81478380D01*
X118332285Y-81430761D01*
X118379904Y-81383142D01*
X124507523Y-81478380D02*
X124507523Y-80478380D01*
X124174190Y-81192666D01*
X123840857Y-80478380D01*
X123840857Y-81478380D01*
X123412285Y-80573619D02*
X123364666Y-80526000D01*
X123269428Y-80478380D01*
X123031333Y-80478380D01*
X122936095Y-80526000D01*
X122888476Y-80573619D01*
X122840857Y-80668857D01*
X122840857Y-80764095D01*
X122888476Y-80906952D01*
X123459904Y-81478380D01*
X122840857Y-81478380D01*
X123237523Y-94940380D02*
X123237523Y-93940380D01*
X122904190Y-94654666D01*
X122570857Y-93940380D01*
X122570857Y-94940380D01*
X121570857Y-94940380D02*
X122142285Y-94940380D01*
X121856571Y-94940380D02*
X121856571Y-93940380D01*
X121951809Y-94083238D01*
X122047047Y-94178476D01*
X122142285Y-94226095D01*
X177173000Y-92845047D02*
X177125380Y-92749809D01*
X177125380Y-92606952D01*
X177173000Y-92464095D01*
X177268238Y-92368857D01*
X177363476Y-92321238D01*
X177553952Y-92273619D01*
X177696809Y-92273619D01*
X177887285Y-92321238D01*
X177982523Y-92368857D01*
X178077761Y-92464095D01*
X178125380Y-92606952D01*
X178125380Y-92702190D01*
X178077761Y-92845047D01*
X178030142Y-92892666D01*
X177696809Y-92892666D01*
X177696809Y-92702190D01*
X177458714Y-93226000D02*
X178125380Y-93464095D01*
X177458714Y-93702190D02*
X178125380Y-93464095D01*
X178363476Y-93368857D01*
X178411095Y-93321238D01*
X178458714Y-93226000D01*
X178125380Y-94083142D02*
X177458714Y-94083142D01*
X177649190Y-94083142D02*
X177553952Y-94130761D01*
X177506333Y-94178380D01*
X177458714Y-94273619D01*
X177458714Y-94368857D01*
X178125380Y-94845047D02*
X178077761Y-94749809D01*
X178030142Y-94702190D01*
X177934904Y-94654571D01*
X177649190Y-94654571D01*
X177553952Y-94702190D01*
X177506333Y-94749809D01*
X177458714Y-94845047D01*
X177458714Y-94987904D01*
X177506333Y-95083142D01*
X177553952Y-95130761D01*
X177649190Y-95178380D01*
X177934904Y-95178380D01*
X178030142Y-95130761D01*
X178077761Y-95083142D01*
X178125380Y-94987904D01*
X178125380Y-94845047D01*
X149812285Y-78621000D02*
X149907523Y-78573380D01*
X150050380Y-78573380D01*
X150193238Y-78621000D01*
X150288476Y-78716238D01*
X150336095Y-78811476D01*
X150383714Y-79001952D01*
X150383714Y-79144809D01*
X150336095Y-79335285D01*
X150288476Y-79430523D01*
X150193238Y-79525761D01*
X150050380Y-79573380D01*
X149955142Y-79573380D01*
X149812285Y-79525761D01*
X149764666Y-79478142D01*
X149764666Y-79144809D01*
X149955142Y-79144809D01*
X149336095Y-79573380D02*
X149336095Y-78573380D01*
X148955142Y-78573380D01*
X148859904Y-78621000D01*
X148812285Y-78668619D01*
X148764666Y-78763857D01*
X148764666Y-78906714D01*
X148812285Y-79001952D01*
X148859904Y-79049571D01*
X148955142Y-79097190D01*
X149336095Y-79097190D01*
X148383714Y-79525761D02*
X148240857Y-79573380D01*
X148002761Y-79573380D01*
X147907523Y-79525761D01*
X147859904Y-79478142D01*
X147812285Y-79382904D01*
X147812285Y-79287666D01*
X147859904Y-79192428D01*
X147907523Y-79144809D01*
X148002761Y-79097190D01*
X148193238Y-79049571D01*
X148288476Y-79001952D01*
X148336095Y-78954333D01*
X148383714Y-78859095D01*
X148383714Y-78763857D01*
X148336095Y-78668619D01*
X148288476Y-78621000D01*
X148193238Y-78573380D01*
X147955142Y-78573380D01*
X147812285Y-78621000D01*
M02*
